<?xml version="1.0" encoding="utf-8"?>
<!-- Generator: Adobe Illustrator 27.5.0, SVG Export Plug-In . SVG Version: 6.00 Build 0)  -->
<svg version="1.1" xmlns="http://www.w3.org/2000/svg" xmlns:xlink="http://www.w3.org/1999/xlink" x="0px" y="0px"
	 viewBox="0 0 500 500" style="enable-background:new 0 0 500 500;" xml:space="preserve">
<g id="BACKGROUND">
	<rect style="fill:#FFFFF0;" width="500" height="500"/>
</g>
<g id="OBJECTS">
	<g>
		
			<path style="fill:#969666;stroke:#33353D;stroke-width:0.75;stroke-linecap:round;stroke-linejoin:round;stroke-miterlimit:10;" d="
			M482.906,149.207c2.561-2.797,4.116-6.728,3.754-10.545c-0.357-3.761-2.419-7.046-5.811-8.792
			c-3.176-1.635-7.238-1.915-10.324,0.1c-3.316,2.164-4.842,6.62-3.434,10.102c1.51,3.732,5.979,4.935,9.435,3.133
			c1.815-0.946,2.832-2.677,3.073-4.66c0.167-1.376-1.333-2.698-2.64-2.64c-1.515,0.068-2.392,1.087-2.615,2.478
			c-0.006,0.004-0.019,0.044-0.042,0.141c-0.008,0.014-0.017,0.027-0.025,0.041c0.009-0.032-0.12,0.141-0.171,0.223
			c-0.006,0.01-0.013,0.019-0.021,0.028c-0.107,0.064-0.215,0.129-0.317,0.197c-0.033,0.022-0.08,0.045-0.125,0.065
			c-0.154,0.052-0.308,0.1-0.467,0.141c-0.065,0.017-0.13,0.031-0.196,0.046c0.082-0.015-0.053,0.025-0.177,0.04
			c-0.025,0.006-0.05,0.011-0.075,0.017c0.024-0.006,0.044-0.011,0.065-0.016c-0.026,0.003-0.051,0.005-0.073,0.005
			c-0.151-0.001-0.312-0.004-0.462,0.005c-0.028,0.002-0.05,0.003-0.071,0.005c-0.136-0.027-0.271-0.054-0.404-0.092
			c-0.084-0.024-0.375-0.167-0.325-0.135c-0.047-0.027-0.094-0.053-0.141-0.076c-0.046-0.023-0.074-0.034-0.093-0.04
			c-0.018-0.025-0.053-0.068-0.117-0.135c-0.361-0.382-0.63-0.858-0.716-1.479c-0.063-0.455,0.059-1.23,0.257-1.844
			c0.406-1.262,1.323-2.288,2.55-2.903c2.284-1.146,5.484-0.51,7.632,1.202c2.404,1.915,3.281,5.157,2.719,8.116
			c-1.487,7.834-9.65,11.081-16.895,10.279c-4.372-0.484-8.523-2.256-12.346-4.353c-3.359-1.843-6.557-3.955-9.612-6.266
			c-12.134-9.177-21.887-21.037-31.664-32.576c-9.921-11.709-20.098-23.349-32.727-32.236c-8.168-5.747-17.107-10.379-26.509-13.699
			c12.987,4.229,24.985,11.365,35.767,19.682c14.699,11.339,27.373,25,40.241,38.306c3.098,3.203,6.132,6.535,9.568,9.382
			c3.342,2.769,7.02,4.907,11.203,6.113c7.632,2.201,16.917-0.409,19.809-8.43c2.41-6.682-2.558-14.899-9.583-15.219v-75.07H268.64
			v3.639h68.799c-3.985,0.419-7.801,2.285-11.102,4.444c-4.147,2.712-7.914,5.983-11.86,8.971
			c-7.405,5.607-16.049,11.45-25.743,11.259c-3.591-0.071-7.46-1.2-10.159-3.651c-2.604-2.365-3.801-5.922-2.178-9.093
			c1.742-3.403,5.543-5.606,9.222-5.583c1.862,0.011,3.869,0.529,5.25,1.729c0.683,0.593,1.189,1.289,1.431,1.945
			c0.088,0.238,0.16,0.486,0.22,0.732c-0.002-0.008,0.082,0.498,0.093,0.497c0.018,0.212,0.026,0.426,0.023,0.637
			c-0.002,0.164-0.01,0.328-0.023,0.491c-0.006,0.034-0.013,0.073-0.022,0.12c-0.118,0.508-0.23,0.868-0.345,1.05
			c-0.069,0.109-0.132,0.219-0.199,0.328c0.002-0.023-0.274,0.332-0.293,0.351c-0.059,0.058-0.396,0.287-0.317,0.245
			c-0.072,0.043-0.145,0.085-0.218,0.126c0.056-0.037-0.301,0.135-0.377,0.158c-0.135,0.041-0.272,0.073-0.41,0.103
			c0.122-0.031-0.313,0.039-0.4,0.041c-0.151,0.004-0.301-0.003-0.451-0.011c0.228,0.009-0.252-0.034-0.352-0.06
			c-0.124-0.031-0.247-0.068-0.368-0.109c0.054,0.007-0.299-0.156-0.364-0.186c-0.038-0.018-0.067-0.03-0.092-0.04
			c-0.014-0.016-0.028-0.032-0.048-0.053c-0.057-0.061-0.273-0.335-0.267-0.301c-0.066-0.112-0.13-0.225-0.191-0.34
			c-0.638-1.212-2.327-1.581-3.473-0.91c-1.228,0.718-1.551,2.255-0.911,3.472c1.976,3.752,7.413,4.495,10.699,2.09
			c3.753-2.747,4.016-8.388,1.376-12.007c-5.587-7.659-18.321-5.122-22.367,2.769c-1.804,3.52-1.763,7.772,0.455,11.108
			c2.021,3.04,5.325,4.99,8.755,6.061c8.159,2.548,16.933-0.629,24.005-4.743c0.527-0.306,1.037-0.639,1.554-0.961
			c3.567-1.109,7.232-1.906,10.926-2.441c7.518-1.09,15.226-0.9,22.717,0.357c13.141,3.305,25.751,8.921,36.872,16.595
			c13.78,9.509,24.579,22.331,35.242,35.07c10.351,12.368,20.864,24.748,34.209,34.01c7.047,4.891,15.345,9.604,24.246,8.513
			C476.185,153.783,480.15,152.216,482.906,149.207z M351.074,57.02c2.356-3.42,1.544-7.838-1.022-10.879
			c-0.53-0.628-1.13-1.192-1.777-1.697c1.769-1.096,3.755-1.856,5.76-2.246c3.885-0.756,7.807,0.041,11.127,2.134
			c-3.171,2.192-5.864,5.194-7.072,8.88c-1.245,3.8-0.36,8.092,2.449,10.923c-4.388-1.774-8.897-3.23-13.518-4.307
			C348.696,59.521,350.105,58.428,351.074,57.02z M342.689,54.856c-0.77-2.01-0.091-4.19,1.001-5.94
			c0.738-1.183,1.67-2.228,2.732-3.127c1.307,0.896,2.411,2.059,3.136,3.482c0.795,1.559,0.977,3.313,0.418,4.977
			c-0.507,1.51-1.735,3.11-3.416,3.334C344.785,57.819,343.287,56.415,342.689,54.856z M365.294,41.488h5.329
			c-1.031,0.394-2.04,0.843-3.012,1.361C366.872,42.34,366.095,41.89,365.294,41.488z M367.626,46.234
			c2.103,1.963,3.758,4.518,4.354,7.291c0.603,2.805,0.185,6.339-1.768,8.562c-2.283,2.598-5.846,1.989-7.949-0.515
			c-2.61-3.107-1.981-7.228,0.135-10.403C363.729,49.172,365.564,47.526,367.626,46.234z M457.163,113.478
			c-3.377,1.257-6.019,4.57-6.11,8.206c-0.094,3.737,2.867,7.245,6.5,7.986c1.85,0.378,3.934,0.21,5.526-0.898
			c1.174-0.818,1.829-2.438,0.983-3.751c-0.753-1.167-2.492-1.859-3.751-0.983c-0.138,0.096-0.645,0.356-0.643,0.394
			c-0.286,0.064-0.646,0.127-0.381,0.127c-0.245,0.008-0.485,0.01-0.731,0c-0.042-0.006-0.083-0.014-0.115-0.024
			c-0.229-0.067-0.461-0.134-0.691-0.2c-0.024-0.007-0.059-0.021-0.095-0.036c-0.145-0.071-0.287-0.143-0.427-0.224
			c-0.12-0.07-0.233-0.15-0.353-0.221c-0.021-0.012-0.036-0.021-0.053-0.031c-0.008-0.008-0.015-0.014-0.026-0.024
			c-0.184-0.164-0.357-0.336-0.524-0.515c-0.018-0.032-0.214-0.274-0.246-0.324c-0.024-0.038-0.176-0.344-0.194-0.35
			c-0.031-0.105-0.058-0.211-0.09-0.316c-0.018-0.059-0.037-0.208-0.046-0.275c-0.008-0.151-0.012-0.302-0.008-0.453
			c0.002-0.074,0.037-0.366,0.028-0.351c0.057-0.295,0.138-0.591,0.247-0.871c0.018-0.032,0.09-0.185,0.104-0.209
			c0.142-0.24,0.272-0.482,0.429-0.712c0.034-0.05,0.05-0.077,0.057-0.091c0.027-0.03,0.058-0.065,0.098-0.111
			c0.105-0.121,0.215-0.239,0.327-0.353c0.323-0.327,0.431-0.422,0.654-0.578c0.802-0.56,1.174-0.696,2.112-0.918
			c1.041-0.246,2.387,0.097,3.452,0.723c1.252,0.736,2.152,1.753,2.874,3.134c0.633,1.212,0.913,2.5,0.8,3.978
			c-0.103,1.348-0.742,2.84-1.594,4.084c-1.801,2.628-4.569,4.603-7.764,5.257c-4.002,0.818-8.14-0.157-11.732-1.964
			c-3.79-1.907-7.053-4.674-10.108-7.582c-3.113-2.963-6.039-6.136-9.023-9.229c-12.039-12.477-24.151-25.021-38.065-35.445
			c-6.889-5.161-14.269-9.816-22.065-13.549c2.042,0.031,4.07-0.718,5.633-2.329c2.614-2.693,3.451-6.799,2.934-10.42
			c-0.496-3.471-2.449-6.688-4.975-9.134c0.847-0.392,1.711-0.735,2.578-1.02c4.207-1.387,8.779-1.647,13.09-0.582
			c2.59,0.64,5.095,1.752,7.367,3.238c-5.529,2.867-10.079,7.342-11.494,13.758c-0.969,4.393-0.005,8.838,2.912,12.288
			c2.712,3.208,6.943,5.13,11.149,4.337c4.268-0.804,7.555-4.257,9.106-8.176c1.871-4.728,0.917-10.136-1.25-14.588
			c-1.372-2.818-3.268-5.316-5.529-7.412c5.092-1.775,10.742-2.368,15.859-2.504c9.241-0.245,18.717,1.647,26.469,6.884
			c6.67,4.507,12.075,11.522,13.309,19.612c1.115,7.309-1.467,15.313-6.93,20.345c-2.585,2.381-5.453,3.764-8.921,4.327
			c-0.061,0.006-0.427,0.057-0.447,0.059c-0.153,0.016-0.306,0.03-0.459,0.042c-0.461,0.036-0.922,0.057-1.384,0.061
			c-0.886,0.009-1.773-0.04-2.653-0.147c-0.055-0.012-0.728-0.109-0.841-0.128c-0.418-0.071-0.834-0.155-1.247-0.251
			c-0.861-0.201-1.709-0.455-2.537-0.764c-0.164-0.061-0.327-0.126-0.49-0.192c-0.078-0.037-0.373-0.166-0.4-0.179
			c-0.345-0.161-0.686-0.332-1.021-0.514c-0.75-0.406-1.47-0.864-2.157-1.367c-0.052-0.043-0.322-0.252-0.346-0.272
			c-0.116-0.096-0.23-0.194-0.343-0.293c-0.339-0.298-0.666-0.609-0.98-0.933c-0.262-0.27-0.514-0.549-0.756-0.837
			c-0.022-0.026-0.265-0.337-0.281-0.352c-0.142-0.195-0.281-0.391-0.414-0.592c-1.068-1.613-1.602-2.984-1.968-4.888
			c-0.315-1.638-0.086-3.711,0.758-5.195c0.115-0.203,0.24-0.401,0.373-0.593c0.037-0.048,0.086-0.111,0.107-0.133
			c0.164-0.171,0.319-0.352,0.489-0.518c0.012-0.012,0.361-0.319,0.348-0.321c0.277-0.205,0.579-0.385,0.881-0.548
			c0.017-0.009,0.417-0.194,0.427-0.208c0.173-0.065,0.349-0.124,0.525-0.175c0.189-0.055,0.38-0.096,0.571-0.142
			c0.069-0.017,0.281-0.042,0.335-0.05c0.377-0.028,0.761-0.032,1.136,0.014c0.032,0.01,0.071,0.023,0.12,0.039
			c0.17,0.056,0.344,0.095,0.516,0.148c-0.034-0.001,0.384,0.178,0.409,0.193c0.204,0.116,0.394,0.248,0.584,0.386
			c0.93,0.675,2.376,0.25,3.012-0.602c0.625-0.837,0.747-2.343-0.183-3.066c-2.029-1.579-4.322-2.166-6.868-1.785
			c-2.109,0.315-4.202,1.374-5.684,2.918c-3.727,3.883-3.53,9.94-1.513,14.576c3.248,7.463,11.687,11.843,19.629,11.568
			c8.566-0.297,15.884-5.696,19.419-13.41c1.795-3.918,2.729-8.234,2.56-12.551c-0.172-4.383-1.486-8.691-3.523-12.562
			c-4.224-8.028-11.76-13.926-20.199-17.005c-9.703-3.54-20.685-3.663-30.728-1.59c-2.156,0.445-4.336,1.078-6.438,1.913
			c-1.991-1.525-4.202-2.756-6.542-3.668h67.542V113.478z M395.088,47.937c3.971,3.179,6.969,7.571,8.01,12.541
			c0.878,4.194,0.001,8.652-3.118,11.717c-2.79,2.741-6.827,3.543-10.341,1.71c-3.503-1.828-5.959-5.512-6.159-9.472
			c-0.213-4.226,1.674-8.318,4.495-11.389C389.986,50.854,392.419,49.193,395.088,47.937z M340.666,41.488h7.96
			c-0.899,0.447-1.767,0.958-2.584,1.543C344.365,42.185,342.511,41.682,340.666,41.488z M311.13,60.11
			c2.221-1.535,4.383-3.159,6.514-4.815c3.639-2.828,7.166-5.867,11.117-8.261c3.592-2.177,7.837-3.926,12.12-3.341
			c1.106,0.151,2.221,0.446,3.28,0.881c-3.264,3.076-5.822,8.229-3.032,12.435c0.53,0.8,1.225,1.494,2.025,2.008
			c-4.203-0.77-8.478-1.209-12.753-1.28c-0.358-0.04-0.715-0.087-1.074-0.123c-0.037-0.004-0.047,0.061-0.009,0.066
			c0.117,0.016,0.234,0.037,0.351,0.054C323.402,57.692,317.147,58.439,311.13,60.11z"/>
		
			<path style="fill:#969666;stroke:#33353D;stroke-width:0.75;stroke-linecap:round;stroke-linejoin:round;stroke-miterlimit:10;" d="
			M27.796,154.271c8.902,1.091,17.199-3.622,24.246-8.513c13.345-9.262,23.858-21.643,34.209-34.01
			c10.662-12.74,21.462-25.562,35.242-35.07c11.121-7.674,23.73-13.291,36.871-16.595c7.492-1.258,15.2-1.447,22.717-0.357
			c3.694,0.535,7.36,1.333,10.926,2.441c0.517,0.322,1.027,0.654,1.554,0.961c7.073,4.115,15.846,7.292,24.005,4.743
			c3.43-1.071,6.734-3.021,8.755-6.061c2.218-3.336,2.259-7.588,0.455-11.108c-4.046-7.891-16.78-10.429-22.367-2.769
			c-2.64,3.619-2.377,9.26,1.376,12.007c3.285,2.405,8.723,1.663,10.699-2.09c0.641-1.217,0.318-2.754-0.911-3.472
			c-1.146-0.67-2.834-0.302-3.473,0.91c-0.061,0.115-0.124,0.229-0.191,0.34c0.006-0.034-0.21,0.241-0.267,0.301
			c-0.019,0.021-0.034,0.037-0.048,0.053c-0.025,0.01-0.054,0.022-0.092,0.04c-0.065,0.03-0.418,0.193-0.364,0.186
			c-0.122,0.04-0.244,0.078-0.368,0.109c-0.1,0.025-0.58,0.069-0.352,0.06c-0.15,0.008-0.3,0.014-0.451,0.011
			c-0.087-0.002-0.522-0.072-0.4-0.041c-0.138-0.03-0.274-0.062-0.41-0.103c-0.076-0.023-0.433-0.195-0.377-0.158
			c-0.073-0.041-0.146-0.083-0.218-0.126c0.079,0.041-0.258-0.187-0.317-0.245c-0.019-0.019-0.295-0.374-0.293-0.351
			c-0.067-0.109-0.13-0.219-0.199-0.328c-0.115-0.182-0.227-0.542-0.345-1.05c-0.009-0.048-0.016-0.086-0.022-0.12
			c-0.014-0.163-0.022-0.327-0.024-0.491c-0.002-0.212,0.005-0.425,0.024-0.637c0.011,0.002,0.094-0.505,0.093-0.497
			c0.06-0.246,0.132-0.494,0.22-0.732c0.242-0.656,0.748-1.352,1.431-1.945c1.381-1.2,3.388-1.718,5.25-1.729
			c3.679-0.022,7.48,2.181,9.222,5.583c1.623,3.171,0.426,6.728-2.178,9.093c-2.699,2.451-6.568,3.58-10.159,3.651
			c-9.694,0.192-18.338-5.651-25.743-11.259c-3.946-2.988-7.713-6.259-11.86-8.971c-3.301-2.159-7.118-4.024-11.102-4.444h68.799
			v-3.639H39.199v75.07c-7.025,0.32-11.993,8.537-9.583,15.219c2.893,8.021,12.177,10.631,19.809,8.43
			c4.184-1.206,7.861-3.344,11.203-6.113c3.436-2.848,6.47-6.18,9.568-9.382c12.868-13.306,25.542-26.967,40.241-38.306
			c10.782-8.317,22.78-15.452,35.767-19.682c-9.402,3.321-18.341,7.952-26.509,13.699c-12.629,8.887-22.806,20.527-32.727,32.236
			c-9.777,11.539-19.53,23.399-31.664,32.576c-3.055,2.31-6.253,4.423-9.612,6.266c-3.823,2.097-7.974,3.869-12.346,4.353
			c-7.245,0.802-15.408-2.446-16.895-10.279c-0.562-2.958,0.315-6.201,2.719-8.116c2.148-1.711,5.348-2.347,7.632-1.202
			c1.227,0.616,2.144,1.641,2.55,2.903c0.198,0.614,0.32,1.389,0.257,1.844c-0.086,0.621-0.355,1.097-0.716,1.479
			c-0.064,0.068-0.099,0.11-0.117,0.135c-0.019,0.006-0.047,0.017-0.093,0.04c-0.047,0.023-0.094,0.05-0.141,0.076
			c0.05-0.033-0.241,0.111-0.325,0.135c-0.133,0.038-0.268,0.066-0.404,0.092c-0.021-0.002-0.043-0.003-0.071-0.005
			c-0.151-0.009-0.311-0.006-0.462-0.005c-0.022,0-0.047-0.002-0.073-0.005c0.021,0.005,0.041,0.01,0.065,0.016
			c-0.025-0.006-0.05-0.011-0.075-0.017c-0.124-0.016-0.259-0.055-0.177-0.04c-0.065-0.014-0.131-0.029-0.196-0.046
			c-0.159-0.041-0.313-0.09-0.467-0.141c-0.045-0.02-0.092-0.043-0.125-0.065c-0.102-0.068-0.211-0.133-0.317-0.197
			c-0.008-0.009-0.015-0.019-0.021-0.028c-0.051-0.082-0.18-0.255-0.171-0.223c-0.008-0.014-0.017-0.028-0.025-0.041
			c-0.024-0.098-0.037-0.138-0.042-0.141c-0.223-1.392-1.1-2.41-2.615-2.478c-1.306-0.059-2.807,1.264-2.64,2.64
			c0.241,1.983,1.257,3.714,3.073,4.66c3.457,1.802,7.925,0.599,9.435-3.133c1.408-3.482-0.118-7.938-3.434-10.102
			c-3.086-2.015-7.148-1.734-10.324-0.1c-3.392,1.746-5.454,5.031-5.811,8.792c-0.362,3.818,1.193,7.749,3.754,10.545
			C19.85,152.216,23.815,153.783,27.796,154.271z M152.978,59.828c-4.621,1.077-9.13,2.533-13.518,4.307
			c2.809-2.83,3.694-7.123,2.449-10.923c-1.208-3.686-3.901-6.688-7.072-8.88c3.321-2.093,7.242-2.891,11.127-2.134
			c2.006,0.39,3.992,1.15,5.761,2.246c-0.648,0.505-1.248,1.068-1.778,1.697c-2.565,3.041-3.377,7.459-1.022,10.879
			C149.895,58.428,151.304,59.521,152.978,59.828z M153.439,57.582c-1.681-0.224-2.909-1.824-3.416-3.334
			c-0.558-1.664-0.377-3.418,0.418-4.977c0.725-1.423,1.83-2.586,3.136-3.482c1.062,0.899,1.994,1.944,2.732,3.127
			c1.092,1.75,1.771,3.93,1.001,5.94C156.713,56.415,155.215,57.819,153.439,57.582z M132.388,42.848
			c-0.972-0.517-1.981-0.966-3.012-1.361h5.33C133.905,41.89,133.128,42.34,132.388,42.848z M137.602,51.169
			c2.116,3.176,2.744,7.296,0.135,10.403c-2.103,2.504-5.666,3.113-7.949,0.515c-1.953-2.223-2.371-5.757-1.768-8.562
			c0.596-2.773,2.252-5.328,4.354-7.291C134.436,47.526,136.271,49.172,137.602,51.169z M42.837,41.488h67.542
			c-2.341,0.912-4.552,2.144-6.543,3.668c-2.102-0.835-4.282-1.468-6.438-1.913c-10.042-2.073-21.024-1.951-30.728,1.59
			c-8.439,3.079-15.975,8.977-20.199,17.005c-2.037,3.871-3.351,8.178-3.523,12.562c-0.169,4.317,0.764,8.633,2.56,12.551
			c3.535,7.714,10.853,13.113,19.419,13.41c7.942,0.275,16.381-4.105,19.629-11.568c2.017-4.636,2.214-10.692-1.513-14.576
			c-1.482-1.544-3.575-2.602-5.684-2.918c-2.546-0.381-4.839,0.206-6.868,1.785c-0.93,0.723-0.808,2.229-0.183,3.066
			c0.636,0.851,2.083,1.277,3.012,0.602c0.19-0.138,0.38-0.27,0.584-0.386c0.026-0.015,0.443-0.194,0.409-0.193
			c0.171-0.052,0.345-0.092,0.515-0.148c0.049-0.016,0.088-0.029,0.12-0.039c0.374-0.046,0.759-0.042,1.136-0.014
			c0.054,0.008,0.266,0.033,0.335,0.05c0.191,0.047,0.382,0.087,0.571,0.142c0.177,0.051,0.352,0.11,0.525,0.175
			c0.01,0.014,0.41,0.199,0.427,0.208c0.302,0.162,0.604,0.342,0.881,0.548c-0.013,0.002,0.336,0.309,0.348,0.321
			c0.17,0.165,0.325,0.347,0.489,0.518c0.021,0.022,0.07,0.085,0.107,0.133c0.133,0.192,0.258,0.39,0.373,0.593
			c0.845,1.485,1.073,3.558,0.758,5.195c-0.366,1.904-0.901,3.275-1.968,4.888c-0.133,0.201-0.272,0.398-0.414,0.592
			c-0.016,0.015-0.259,0.325-0.281,0.352c-0.242,0.287-0.495,0.566-0.756,0.837c-0.314,0.324-0.641,0.635-0.98,0.933
			c-0.113,0.099-0.228,0.197-0.343,0.293c-0.024,0.02-0.294,0.229-0.346,0.272c-0.688,0.504-1.407,0.962-2.157,1.367
			c-0.335,0.181-0.676,0.352-1.021,0.514c-0.026,0.012-0.322,0.142-0.4,0.179c-0.163,0.066-0.326,0.131-0.49,0.192
			c-0.828,0.309-1.676,0.563-2.537,0.764c-0.413,0.096-0.829,0.18-1.247,0.251c-0.113,0.019-0.786,0.116-0.841,0.128
			c-0.88,0.106-1.767,0.155-2.653,0.147c-0.462-0.005-0.924-0.025-1.384-0.061c-0.153-0.012-0.306-0.026-0.459-0.042
			c-0.021-0.002-0.387-0.053-0.448-0.059c-3.468-0.563-6.336-1.946-8.921-4.327c-5.463-5.032-8.045-13.036-6.93-20.345
			c1.234-8.09,6.639-15.105,13.309-19.612c7.751-5.238,17.228-7.13,26.469-6.884c5.117,0.136,10.767,0.729,15.859,2.504
			c-2.262,2.095-4.157,4.593-5.529,7.412c-2.168,4.452-3.121,9.86-1.25,14.588c1.551,3.919,4.838,7.372,9.106,8.176
			c4.207,0.793,8.437-1.129,11.149-4.337c2.917-3.45,3.881-7.895,2.912-12.288c-1.415-6.417-5.965-10.891-11.494-13.758
			c2.272-1.486,4.777-2.598,7.367-3.238c4.311-1.064,8.883-0.805,13.09,0.582c0.867,0.286,1.73,0.628,2.578,1.02
			c-2.526,2.445-4.479,5.663-4.975,9.134c-0.517,3.621,0.32,7.726,2.934,10.42c1.564,1.611,3.591,2.36,5.633,2.329
			c-7.797,3.733-15.176,8.388-22.065,13.549C97.501,90.75,85.389,103.295,73.35,115.771c-2.984,3.092-5.91,6.266-9.023,9.229
			c-3.056,2.908-6.318,5.675-10.108,7.582c-3.592,1.807-7.73,2.783-11.732,1.964c-3.195-0.653-5.964-2.628-7.764-5.257
			c-0.852-1.244-1.491-2.736-1.594-4.084c-0.113-1.478,0.168-2.766,0.8-3.978c0.721-1.381,1.622-2.398,2.874-3.134
			c1.065-0.626,2.411-0.969,3.452-0.723c0.938,0.222,1.309,0.358,2.112,0.918c0.223,0.156,0.331,0.251,0.654,0.578
			c0.113,0.114,0.222,0.232,0.327,0.353c0.04,0.046,0.071,0.081,0.098,0.111c0.007,0.014,0.024,0.042,0.057,0.091
			c0.157,0.231,0.287,0.473,0.429,0.712c0.014,0.023,0.086,0.177,0.104,0.209c0.108,0.28,0.189,0.576,0.247,0.871
			c-0.009-0.015,0.026,0.277,0.028,0.351c0.004,0.151,0,0.302-0.008,0.453c-0.009,0.066-0.028,0.216-0.046,0.275
			c-0.032,0.105-0.058,0.211-0.09,0.316c-0.019,0.007-0.171,0.312-0.194,0.35c-0.031,0.05-0.227,0.292-0.246,0.324
			c-0.167,0.179-0.34,0.351-0.524,0.515c-0.011,0.01-0.018,0.016-0.026,0.024c-0.017,0.01-0.032,0.019-0.053,0.031
			c-0.119,0.071-0.233,0.151-0.353,0.221c-0.139,0.081-0.282,0.154-0.427,0.224c-0.036,0.015-0.072,0.029-0.095,0.036
			c-0.23,0.066-0.461,0.132-0.69,0.2c-0.032,0.01-0.073,0.017-0.115,0.024c-0.246,0.01-0.487,0.008-0.731,0
			c0.264,0-0.095-0.063-0.381-0.127c0.002-0.037-0.505-0.298-0.643-0.394c-1.259-0.876-2.998-0.184-3.75,0.983
			c-0.846,1.313-0.191,2.933,0.983,3.751c1.592,1.108,3.676,1.276,5.526,0.898c3.633-0.741,6.594-4.249,6.5-7.986
			c-0.091-3.636-2.733-6.949-6.11-8.206V41.488z M112.025,53.044c2.82,3.071,4.708,7.163,4.494,11.389
			c-0.2,3.96-2.655,7.644-6.159,9.472c-3.513,1.833-7.551,1.031-10.341-1.71c-3.119-3.065-3.996-7.524-3.118-11.717
			c1.04-4.969,4.038-9.361,8.01-12.541C107.581,49.193,110.013,50.854,112.025,53.044z M153.958,43.031
			c-0.817-0.585-1.684-1.096-2.584-1.543h7.96C157.489,41.682,155.635,42.185,153.958,43.031z M170.332,57.734
			c0.117-0.016,0.234-0.037,0.351-0.054c0.038-0.005,0.028-0.07-0.009-0.066c-0.359,0.036-0.716,0.083-1.074,0.123
			c-4.276,0.071-8.55,0.511-12.753,1.28c0.8-0.514,1.495-1.208,2.025-2.008c2.79-4.207,0.232-9.36-3.032-12.435
			c1.059-0.435,2.174-0.73,3.28-0.881c4.283-0.585,8.527,1.164,12.12,3.341c3.951,2.394,7.478,5.433,11.117,8.261
			c2.131,1.656,4.293,3.279,6.514,4.815C182.853,58.439,176.598,57.692,170.332,57.734z"/>
		
			<path style="fill:#969666;stroke:#33353D;stroke-width:0.75;stroke-linecap:round;stroke-linejoin:round;stroke-miterlimit:10;" d="
			M472.204,345.729c-8.902-1.091-17.199,3.622-24.246,8.513c-13.345,9.262-23.858,21.643-34.209,34.01
			c-10.662,12.74-21.462,25.562-35.242,35.07c-11.121,7.674-23.73,13.291-36.872,16.595c-7.492,1.258-15.2,1.447-22.717,0.357
			c-3.694-0.535-7.359-1.333-10.926-2.441c-0.517-0.322-1.027-0.654-1.554-0.961c-7.073-4.115-15.846-7.292-24.005-4.743
			c-3.43,1.071-6.734,3.021-8.755,6.061c-2.218,3.336-2.259,7.589-0.455,11.108c4.046,7.891,16.78,10.428,22.367,2.769
			c2.64-3.62,2.377-9.26-1.376-12.007c-3.285-2.405-8.723-1.663-10.699,2.09c-0.641,1.217-0.318,2.754,0.911,3.473
			c1.146,0.67,2.834,0.302,3.473-0.91c0.061-0.115,0.125-0.229,0.191-0.34c-0.006,0.034,0.21-0.241,0.267-0.302
			c0.019-0.021,0.034-0.037,0.048-0.053c0.025-0.01,0.054-0.022,0.092-0.04c0.065-0.03,0.418-0.193,0.364-0.186
			c0.122-0.04,0.244-0.078,0.368-0.109c0.1-0.025,0.58-0.069,0.352-0.059c0.15-0.008,0.3-0.014,0.451-0.011
			c0.087,0.002,0.522,0.072,0.4,0.041c0.138,0.03,0.274,0.062,0.41,0.102c0.076,0.023,0.433,0.195,0.377,0.158
			c0.073,0.041,0.146,0.083,0.218,0.126c-0.079-0.041,0.258,0.187,0.317,0.245c0.019,0.019,0.295,0.374,0.293,0.35
			c0.067,0.109,0.13,0.219,0.199,0.328c0.115,0.182,0.227,0.542,0.345,1.05c0.009,0.048,0.016,0.086,0.022,0.12
			c0.014,0.163,0.022,0.327,0.023,0.491c0.003,0.212-0.005,0.426-0.023,0.637c-0.011-0.002-0.095,0.505-0.093,0.497
			c-0.06,0.246-0.132,0.494-0.22,0.732c-0.242,0.656-0.748,1.352-1.431,1.945c-1.381,1.2-3.388,1.718-5.25,1.729
			c-3.679,0.022-7.48-2.181-9.222-5.583c-1.623-3.171-0.426-6.728,2.178-9.093c2.699-2.452,6.568-3.58,10.159-3.651
			c9.694-0.192,18.338,5.651,25.743,11.259c3.946,2.988,7.713,6.259,11.86,8.971c3.301,2.159,7.118,4.024,11.102,4.444H268.64v3.639
			h192.162v-75.07c7.025-0.32,11.993-8.537,9.583-15.219c-2.893-8.021-12.177-10.631-19.809-8.43
			c-4.184,1.206-7.862,3.344-11.203,6.113c-3.436,2.848-6.47,6.18-9.568,9.383c-12.868,13.306-25.542,26.967-40.241,38.306
			c-10.782,8.317-22.78,15.452-35.767,19.682c9.402-3.321,18.341-7.952,26.509-13.699c12.629-8.887,22.806-20.527,32.727-32.236
			c9.777-11.539,19.53-23.399,31.664-32.576c3.055-2.31,6.253-4.423,9.612-6.266c3.823-2.097,7.974-3.869,12.346-4.353
			c7.245-0.802,15.408,2.446,16.895,10.279c0.561,2.958-0.315,6.201-2.719,8.116c-2.148,1.711-5.348,2.347-7.632,1.202
			c-1.227-0.616-2.144-1.641-2.55-2.903c-0.198-0.614-0.32-1.389-0.257-1.844c0.086-0.621,0.355-1.097,0.716-1.479
			c0.064-0.068,0.099-0.11,0.117-0.135c0.019-0.006,0.047-0.017,0.093-0.04c0.047-0.023,0.094-0.05,0.141-0.076
			c-0.05,0.033,0.241-0.111,0.325-0.135c0.133-0.038,0.268-0.066,0.404-0.092c0.021,0.002,0.043,0.003,0.071,0.005
			c0.151,0.009,0.311,0.005,0.462,0.005c0.022,0,0.047,0.002,0.073,0.005c-0.021-0.005-0.041-0.01-0.065-0.016
			c0.025,0.006,0.05,0.011,0.075,0.017c0.124,0.016,0.259,0.055,0.177,0.04c0.065,0.014,0.131,0.029,0.196,0.046
			c0.159,0.041,0.313,0.09,0.467,0.142c0.045,0.02,0.092,0.043,0.125,0.065c0.102,0.068,0.211,0.133,0.317,0.197
			c0.008,0.009,0.015,0.019,0.021,0.028c0.051,0.082,0.18,0.255,0.171,0.223c0.008,0.014,0.017,0.027,0.025,0.041
			c0.024,0.098,0.037,0.138,0.042,0.141c0.223,1.392,1.1,2.41,2.615,2.478c1.306,0.059,2.807-1.264,2.64-2.64
			c-0.241-1.983-1.257-3.714-3.073-4.66c-3.457-1.802-7.925-0.599-9.435,3.133c-1.408,3.482,0.118,7.938,3.434,10.102
			c3.086,2.015,7.148,1.734,10.324,0.1c3.392-1.746,5.454-5.031,5.811-8.792c0.362-3.818-1.193-7.748-3.754-10.545
			C480.15,347.784,476.185,346.217,472.204,345.729z M347.022,440.172c4.621-1.077,9.13-2.534,13.518-4.307
			c-2.809,2.83-3.694,7.123-2.449,10.923c1.208,3.686,3.901,6.688,7.072,8.88c-3.321,2.094-7.242,2.891-11.127,2.135
			c-2.006-0.39-3.992-1.151-5.76-2.246c0.648-0.505,1.248-1.068,1.777-1.697c2.565-3.041,3.378-7.459,1.022-10.879
			C350.105,441.573,348.696,440.479,347.022,440.172z M346.561,442.418c1.681,0.224,2.909,1.824,3.416,3.334
			c0.558,1.664,0.376,3.418-0.418,4.977c-0.725,1.423-1.83,2.586-3.136,3.482c-1.062-0.899-1.994-1.944-2.732-3.127
			c-1.092-1.75-1.771-3.93-1.001-5.94C343.287,443.585,344.785,442.181,346.561,442.418z M367.612,457.151
			c0.972,0.517,1.981,0.967,3.012,1.361h-5.329C366.095,458.11,366.872,457.66,367.612,457.151z M362.398,448.831
			c-2.116-3.176-2.745-7.296-0.135-10.403c2.103-2.504,5.666-3.113,7.949-0.515c1.953,2.223,2.371,5.757,1.768,8.562
			c-0.596,2.773-2.252,5.328-4.354,7.291C365.564,452.474,363.729,450.828,362.398,448.831z M457.163,458.512H389.62
			c2.341-0.912,4.552-2.143,6.542-3.668c2.102,0.835,4.282,1.468,6.438,1.913c10.042,2.073,21.025,1.951,30.728-1.59
			c8.439-3.079,15.975-8.977,20.199-17.005c2.037-3.871,3.351-8.178,3.523-12.561c0.169-4.317-0.764-8.633-2.56-12.551
			c-3.535-7.714-10.853-13.113-19.419-13.41c-7.942-0.275-16.381,4.105-19.629,11.568c-2.017,4.636-2.214,10.692,1.513,14.576
			c1.482,1.544,3.575,2.602,5.684,2.918c2.546,0.381,4.839-0.206,6.868-1.785c0.93-0.723,0.808-2.229,0.183-3.066
			c-0.636-0.851-2.083-1.277-3.012-0.602c-0.19,0.138-0.38,0.27-0.584,0.386c-0.026,0.015-0.443,0.194-0.409,0.193
			c-0.171,0.052-0.345,0.092-0.516,0.148c-0.049,0.016-0.088,0.029-0.12,0.039c-0.374,0.046-0.759,0.042-1.136,0.014
			c-0.054-0.008-0.266-0.033-0.335-0.05c-0.191-0.046-0.382-0.087-0.571-0.142c-0.177-0.052-0.353-0.11-0.525-0.175
			c-0.01-0.014-0.41-0.199-0.427-0.208c-0.302-0.162-0.604-0.342-0.881-0.548c0.013-0.002-0.336-0.309-0.348-0.321
			c-0.17-0.165-0.325-0.347-0.489-0.518c-0.021-0.022-0.07-0.085-0.107-0.133c-0.134-0.192-0.258-0.39-0.373-0.593
			c-0.845-1.485-1.073-3.558-0.758-5.195c0.366-1.904,0.901-3.275,1.968-4.888c0.133-0.201,0.272-0.398,0.414-0.592
			c0.016-0.015,0.259-0.325,0.281-0.352c0.242-0.288,0.495-0.566,0.756-0.837c0.314-0.324,0.641-0.635,0.98-0.933
			c0.113-0.099,0.227-0.197,0.343-0.293c0.024-0.02,0.294-0.229,0.346-0.272c0.688-0.504,1.407-0.961,2.157-1.367
			c0.335-0.181,0.676-0.352,1.021-0.514c0.026-0.012,0.322-0.142,0.4-0.179c0.163-0.066,0.326-0.131,0.49-0.192
			c0.828-0.309,1.676-0.563,2.537-0.764c0.413-0.096,0.829-0.18,1.247-0.251c0.113-0.019,0.786-0.116,0.841-0.128
			c0.88-0.107,1.767-0.155,2.653-0.147c0.462,0.005,0.923,0.025,1.384,0.061c0.153,0.012,0.306,0.026,0.459,0.042
			c0.02,0.002,0.386,0.053,0.447,0.059c3.468,0.563,6.337,1.946,8.921,4.327c5.463,5.032,8.045,13.036,6.93,20.345
			c-1.234,8.091-6.639,15.105-13.309,19.612c-7.751,5.238-17.228,7.13-26.469,6.884c-5.117-0.136-10.767-0.729-15.859-2.504
			c2.262-2.095,4.157-4.593,5.529-7.412c2.168-4.452,3.122-9.86,1.25-14.588c-1.551-3.919-4.838-7.372-9.106-8.176
			c-4.207-0.793-8.437,1.129-11.149,4.337c-2.917,3.45-3.881,7.895-2.912,12.288c1.415,6.417,5.965,10.892,11.494,13.758
			c-2.272,1.486-4.777,2.598-7.367,3.238c-4.311,1.065-8.883,0.805-13.09-0.582c-0.867-0.286-1.73-0.628-2.578-1.02
			c2.526-2.445,4.479-5.663,4.975-9.134c0.517-3.621-0.32-7.726-2.934-10.42c-1.564-1.611-3.591-2.36-5.633-2.329
			c7.797-3.733,15.176-8.388,22.065-13.549c13.914-10.424,26.026-22.968,38.065-35.445c2.984-3.092,5.91-6.266,9.023-9.229
			c3.056-2.908,6.318-5.675,10.108-7.582c3.592-1.807,7.73-2.783,11.732-1.964c3.195,0.653,5.964,2.628,7.764,5.257
			c0.852,1.244,1.491,2.736,1.594,4.084c0.113,1.478-0.168,2.766-0.8,3.978c-0.721,1.381-1.622,2.398-2.874,3.134
			c-1.065,0.626-2.411,0.969-3.452,0.723c-0.938-0.222-1.309-0.358-2.112-0.918c-0.223-0.156-0.331-0.251-0.654-0.578
			c-0.113-0.114-0.222-0.233-0.327-0.353c-0.04-0.046-0.071-0.081-0.098-0.111c-0.007-0.014-0.024-0.042-0.057-0.091
			c-0.157-0.231-0.287-0.473-0.429-0.712c-0.014-0.023-0.086-0.177-0.104-0.209c-0.108-0.28-0.189-0.576-0.247-0.871
			c0.009,0.015-0.026-0.277-0.028-0.351c-0.004-0.151,0-0.302,0.008-0.453c0.009-0.066,0.028-0.216,0.046-0.275
			c0.032-0.105,0.058-0.211,0.09-0.316c0.019-0.007,0.171-0.312,0.194-0.35c0.031-0.05,0.227-0.292,0.246-0.324
			c0.167-0.179,0.34-0.351,0.524-0.515c0.011-0.01,0.018-0.016,0.026-0.024c0.017-0.01,0.032-0.018,0.053-0.031
			c0.119-0.071,0.233-0.151,0.353-0.221c0.139-0.081,0.282-0.154,0.427-0.224c0.036-0.015,0.072-0.029,0.095-0.036
			c0.23-0.066,0.462-0.132,0.691-0.2c0.032-0.01,0.073-0.017,0.115-0.024c0.246-0.01,0.487-0.008,0.731,0
			c-0.264,0,0.095,0.063,0.381,0.127c-0.003,0.037,0.505,0.297,0.643,0.393c1.259,0.876,2.998,0.184,3.751-0.983
			c0.846-1.313,0.191-2.933-0.983-3.75c-1.592-1.108-3.676-1.276-5.526-0.898c-3.633,0.741-6.594,4.249-6.5,7.986
			c0.091,3.636,2.733,6.949,6.11,8.206V458.512z M387.975,446.956c-2.82-3.071-4.708-7.163-4.495-11.389
			c0.2-3.96,2.655-7.644,6.159-9.472c3.513-1.833,7.551-1.031,10.341,1.71c3.119,3.065,3.996,7.524,3.118,11.717
			c-1.04,4.969-4.038,9.361-8.01,12.541C392.419,450.807,389.986,449.147,387.975,446.956z M346.042,456.969
			c0.817,0.585,1.684,1.096,2.584,1.543h-7.96C342.511,458.318,344.365,457.815,346.042,456.969z M329.668,442.266
			c-0.117,0.017-0.234,0.037-0.351,0.054c-0.038,0.005-0.029,0.07,0.009,0.066c0.359-0.036,0.716-0.083,1.074-0.123
			c4.276-0.071,8.55-0.511,12.753-1.28c-0.801,0.514-1.495,1.208-2.025,2.008c-2.79,4.207-0.232,9.36,3.032,12.436
			c-1.059,0.435-2.174,0.73-3.28,0.881c-4.283,0.585-8.527-1.164-12.12-3.341c-3.951-2.394-7.478-5.433-11.117-8.261
			c-2.131-1.656-4.293-3.279-6.514-4.814C317.147,441.561,323.402,442.308,329.668,442.266z"/>
		
			<path style="fill:#969666;stroke:#33353D;stroke-width:0.75;stroke-linecap:round;stroke-linejoin:round;stroke-miterlimit:10;" d="
			M17.094,350.793c-2.561,2.797-4.116,6.728-3.754,10.545c0.357,3.761,2.419,7.046,5.811,8.792c3.176,1.635,7.238,1.915,10.324-0.1
			c3.316-2.164,4.842-6.62,3.434-10.102c-1.51-3.732-5.979-4.935-9.435-3.133c-1.816,0.946-2.832,2.677-3.073,4.66
			c-0.167,1.376,1.333,2.698,2.64,2.64c1.514-0.068,2.392-1.087,2.615-2.478c0.006-0.004,0.019-0.044,0.042-0.141
			c0.008-0.014,0.017-0.027,0.025-0.041c-0.009,0.032,0.12-0.142,0.171-0.223c0.006-0.009,0.013-0.019,0.021-0.028
			c0.107-0.064,0.215-0.129,0.317-0.197c0.033-0.022,0.08-0.045,0.125-0.065c0.154-0.052,0.308-0.101,0.467-0.142
			c0.065-0.017,0.13-0.031,0.196-0.046c-0.082,0.015,0.053-0.025,0.177-0.04c0.025-0.006,0.05-0.011,0.075-0.017
			c-0.024,0.006-0.044,0.011-0.065,0.016c0.026-0.003,0.051-0.005,0.073-0.005c0.151,0.001,0.312,0.004,0.462-0.005
			c0.028-0.002,0.05-0.003,0.071-0.005c0.136,0.026,0.271,0.054,0.404,0.092c0.084,0.024,0.375,0.167,0.325,0.135
			c0.047,0.027,0.094,0.053,0.141,0.076c0.046,0.023,0.074,0.034,0.093,0.04c0.018,0.025,0.053,0.068,0.117,0.135
			c0.361,0.382,0.63,0.858,0.716,1.479c0.063,0.455-0.06,1.23-0.257,1.844c-0.406,1.262-1.323,2.288-2.55,2.903
			c-2.284,1.146-5.484,0.51-7.632-1.202c-2.404-1.915-3.281-5.157-2.719-8.116c1.487-7.834,9.65-11.081,16.895-10.279
			c4.372,0.484,8.523,2.256,12.346,4.353c3.359,1.843,6.557,3.956,9.612,6.266c12.134,9.177,21.887,21.037,31.664,32.576
			c9.921,11.709,20.098,23.349,32.727,32.236c8.168,5.747,17.107,10.379,26.509,13.699c-12.987-4.229-24.985-11.365-35.767-19.682
			c-14.699-11.339-27.373-25-40.241-38.306c-3.098-3.203-6.132-6.535-9.568-9.383c-3.342-2.769-7.02-4.906-11.203-6.113
			c-7.632-2.201-16.917,0.409-19.809,8.43c-2.41,6.682,2.558,14.899,9.583,15.219v75.07H231.36v-3.639h-68.799
			c3.985-0.419,7.801-2.285,11.102-4.444c4.147-2.712,7.914-5.983,11.86-8.971c7.405-5.607,16.049-11.45,25.743-11.259
			c3.59,0.071,7.46,1.2,10.159,3.651c2.604,2.365,3.801,5.922,2.178,9.093c-1.742,3.403-5.543,5.606-9.222,5.583
			c-1.862-0.011-3.869-0.529-5.25-1.729c-0.683-0.593-1.189-1.289-1.431-1.945c-0.088-0.238-0.16-0.486-0.22-0.732
			c0.002,0.008-0.082-0.498-0.093-0.497c-0.018-0.212-0.026-0.426-0.024-0.637c0.002-0.164,0.01-0.328,0.024-0.491
			c0.006-0.034,0.013-0.073,0.022-0.12c0.118-0.508,0.23-0.868,0.345-1.05c0.069-0.109,0.132-0.219,0.199-0.328
			c-0.002,0.023,0.274-0.332,0.293-0.35c0.059-0.058,0.396-0.287,0.317-0.245c0.072-0.043,0.145-0.085,0.218-0.126
			c-0.056,0.037,0.301-0.135,0.377-0.158c0.135-0.041,0.272-0.073,0.41-0.102c-0.122,0.031,0.313-0.039,0.4-0.041
			c0.151-0.004,0.301,0.003,0.451,0.011c-0.228-0.009,0.252,0.034,0.352,0.059c0.124,0.031,0.247,0.068,0.368,0.109
			c-0.054-0.007,0.299,0.156,0.364,0.186c0.038,0.018,0.067,0.03,0.092,0.04c0.014,0.016,0.028,0.032,0.048,0.053
			c0.057,0.061,0.273,0.335,0.267,0.302c0.066,0.112,0.13,0.225,0.191,0.34c0.638,1.212,2.327,1.581,3.473,0.91
			c1.228-0.718,1.551-2.255,0.911-3.473c-1.976-3.752-7.413-4.495-10.699-2.09c-3.753,2.747-4.016,8.388-1.376,12.007
			c5.587,7.659,18.321,5.122,22.367-2.769c1.805-3.52,1.763-7.772-0.455-11.108c-2.021-3.04-5.325-4.99-8.755-6.061
			c-8.159-2.548-16.933,0.629-24.005,4.743c-0.527,0.306-1.037,0.639-1.554,0.961c-3.567,1.109-7.232,1.906-10.926,2.441
			c-7.518,1.09-15.226,0.9-22.717-0.357c-13.141-3.305-25.751-8.921-36.871-16.595c-13.78-9.509-24.579-22.331-35.242-35.07
			c-10.351-12.368-20.864-24.748-34.209-34.01c-7.047-4.891-15.344-9.604-24.246-8.513C23.815,346.217,19.85,347.784,17.094,350.793
			z M148.926,442.98c-2.356,3.42-1.544,7.837,1.022,10.879c0.53,0.628,1.13,1.192,1.778,1.697c-1.769,1.096-3.755,1.856-5.761,2.246
			c-3.885,0.756-7.807-0.041-11.127-2.135c3.171-2.191,5.864-5.194,7.072-8.88c1.245-3.8,0.36-8.092-2.449-10.923
			c4.388,1.774,8.897,3.23,13.518,4.307C151.304,440.479,149.895,441.573,148.926,442.98z M157.311,445.144
			c0.77,2.01,0.091,4.19-1.001,5.94c-0.738,1.183-1.67,2.228-2.732,3.127c-1.307-0.896-2.411-2.059-3.136-3.482
			c-0.795-1.559-0.977-3.313-0.418-4.977c0.507-1.51,1.735-3.11,3.416-3.334C155.215,442.181,156.713,443.585,157.311,445.144z
			 M134.706,458.512h-5.33c1.031-0.394,2.04-0.843,3.012-1.361C133.128,457.66,133.905,458.11,134.706,458.512z M132.374,453.766
			c-2.103-1.963-3.758-4.518-4.354-7.291c-0.603-2.805-0.185-6.339,1.768-8.562c2.283-2.598,5.845-1.989,7.949,0.515
			c2.61,3.107,1.981,7.228-0.135,10.403C136.271,450.828,134.436,452.474,132.374,453.766z M42.837,386.522
			c3.377-1.257,6.019-4.569,6.11-8.206c0.094-3.737-2.867-7.245-6.5-7.986c-1.85-0.378-3.934-0.21-5.526,0.898
			c-1.174,0.817-1.829,2.438-0.983,3.75c0.752,1.167,2.492,1.859,3.75,0.983c0.138-0.096,0.645-0.356,0.643-0.393
			c0.286-0.064,0.646-0.127,0.381-0.127c0.245-0.008,0.486-0.01,0.731,0c0.042,0.006,0.083,0.014,0.115,0.024
			c0.229,0.068,0.461,0.134,0.69,0.2c0.024,0.007,0.06,0.021,0.095,0.036c0.145,0.07,0.287,0.143,0.427,0.224
			c0.12,0.07,0.233,0.15,0.353,0.221c0.021,0.012,0.036,0.021,0.053,0.031c0.008,0.008,0.015,0.014,0.026,0.024
			c0.184,0.164,0.356,0.336,0.524,0.515c0.018,0.032,0.214,0.274,0.246,0.324c0.024,0.038,0.176,0.344,0.194,0.35
			c0.031,0.105,0.058,0.211,0.09,0.316c0.018,0.059,0.037,0.208,0.046,0.275c0.008,0.151,0.012,0.302,0.008,0.453
			c-0.002,0.074-0.037,0.366-0.028,0.351c-0.057,0.295-0.139,0.591-0.247,0.871c-0.018,0.032-0.09,0.185-0.104,0.209
			c-0.142,0.24-0.272,0.482-0.429,0.712c-0.034,0.05-0.05,0.077-0.057,0.091c-0.027,0.03-0.058,0.065-0.098,0.111
			c-0.105,0.121-0.215,0.239-0.327,0.353c-0.323,0.327-0.431,0.422-0.654,0.578c-0.802,0.56-1.174,0.696-2.112,0.918
			c-1.041,0.246-2.387-0.097-3.452-0.723c-1.252-0.736-2.152-1.753-2.874-3.134c-0.633-1.212-0.913-2.5-0.8-3.978
			c0.103-1.348,0.742-2.84,1.594-4.084c1.801-2.629,4.569-4.603,7.764-5.257c4.002-0.818,8.14,0.157,11.732,1.964
			c3.79,1.907,7.053,4.673,10.108,7.582c3.113,2.963,6.039,6.137,9.023,9.229c12.039,12.477,24.151,25.021,38.065,35.445
			c6.889,5.161,14.269,9.816,22.065,13.549c-2.042-0.031-4.07,0.718-5.633,2.329c-2.614,2.693-3.451,6.799-2.934,10.42
			c0.496,3.471,2.449,6.688,4.975,9.134c-0.847,0.392-1.711,0.734-2.578,1.02c-4.207,1.387-8.779,1.647-13.09,0.582
			c-2.59-0.64-5.095-1.752-7.367-3.238c5.529-2.867,10.079-7.342,11.494-13.758c0.969-4.393,0.005-8.838-2.912-12.288
			c-2.712-3.208-6.943-5.13-11.149-4.337c-4.268,0.804-7.555,4.257-9.106,8.176c-1.871,4.728-0.917,10.136,1.25,14.588
			c1.372,2.818,3.268,5.316,5.529,7.412c-5.092,1.775-10.742,2.368-15.859,2.504c-9.241,0.245-18.717-1.647-26.469-6.884
			c-6.67-4.507-12.075-11.522-13.309-19.612c-1.115-7.309,1.467-15.313,6.93-20.345c2.585-2.38,5.453-3.764,8.921-4.327
			c0.061-0.006,0.427-0.057,0.448-0.059c0.153-0.016,0.306-0.03,0.459-0.042c0.461-0.036,0.922-0.057,1.384-0.061
			c0.886-0.009,1.773,0.04,2.653,0.147c0.055,0.012,0.729,0.109,0.841,0.128c0.418,0.071,0.834,0.155,1.247,0.251
			c0.861,0.201,1.709,0.455,2.537,0.764c0.164,0.061,0.327,0.127,0.49,0.192c0.078,0.037,0.373,0.167,0.4,0.179
			c0.345,0.161,0.686,0.333,1.021,0.514c0.75,0.406,1.47,0.863,2.157,1.367c0.052,0.044,0.322,0.252,0.346,0.272
			c0.116,0.096,0.23,0.194,0.343,0.293c0.339,0.298,0.666,0.609,0.98,0.933c0.261,0.27,0.514,0.549,0.756,0.837
			c0.022,0.026,0.265,0.337,0.281,0.352c0.142,0.195,0.281,0.392,0.414,0.592c1.068,1.613,1.602,2.984,1.968,4.888
			c0.315,1.638,0.086,3.711-0.758,5.195c-0.115,0.203-0.24,0.401-0.373,0.593c-0.037,0.048-0.086,0.111-0.107,0.133
			c-0.164,0.171-0.319,0.352-0.489,0.518c-0.012,0.012-0.361,0.319-0.348,0.321c-0.277,0.205-0.579,0.385-0.881,0.548
			c-0.017,0.009-0.417,0.194-0.427,0.208c-0.173,0.065-0.349,0.124-0.525,0.175c-0.189,0.055-0.38,0.096-0.571,0.142
			c-0.069,0.017-0.281,0.042-0.335,0.05c-0.377,0.028-0.761,0.032-1.136-0.014c-0.032-0.01-0.071-0.023-0.12-0.039
			c-0.17-0.056-0.344-0.095-0.515-0.148c0.034,0.001-0.384-0.178-0.409-0.193c-0.204-0.116-0.394-0.248-0.584-0.386
			c-0.93-0.675-2.376-0.25-3.012,0.602c-0.625,0.837-0.747,2.343,0.183,3.066c2.029,1.579,4.322,2.166,6.868,1.785
			c2.109-0.316,4.202-1.374,5.684-2.918c3.727-3.883,3.531-9.94,1.513-14.576c-3.248-7.463-11.687-11.843-19.629-11.568
			c-8.566,0.297-15.884,5.696-19.419,13.41c-1.795,3.918-2.729,8.234-2.56,12.551c0.172,4.384,1.486,8.69,3.523,12.561
			c4.224,8.028,11.76,13.926,20.199,17.005c9.703,3.54,20.686,3.663,30.728,1.59c2.156-0.445,4.337-1.078,6.438-1.913
			c1.991,1.525,4.202,2.756,6.543,3.668H42.837V386.522z M104.912,452.063c-3.972-3.179-6.969-7.571-8.01-12.541
			c-0.878-4.194-0.002-8.652,3.118-11.717c2.79-2.741,6.827-3.543,10.341-1.71c3.503,1.828,5.959,5.512,6.159,9.472
			c0.213,4.226-1.674,8.318-4.494,11.389C110.013,449.147,107.581,450.807,104.912,452.063z M159.334,458.512h-7.96
			c0.899-0.447,1.767-0.958,2.584-1.543C155.635,457.815,157.489,458.318,159.334,458.512z M188.87,439.89
			c-2.221,1.535-4.383,3.159-6.514,4.814c-3.639,2.828-7.166,5.867-11.117,8.261c-3.592,2.177-7.837,3.926-12.12,3.341
			c-1.106-0.151-2.221-0.446-3.28-0.881c3.264-3.076,5.822-8.229,3.032-12.436c-0.53-0.8-1.225-1.494-2.025-2.008
			c4.203,0.77,8.477,1.21,12.753,1.28c0.358,0.04,0.715,0.087,1.074,0.123c0.037,0.004,0.047-0.061,0.009-0.066
			c-0.117-0.016-0.234-0.037-0.351-0.054C176.598,442.308,182.853,441.561,188.87,439.89z"/>
	</g>
	<g>
		
			<path style="fill:#969666;stroke:#33353D;stroke-width:0.75;stroke-linecap:round;stroke-linejoin:round;stroke-miterlimit:10;" d="
			M196.535,166.855c-3.788-1.507-8.485-1.444-11.997,0.781c-3.248,2.058-5.231,5.747-5.061,9.616c0.165,3.749,2.6,7.934,6.571,8.49
			c3.463,0.485,5.195-3.425,2.351-5.576c0.34,0.257-0.465-0.604-0.622-0.775c-0.051-0.056-0.091-0.099-0.123-0.134
			c-0.088-0.138-0.166-0.281-0.247-0.424c0.149,0.23-0.16-0.492-0.24-0.731c-0.017-0.05-0.031-0.09-0.045-0.125
			c0-0.031,0.001-0.061,0.001-0.102c-0.004-0.313-0.031-0.625-0.033-0.938c-0.001-0.21,0.015-0.42,0.015-0.63
			c0-0.016,0-0.026-0.001-0.041c0.004-0.014,0.007-0.024,0.012-0.042c0.055-0.22,0.366-1.082,0.271-0.955
			c0.109-0.202,0.223-0.399,0.337-0.601c0.003-0.005,0.006-0.01,0.009-0.014c0,0,0,0,0,0c0.02-0.021,0.04-0.042,0.06-0.063
			c-0.018,0.019-0.038,0.04-0.06,0.063c0.104-0.169,0.367-0.383,0.06-0.063c0.115-0.119,0.228-0.238,0.35-0.352
			c0.34-0.302,0.398-0.348,0.174-0.138c0.162-0.109,0.329-0.209,0.501-0.301c0.646-0.36,1.602-0.571,2.435-0.578
			c0.267-0.002,0.529,0.013,0.796,0.022c0.099,0.003,0.174,0.005,0.239,0.006c0.024,0.01,0.074,0.022,0.173,0.041
			c0.672,0.127,1.36,0.305,1.997,0.567c-0.006,0.01,0.464,0.246,0.533,0.283c0.293,0.16,0.582,0.329,0.857,0.518
			c0.387,0.267,0.671,0.52,1.084,0.922c1.021,0.991,1.829,2.024,2.549,3.176c5.358,8.566,5.098,20.112,1.459,29.231
			c-3.933,9.856-11.828,18.134-22.117,21.26c-5.674,1.724-12.22,1.578-17.012-2.302c-3.822-3.094-5.722-8.538-3.314-13.107
			c1.064-2.019,3.084-3.397,5.248-3.555c2.247-0.165,4.023,0.524,5.366,2.019c0.024,0.027,0.087,0.11,0.137,0.176
			c0.168,0.243,0.322,0.492,0.464,0.751c0.031,0.058,0.058,0.105,0.081,0.146c0.005,0.026,0.013,0.059,0.03,0.114
			c0.024,0.079,0.107,0.477,0.155,0.667c0.003,0.2,0.021,0.573,0.019,0.546c0.006,0.09,0.014,0.151,0.021,0.197
			c-0.015,0.042-0.031,0.095-0.052,0.172c-0.073,0.273-0.145,0.545-0.222,0.817c-0.024,0.078-0.055,0.154-0.083,0.231
			c-0.013,0.024-0.035,0.067-0.066,0.132c-0.137,0.249-0.29,0.49-0.426,0.739c-0.042,0.078-0.07,0.134-0.09,0.178
			c-0.035,0.031-0.076,0.07-0.132,0.126c-0.199,0.199-0.395,0.401-0.594,0.599c-0.046,0.04-0.077,0.068-0.098,0.088
			c-0.053,0.035-0.103,0.074-0.157,0.107c-0.237,0.136-0.484,0.264-0.717,0.405c0.723-0.437-0.018-0.047-0.254,0.042
			c-0.025,0.009-0.044,0.017-0.065,0.025c-0.432,0.007-1.244-0.006-0.366,0.113c-2.213-0.3-4.444,0.533-5.093,2.892
			c-0.53,1.93,0.661,4.79,2.892,5.093c4.229,0.573,7.787-0.962,10.345-4.391c2.007-2.691,2.819-6.22,2.081-9.507
			c-1.46-6.498-9.285-9.414-15.186-7.41c-2.318,0.788-4.18,2.235-5.559,4.056c0.021-0.093,0.054-0.181,0.072-0.275
			c1.129-5.676-2.231-11.417-7.365-13.866c-4.475-2.133-9.389-2.143-13.944-0.275c-9.589,3.932-10.568,16.14-6.175,24.312
			c5.43,10.102,17.769,13.905,28.362,15.357c7.295,1,14.898,1.004,21.974-1.256c4.565-1.458,8.641-3.872,11.934-7.224
			c4.397-3.495,8.138-7.845,10.793-12.312c6.574-11.061,9.152-26.141,3.756-38.167C203.781,171.682,200.644,168.49,196.535,166.855z
			 M150.155,231.059c-4.485-1.169-8.887-2.793-12.736-5.42c-7.013-4.787-11.623-13.917-8.369-22.315
			c1.5-3.87,4.911-6.917,9.077-7.494c3.992-0.552,8.239,0.623,10.924,3.727c1.461,1.689,2.493,4.079,2.237,6.348
			c-0.101,0.892-0.401,1.678-0.977,2.294c-0.684,0.731-1.205,0.94-2.014,1.192c-0.172,0.054-0.342,0.103-0.515,0.148
			c-0.062,0.007-0.325,0.053-0.484,0.055c-0.05,0.001-0.088,0.002-0.116,0.004c-0.221-0.068-0.508-0.165-0.456-0.118
			c-0.054-0.032-0.108-0.065-0.161-0.099c0,0,0-0.001-0.001-0.002c0.177,0.107,0.255,0.134-0.035-0.065
			c-0.004-0.003-0.006-0.005-0.01-0.007c-0.146-0.229-0.283-0.461-0.429-0.689c-0.034-0.136-0.118-0.415-0.144-0.495
			c0-0.078-0.001-0.18-0.003-0.272c0.012-0.087,0.023-0.175,0.023-0.213c0-0.01-0.001-0.015-0.001-0.024
			c0.001-0.002,0.002-0.003,0.003-0.006c0.132-0.301,0.231-0.527,0.305-0.693c0.118-0.2,0.235-0.395,0.38-0.585
			c1.741-2.277-1.195-6.169-3.876-5.041c-1.544,0.65-2.894,1.409-3.675,2.98c-0.656,1.32-0.992,2.795-0.92,4.273
			c0.145,2.94,1.548,5.715,4.07,7.307c4.069,2.57,8.953,1.074,11.797-2.263c-0.739,2.369-0.891,4.953-0.389,7.416
			c1.296,6.361,7.107,10.869,13.243,12.22c-0.342,0.003-0.684,0.013-1.024,0.009C160.59,233.169,155.27,232.392,150.155,231.059z"/>
		<g>
			
				<path style="fill:#969666;stroke:#33353D;stroke-width:0.75;stroke-linecap:round;stroke-linejoin:round;stroke-miterlimit:10;" d="
				M303.552,111.684c-0.789-7.156-4.818-15.029-12.587-16.413c-7.037-1.254-14.616,4.438-12.818,12.017
				c0.749,3.154,3.204,6.037,6.428,6.792c3.609,0.844,7.485-1.178,9.561-4.104c1.213-1.711,1.413-3.767,0.866-5.763
				c-0.447-1.631-2.223-2.636-3.853-2.188c-1.754,0.482-2.49,2.183-2.188,3.853c-0.066-0.366-0.037-0.041-0.026,0.21
				c-0.033,0.084-0.139,0.817-0.15,0.983c-0.046,0.156-0.139,0.491-0.172,0.577c-0.124,0.325-0.031,0.044-0.005-0.008
				c-0.091,0.182-0.196,0.365-0.311,0.534c-0.437,0.647-1.468,1.112-2.427,1.011c-1.771-0.186-3.215-2.352-3.304-4.321
				c-0.113-2.484,1.783-4.545,4.062-5.424c2.843-1.096,5.897-0.294,8.313,1.418c5.687,4.031,6.691,12.117,6.236,18.552
				c-0.458,6.472-2.732,12.726-6.146,18.211c-1.436,2.307-3.029,4.47-4.748,6.509c0.034-3-0.251-5.999-0.902-8.898
				c-2.019-8.995-8.031-17.199-16.951-20.227c-4.599-1.561-9.99-1.463-14.28,0.959c-3.831,2.162-7.012,6.252-7.824,10.613
				c-0.484,2.603-0.172,4.779,0.891,7.181c0.613,1.386,2.586,1.819,3.853,1.262c1.496-0.658,2.049-2.078,1.786-3.64
				c0.086,0.513-0.018-0.143-0.023-0.275c-0.125-3.199,0.984-6.201,3.549-8.234c3.175-2.517,7.337-2.65,11.05-1.414
				c8.148,2.714,13.425,10.713,14.963,19.055c0.459,2.49,0.536,5.012,0.308,7.51c-6.688,6.692-14.796,11.924-23.194,16.397
				c-12.816,6.825-26.478,12.193-38.506,20.428c-7.267,4.975-14.077,10.99-18.97,18.302c-0.92,1.128-1.767,2.327-2.507,3.626
				c-1.955,3.434-3.09,7.355-3.282,11.3c-0.172,3.528,0.5,7.096,2.29,10.171c0.592,1.017,1.297,2.025,2.131,2.859
				c5.084,5.418,14.098,7.425,20.492,3.113c5.913-3.988,6.48-12.801,3.023-18.619c-1.989-3.348-5.311-5.417-9.241-5.476
				c-5.689-0.085-10.738,3.979-11.225,9.737c-0.231,2.733,0.755,5.36,2.576,7.376c1.202,1.331,3.472,1.222,4.694,0
				c1.36-1.36,1.157-3.318,0-4.695c0.022,0.026,0.044,0.051,0.072,0.067c-0.063-0.228-0.229-0.414-0.325-0.629
				c-0.124-0.278-0.191-0.585-0.207-0.888c0.033-0.004,0.012,0.061-0.019,0.051s-0.039-0.051-0.04-0.085
				c-0.018-0.45,0.053-0.903,0.206-1.326c0.248-0.686,0.71-1.282,1.268-1.751c1.242-1.044,2.994-1.451,4.569-1.06
				c3.349,0.83,5.56,4.591,5.771,7.852c0.053,0.826-0.013,1.657-0.186,2.466c-0.656,3.061-2.916,5.36-5.931,6.189
				c-7.288,2.004-15.048-3.074-16.969-10.147c-2.427-8.935,2.523-18.096,9.451-23.517c8.026-6.28,18.126-8.533,27.871-10.61
				c9.772-2.083,19.391-4.455,28.007-9.709c7.541-4.598,14.195-11.06,18.058-19.084c2.069-4.298,3.251-9.052,3.592-13.861
				c3.807-4.224,7.072-8.939,9.568-14.238C302.743,125.89,304.329,118.732,303.552,111.684z M279.989,165.314
				c-5.448,7.521-13.505,13.049-22.036,16.529c-10.138,4.136-21.15,5.353-31.516,8.762c-5.107,1.68-10.236,3.921-14.605,7.103
				c4.423-4.779,9.574-8.939,14.905-12.465c13.328-8.815,28.483-14.312,42.316-22.227c6.262-3.583,12.182-7.753,17.354-12.655
				C285.492,155.748,283.165,160.931,279.989,165.314z"/>
		</g>
		
			<path style="fill:#969666;stroke:#33353D;stroke-width:0.75;stroke-linecap:round;stroke-linejoin:round;stroke-miterlimit:10;" d="
			M294.416,175.7c-5.396,12.026-2.819,27.106,3.756,38.167c2.656,4.467,6.397,8.817,10.793,12.312
			c3.292,3.351,7.369,5.765,11.934,7.224c7.076,2.26,14.678,2.257,21.974,1.256c10.593-1.452,22.932-5.255,28.362-15.357
			c4.393-8.173,3.414-20.38-6.175-24.312c-4.555-1.868-9.469-1.859-13.944,0.275c-5.134,2.448-8.494,8.19-7.365,13.866
			c0.019,0.094,0.051,0.182,0.072,0.275c-1.379-1.821-3.241-3.268-5.559-4.056c-5.901-2.004-13.727,0.912-15.186,7.41
			c-0.738,3.287,0.074,6.816,2.081,9.507c2.558,3.429,6.116,4.964,10.345,4.391c2.23-0.302,3.422-3.163,2.892-5.093
			c-0.648-2.359-2.88-3.191-5.093-2.892c0.878-0.119,0.066-0.106-0.366-0.113c-0.021-0.008-0.04-0.015-0.065-0.025
			c-0.236-0.089-0.977-0.479-0.254-0.042c-0.233-0.141-0.48-0.269-0.717-0.405c-0.054-0.033-0.104-0.072-0.157-0.107
			c-0.021-0.02-0.053-0.048-0.098-0.088c-0.2-0.198-0.396-0.4-0.594-0.599c-0.056-0.056-0.097-0.095-0.132-0.126
			c-0.021-0.044-0.048-0.099-0.09-0.178c-0.136-0.249-0.289-0.49-0.426-0.739c-0.032-0.065-0.053-0.107-0.066-0.132
			c-0.027-0.077-0.058-0.152-0.083-0.231c-0.078-0.272-0.149-0.544-0.222-0.817c-0.021-0.077-0.037-0.13-0.052-0.172
			c0.007-0.046,0.015-0.107,0.021-0.197c-0.002,0.026,0.017-0.346,0.019-0.546c0.047-0.19,0.131-0.588,0.155-0.667
			c0.017-0.054,0.025-0.088,0.03-0.114c0.023-0.041,0.05-0.088,0.081-0.146c0.142-0.259,0.296-0.508,0.464-0.751
			c0.05-0.066,0.113-0.149,0.137-0.176c1.343-1.495,3.12-2.183,5.366-2.019c2.165,0.158,4.184,1.536,5.249,3.555
			c2.408,4.568,0.509,10.012-3.314,13.107c-4.792,3.88-11.338,4.025-17.012,2.302c-10.289-3.126-18.184-11.404-22.117-21.26
			c-3.639-9.118-3.899-20.665,1.459-29.231c0.721-1.152,1.528-2.185,2.549-3.176c0.414-0.402,0.697-0.655,1.085-0.922
			c0.275-0.189,0.565-0.358,0.857-0.518c0.069-0.038,0.539-0.273,0.533-0.283c0.637-0.262,1.325-0.44,1.997-0.567
			c0.099-0.019,0.149-0.031,0.173-0.041c0.066-0.001,0.14-0.003,0.239-0.006c0.266-0.009,0.528-0.024,0.796-0.022
			c0.833,0.007,1.789,0.219,2.435,0.578c0.172,0.092,0.339,0.192,0.501,0.301c-0.223-0.211-0.165-0.165,0.174,0.138
			c0.121,0.114,0.235,0.233,0.35,0.352c-0.306-0.32-0.043-0.107,0.06,0.063c-0.022-0.023-0.043-0.044-0.06-0.063
			c0.02,0.021,0.04,0.042,0.06,0.063c0,0,0,0,0,0c0.003,0.005,0.006,0.01,0.009,0.014c0.114,0.201,0.228,0.398,0.336,0.601
			c-0.095-0.127,0.217,0.735,0.271,0.955c0.004,0.018,0.008,0.028,0.012,0.042c0,0.015,0,0.025,0,0.041
			c0,0.21,0.016,0.419,0.015,0.63c-0.001,0.313-0.029,0.625-0.033,0.938c-0.001,0.041,0,0.071,0.001,0.102
			c-0.013,0.035-0.028,0.075-0.045,0.125c-0.081,0.24-0.389,0.962-0.24,0.731c-0.08,0.143-0.159,0.286-0.247,0.424
			c-0.032,0.034-0.072,0.077-0.123,0.134c-0.156,0.172-0.961,1.032-0.622,0.775c-2.844,2.151-1.112,6.061,2.351,5.576
			c3.971-0.557,6.406-4.741,6.571-8.49c0.17-3.869-1.813-7.558-5.061-9.616c-3.512-2.225-8.209-2.288-11.997-0.781
			C299.356,168.49,296.219,171.682,294.416,175.7z M334.123,233.231c-0.34,0.004-0.682-0.005-1.024-0.009
			c6.136-1.351,11.947-5.859,13.243-12.22c0.502-2.464,0.35-5.048-0.389-7.416c2.844,3.338,7.728,4.833,11.797,2.263
			c2.522-1.592,3.925-4.367,4.069-7.307c0.073-1.478-0.263-2.953-0.919-4.273c-0.781-1.572-2.131-2.33-3.675-2.98
			c-2.681-1.127-5.617,2.764-3.876,5.041c0.145,0.19,0.262,0.385,0.38,0.585c0.074,0.166,0.173,0.391,0.305,0.693
			c0.001,0.002,0.002,0.004,0.003,0.006c0,0.009-0.001,0.014-0.001,0.024c0,0.038,0.01,0.126,0.023,0.213
			c-0.002,0.091-0.003,0.194-0.003,0.272c-0.026,0.081-0.11,0.36-0.144,0.495c-0.146,0.228-0.284,0.461-0.429,0.689
			c-0.004,0.002-0.006,0.004-0.01,0.007c-0.29,0.199-0.213,0.173-0.035,0.065c0,0.001,0,0.001-0.001,0.002
			c-0.053,0.034-0.107,0.067-0.161,0.099c0.052-0.047-0.236,0.05-0.456,0.118c-0.029-0.002-0.066-0.003-0.117-0.004
			c-0.159-0.002-0.422-0.048-0.484-0.055c-0.173-0.045-0.343-0.094-0.515-0.148c-0.809-0.252-1.33-0.461-2.014-1.192
			c-0.576-0.615-0.876-1.401-0.977-2.294c-0.256-2.269,0.776-4.659,2.237-6.348c2.685-3.104,6.932-4.28,10.924-3.727
			c4.167,0.576,7.577,3.624,9.077,7.494c3.254,8.398-1.356,17.528-8.369,22.315c-3.849,2.627-8.251,4.251-12.736,5.42
			C344.73,232.392,339.41,233.169,334.123,233.231z"/>
		<g>
			
				<path style="fill:#969666;stroke:#33353D;stroke-width:0.75;stroke-linecap:round;stroke-linejoin:round;stroke-miterlimit:10;" d="
				M200.257,132.261c2.496,5.299,5.761,10.014,9.568,14.238c0.341,4.809,1.523,9.562,3.592,13.861
				c3.863,8.024,10.518,14.486,18.058,19.084c8.616,5.254,18.236,7.627,28.007,9.709c9.746,2.077,19.846,4.331,27.871,10.61
				c6.928,5.421,11.879,14.582,9.452,23.517c-1.921,7.072-9.681,12.151-16.969,10.147c-3.016-0.829-5.276-3.128-5.931-6.189
				c-0.173-0.809-0.239-1.64-0.186-2.466c0.211-3.261,2.422-7.022,5.771-7.852c1.575-0.39,3.327,0.016,4.569,1.06
				c0.558,0.469,1.019,1.066,1.268,1.751c0.153,0.423,0.224,0.876,0.206,1.326c-0.001,0.033-0.008,0.074-0.04,0.085
				s-0.052-0.055-0.019-0.051c-0.016,0.303-0.083,0.61-0.207,0.888c-0.095,0.215-0.262,0.401-0.325,0.629
				c0.029-0.016,0.051-0.041,0.073-0.067c-1.157,1.377-1.36,3.335,0,4.695c1.222,1.222,3.492,1.331,4.694,0
				c1.822-2.016,2.808-4.643,2.577-7.376c-0.487-5.758-5.536-9.822-11.225-9.737c-3.93,0.058-7.252,2.128-9.241,5.476
				c-3.457,5.818-2.89,14.631,3.023,18.619c6.394,4.312,15.408,2.305,20.492-3.113c0.834-0.834,1.539-1.842,2.131-2.859
				c1.79-3.075,2.462-6.643,2.29-10.171c-0.193-3.946-1.327-7.867-3.282-11.3c-0.739-1.298-1.587-2.498-2.507-3.626
				c-4.893-7.311-11.703-13.327-18.97-18.302c-12.028-8.235-25.69-13.603-38.506-20.428c-8.398-4.473-16.506-9.705-23.194-16.397
				c-0.228-2.498-0.151-5.02,0.308-7.51c1.538-8.342,6.815-16.341,14.963-19.055c3.713-1.236,7.875-1.103,11.05,1.414
				c2.565,2.033,3.674,5.035,3.549,8.234c-0.005,0.132-0.109,0.788-0.023,0.275c-0.263,1.562,0.29,2.983,1.786,3.64
				c1.267,0.557,3.241,0.123,3.853-1.262c1.062-2.402,1.375-4.578,0.891-7.181c-0.811-4.361-3.993-8.451-7.824-10.613
				c-4.291-2.422-9.682-2.52-14.28-0.959c-8.921,3.028-14.932,11.232-16.951,20.227c-0.651,2.899-0.936,5.898-0.902,8.898
				c-1.719-2.04-3.312-4.203-4.748-6.509c-3.414-5.484-5.688-11.739-6.146-18.211c-0.455-6.436,0.548-14.521,6.236-18.552
				c2.416-1.712,5.471-2.514,8.314-1.418c2.279,0.879,4.175,2.94,4.062,5.424c-0.09,1.969-1.533,4.135-3.304,4.321
				c-0.959,0.101-1.99-0.364-2.427-1.011c-0.114-0.169-0.219-0.352-0.311-0.534c0.026,0.052,0.12,0.333-0.005,0.008
				c-0.033-0.086-0.126-0.421-0.172-0.577c-0.012-0.166-0.117-0.899-0.15-0.983c0.011-0.25,0.041-0.576-0.026-0.21
				c0.302-1.67-0.434-3.371-2.188-3.853c-1.63-0.448-3.406,0.556-3.853,2.188c-0.548,1.997-0.348,4.052,0.866,5.763
				c2.076,2.926,5.952,4.948,9.561,4.104c3.224-0.755,5.68-3.638,6.428-6.792c1.798-7.579-5.781-13.271-12.818-12.017
				c-7.769,1.384-11.799,9.257-12.587,16.413C195.671,118.732,197.257,125.89,200.257,132.261z M213.593,150.361
				c5.172,4.902,11.091,9.072,17.354,12.655c13.833,7.915,28.989,13.413,42.317,22.227c5.331,3.526,10.482,7.686,14.905,12.465
				c-4.369-3.181-9.498-5.423-14.605-7.103c-10.366-3.41-21.378-4.626-31.516-8.762c-8.531-3.48-16.587-9.009-22.036-16.529
				C216.835,160.931,214.508,155.748,213.593,150.361z"/>
		</g>
	</g>
	<g>
		<g>
			<g>
				
					<path style="fill:#969666;stroke:#33353D;stroke-width:0.75;stroke-linecap:round;stroke-linejoin:round;stroke-miterlimit:10;" d="
					M425.783,333.594c3.228,4.091,8.72,7.38,14.021,5.251c4.801-1.928,7.272-8.328,3.262-12.292
					c-1.669-1.65-4.282-2.478-6.551-1.705c-2.539,0.865-4.144,3.593-4.297,6.185c-0.089,1.516,0.577,2.854,1.678,3.87
					c0.9,0.83,2.376,0.766,3.205-0.134c0.892-0.968,0.692-2.295-0.134-3.205c0.181,0.199,0.038,0.011-0.065-0.138
					c-0.012-0.065-0.228-0.555-0.285-0.661c-0.031-0.114-0.103-0.355-0.115-0.42c-0.048-0.247,0.002-0.038,0.006,0.003
					c-0.014-0.147-0.02-0.299-0.014-0.447c0.02-0.565,0.475-1.245,1.102-1.551c1.159-0.565,2.875,0.211,3.685,1.386
					c1.022,1.482,0.648,3.474-0.414,4.887c-1.325,1.763-3.508,2.442-5.648,2.317c-5.037-0.294-8.754-4.874-10.942-8.999
					c-2.2-4.149-3.202-8.861-3.208-13.537c-0.003-1.967,0.146-3.905,0.419-5.817c1.13,1.855,2.454,3.587,3.965,5.117
					c4.688,4.748,11.524,7.48,18.162,5.919c3.422-0.805,6.694-2.932,8.4-6.064c1.523-2.796,1.908-6.527,0.734-9.516
					c-0.701-1.783-1.727-3-3.3-4.067c-0.908-0.616-2.285-0.125-2.85,0.702c-0.667,0.977-0.461,2.061,0.299,2.92
					c-0.25-0.282,0.066,0.081,0.12,0.16c1.303,1.916,1.773,4.185,0.978,6.416c-0.984,2.762-3.488,4.44-6.242,5.104
					c-6.043,1.458-12.35-1.43-16.492-5.962c-1.237-1.353-2.251-2.872-3.069-4.493c1.541-6.673,4.512-12.994,7.954-18.96
					c5.251-9.104,11.582-17.638,15.809-27.305c2.554-5.841,4.429-12.145,4.63-18.51c0.132-1.045,0.193-2.107,0.149-3.187
					c-0.116-2.858-0.923-5.7-2.317-8.197c-1.247-2.232-3.028-4.165-5.306-5.367c-0.753-0.397-1.573-0.746-2.405-0.938
					c-5.199-1.377-11.502,0.847-13.775,5.946c-2.101,4.716,0.93,10.343,5.283,12.59c2.505,1.293,5.338,1.29,7.773-0.181
					c3.525-2.129,5.067-6.56,3.158-10.281c-0.906-1.767-2.519-3.002-4.41-3.541c-1.248-0.356-2.6,0.581-2.882,1.8
					c-0.313,1.356,0.562,2.481,1.8,2.882c-0.024-0.008-0.047-0.015-0.07-0.013c0.126,0.116,0.3,0.167,0.441,0.262
					c0.182,0.123,0.342,0.286,0.468,0.466c-0.019,0.015-0.031-0.033-0.008-0.039c0.023-0.006,0.043,0.017,0.057,0.036
					c0.183,0.269,0.313,0.575,0.382,0.893c0.111,0.516,0.056,1.059-0.107,1.561c-0.362,1.117-1.282,2.038-2.398,2.403
					c-2.374,0.774-5.174-0.687-6.553-2.608c-0.349-0.486-0.628-1.022-0.831-1.585c-0.771-2.131-0.265-4.409,1.268-6.074
					c3.706-4.025,10.417-3.882,14.308-0.276c4.916,4.555,5.389,12.078,3.214,18.062c-2.52,6.932-7.857,12.188-13.044,17.2
					c-5.201,5.025-10.197,10.17-13.473,16.699c-2.867,5.714-4.475,12.233-3.77,18.641c0.378,3.432,1.474,6.804,3.109,9.887
					c-0.718,4.053-0.915,8.2-0.415,12.41C420.833,324.562,422.604,329.565,425.783,333.594z M419.688,291.633
					c0.462-6.706,3.289-13.189,7.192-18.597c4.639-6.426,10.933-11.395,15.99-17.463c2.491-2.989,4.781-6.332,6.244-9.96
					c-0.883,4.63-2.451,9.159-4.372,13.368c-4.803,10.522-12,19.707-17.458,29.871c-2.471,4.601-4.507,9.43-5.802,14.423
					C419.977,299.617,419.419,295.542,419.688,291.633z"/>
			</g>
			
				<path style="fill:#969666;stroke:#33353D;stroke-width:0.75;stroke-linecap:round;stroke-linejoin:round;stroke-miterlimit:10;" d="
				M455.132,283.36c3.032-2.804,5.024-6.826,4.392-11.029c-0.59-3.928-3.105-7.759-6.889-9.259
				c-4.003-1.587-8.502-0.337-11.295,2.903c-1.406,1.631-1.962,3.536-1.863,5.663c0.055,1.189,1.232,2.117,2.356,2.123
				c1.268,0.007,2.141-0.824,2.441-2.025c-0.078,0.315,0.077-0.22,0.107-0.291c0.073-0.17,0.153-0.334,0.238-0.498
				c0.003-0.006,0.007-0.012,0.01-0.018c0.058-0.094,0.175-0.285,0.353-0.577c-0.069,0.107-0.266,0.337,0.067-0.095
				c0.628-0.815,0.684-0.862,1.538-1.393c-0.376,0.234,0.135-0.068,0.237-0.114c0.174-0.079,0.349-0.151,0.528-0.217
				c0.196-0.073,0.396-0.14,0.599-0.195c0.046-0.006,0.103-0.013,0.181-0.023c0.319-0.04,0.633-0.091,0.952-0.121
				c0.087-0.001,0.304-0.007,0.386,0.002c0.237,0.026,0.468,0.069,0.702,0.114c0.043,0.008,0.078,0.014,0.111,0.021
				c0.014,0.011,0.047,0.028,0.113,0.055c0.179,0.073,0.357,0.145,0.531,0.228c0.068,0.032,0.345,0.181,0.382,0.192
				c0.114,0.077,0.227,0.159,0.334,0.24c0.805,0.611,0.918,0.759,1.47,1.581c0.332,0.495,0.229,0.324,0.435,0.782
				c0.17,0.378,0.315,0.766,0.436,1.163c0.02,0.074,0.06,0.218,0.064,0.24c0.037,0.193,0.071,0.386,0.096,0.58
				c0.033,0.242,0.054,0.486,0.067,0.73c0.005,0.091,0.002,0.417,0.006,0.421c-0.187,3.375-2.302,6.429-5.423,8.102
				c-3.558,1.907-7.811,2.062-11.668,1.129c-6.942-1.679-12.823-6.53-16.605-12.484c-4.211-6.629-5.539-14.608-4.347-22.321
				c1.328-8.599,5.649-16.138,11.602-22.381c3.283-3.444,6.888-6.596,10.233-9.973c8.812-6.641,16.735-15.549,18.724-26.617
				c1.925-10.715-1.999-22.834-12.539-27.437c-5.855-2.557-12.589-2.575-18.701-0.994c-5.995,1.551-11.727,4.82-15.436,9.87
				c-3.565,4.854-5.354,11.306-3.712,17.21c1.508,5.424,6.366,9.875,12.244,9.254c2.509-0.265,4.71-1.596,6.168-3.464
				c0.232,0.44,0.485,0.872,0.781,1.283c2.038,2.825,5.571,4.433,9.044,3.692c2.093-0.447,4.187-1.67,5.152-3.664
				c0.845-1.748,0.73-3.98-0.138-5.692c-1.024-2.02-2.886-3.118-5.152-2.992c-2.133,0.118-2.814,3.623-0.673,4.305
				c0.151,0.048,0.292,0.114,0.44,0.163c-0.37-0.121,0.075,0.139,0.01,0.008c0.051,0.07,0.11,0.151,0.126,0.173
				c0.092,0.13,0.186,0.26,0.275,0.392c-0.088-0.115,0.092,0.254,0.185,0.474c0.01,0.068,0.021,0.15,0.016,0.174
				c0.003,0.06,0.005,0.106,0.007,0.145c-0.003,0.031-0.006,0.066-0.01,0.107c0.011,0.007,0.017,0.021,0.019,0.038
				c-0.055,0.142-0.126,0.273-0.182,0.414c-0.052,0.13-0.143,0.285-0.306,0.439c-0.317,0.299-0.975,0.573-1.441,0.64
				c-0.718,0.103-0.973,0.105-1.65-0.052c0.005-0.001-0.25-0.068-0.327-0.1c-0.139-0.057-0.278-0.112-0.414-0.175
				c-0.134-0.062-0.265-0.13-0.396-0.201c-0.007-0.004-0.011-0.006-0.018-0.01c-0.073-0.05-0.145-0.1-0.215-0.153
				c-0.847-0.673-1.388-1.431-1.807-2.579c-0.76-2.085-0.62-4.872,0.75-6.752c1.63-2.24,4.642-3.137,7.411-2.827
				c3.252,0.363,6.167,2.061,8.023,4.761c1.991,2.895,2.693,6.582,2.434,10.047c-0.634,8.497-6.53,15.173-12.32,20.891
				c-3.233,3.193-6.599,6.264-9.571,9.709c-2.649,3.07-4.91,6.466-6.659,10.127c-3.492,7.311-5.211,15.575-3.9,23.639
				c2.346,14.432,14.805,26.866,29.871,26.668C448.134,287.475,452.163,286.105,455.132,283.36z M447.098,185.134
				c-3.445-5.981-11.749-9.122-18.055-5.757c-2.005,1.07-3.484,2.737-4.42,4.67c-1.381-1.578-3.347-2.512-5.574-2.476
				c-2.898,0.047-5.717,1.913-7.013,4.477c-0.751,1.485-0.696,3.003-0.299,4.568c0.302,1.19,1.856,1.778,2.928,1.493
				c1.158-0.307,2.078-1.437,1.887-2.692c-0.008-0.052-0.025-0.57-0.049-0.485c0.017-0.124,0.046-0.246,0.072-0.368
				c-0.03,0.185,0.111-0.338,0.134-0.407c0.023-0.07,0.037-0.119,0.045-0.153c0.025-0.026,0.057-0.063,0.101-0.118
				c0.125-0.157,0.249-0.312,0.384-0.459c0.03-0.01,0.376-0.312,0.385-0.318c0.389-0.283,0.556-0.389,1.138-0.562
				c-0.105,0.041,0.461-0.084,0.471-0.085c0.038-0.004,0.664,0.009,0.439-0.018c0.168,0.017,0.34,0.042,0.505,0.083
				c-0.074-0.009,0.206,0.117,0.355,0.183c-0.045,0.015,0.721,0.584,0.45,0.306c0.463,0.474,0.533,0.638,0.716,1.072
				c0.298,0.706,0.471,1.485,0.473,2.494c0.002,0.607-0.237,1.7-0.708,2.434c-1.073,1.67-3.344,2.305-5.221,2.251
				c-5.352-0.154-8.381-5.368-8.866-10.182c-0.578-5.729,1.947-11.333,5.982-15.316c7.716-7.616,21.326-10.231,31.122-5.371
				c9.046,4.488,12.276,15.193,10.796,24.641c-1.331,8.489-6.245,15.534-12.079,21.701c0.869-1.142,1.69-2.325,2.437-3.575
				C449.585,200.549,451.113,192.104,447.098,185.134z"/>
		</g>
		<g>
			<g>
				
					<path style="fill:#969666;stroke:#33353D;stroke-width:0.75;stroke-linecap:round;stroke-linejoin:round;stroke-miterlimit:10;" d="
					M79.767,319.5c0.5-4.21,0.302-8.357-0.415-12.41c1.634-3.083,2.731-6.455,3.109-9.887c0.705-6.408-0.903-12.927-3.77-18.641
					c-3.275-6.529-8.272-11.674-13.473-16.699c-5.187-5.012-10.524-10.268-13.044-17.2c-2.175-5.984-1.702-13.507,3.214-18.062
					c3.891-3.605,10.602-3.748,14.308,0.276c1.533,1.665,2.04,3.943,1.269,6.074c-0.204,0.563-0.482,1.099-0.831,1.585
					c-1.38,1.921-4.179,3.382-6.554,2.608c-1.117-0.364-2.036-1.285-2.398-2.403c-0.163-0.502-0.217-1.045-0.107-1.561
					c0.068-0.318,0.199-0.624,0.382-0.893c0.014-0.02,0.034-0.042,0.057-0.036c0.023,0.006,0.011,0.054-0.008,0.039
					c0.126-0.18,0.285-0.343,0.468-0.466c0.141-0.095,0.315-0.146,0.441-0.262c-0.024-0.001-0.047,0.006-0.07,0.013
					c1.238-0.402,2.113-1.526,1.8-2.882c-0.282-1.219-1.634-2.156-2.882-1.8c-1.891,0.539-3.504,1.774-4.41,3.541
					c-1.909,3.721-0.367,8.152,3.158,10.281c2.435,1.471,5.268,1.474,7.773,0.181c4.353-2.247,7.384-7.875,5.283-12.59
					c-2.272-5.099-8.576-7.323-13.775-5.946c-0.832,0.192-1.651,0.541-2.405,0.938c-2.278,1.202-4.059,3.135-5.306,5.367
					c-1.394,2.496-2.201,5.339-2.317,8.197c-0.044,1.08,0.016,2.142,0.149,3.187c0.201,6.365,2.076,12.669,4.63,18.51
					c4.227,9.668,10.557,18.201,15.809,27.305c3.441,5.966,6.413,12.287,7.954,18.96c-0.818,1.621-1.832,3.14-3.068,4.493
					c-4.143,4.532-10.449,7.42-16.492,5.962c-2.754-0.664-5.258-2.342-6.242-5.104c-0.795-2.232-0.325-4.5,0.978-6.416
					c0.054-0.079,0.369-0.442,0.12-0.16c0.76-0.858,0.965-1.942,0.299-2.92c-0.564-0.828-1.942-1.318-2.85-0.702
					c-1.573,1.067-2.599,2.284-3.3,4.067c-1.174,2.989-0.789,6.719,0.734,9.516c1.706,3.132,4.978,5.259,8.4,6.064
					c6.638,1.561,13.474-1.171,18.162-5.919c1.511-1.531,2.836-3.262,3.965-5.117c0.273,1.911,0.422,3.85,0.419,5.817
					c-0.006,4.676-1.008,9.388-3.208,13.537c-2.188,4.126-5.904,8.705-10.941,8.999c-2.14,0.125-4.323-0.554-5.648-2.317
					c-1.062-1.413-1.436-3.406-0.414-4.887c0.81-1.175,2.527-1.951,3.685-1.386c0.628,0.306,1.082,0.987,1.102,1.551
					c0.005,0.148,0,0.3-0.014,0.447c0.004-0.042,0.054-0.25,0.006-0.003c-0.013,0.065-0.084,0.307-0.115,0.42
					c-0.057,0.106-0.273,0.596-0.285,0.661c-0.103,0.149-0.246,0.338-0.065,0.138c-0.826,0.91-1.026,2.237-0.134,3.205
					c0.829,0.9,2.304,0.964,3.205,0.134c1.102-1.016,1.767-2.354,1.678-3.87c-0.153-2.592-1.757-5.32-4.297-6.185
					c-2.269-0.773-4.882,0.056-6.551,1.705c-4.01,3.964-1.539,10.364,3.262,12.292c5.301,2.129,10.793-1.16,14.021-5.251
					C77.396,329.565,79.166,324.562,79.767,319.5z M78.519,303.275c-1.296-4.993-3.331-9.822-5.802-14.423
					c-5.458-10.163-12.655-19.349-17.458-29.871c-1.921-4.209-3.488-8.738-4.372-13.368c1.463,3.628,3.752,6.971,6.244,9.96
					c5.057,6.068,11.351,11.037,15.99,17.463c3.903,5.408,6.73,11.891,7.192,18.597C80.581,295.542,80.023,299.617,78.519,303.275z"
					/>
			</g>
			
				<path style="fill:#969666;stroke:#33353D;stroke-width:0.75;stroke-linecap:round;stroke-linejoin:round;stroke-miterlimit:10;" d="
				M55.877,287.528c15.067,0.198,27.525-12.236,29.871-26.668c1.311-8.064-0.407-16.328-3.9-23.639
				c-1.749-3.661-4.01-7.058-6.659-10.127c-2.973-3.445-6.338-6.516-9.571-9.709c-5.79-5.718-11.686-12.394-12.32-20.891
				c-0.258-3.465,0.444-7.152,2.434-10.047c1.856-2.7,4.771-4.398,8.023-4.761c2.77-0.309,5.781,0.588,7.411,2.827
				c1.37,1.881,1.51,4.668,0.75,6.752c-0.419,1.148-0.96,1.907-1.807,2.579c-0.07,0.053-0.143,0.103-0.215,0.153
				c-0.006,0.003-0.011,0.006-0.018,0.01c-0.13,0.071-0.261,0.138-0.395,0.201c-0.136,0.063-0.276,0.118-0.414,0.175
				c-0.077,0.032-0.331,0.099-0.327,0.1c-0.677,0.157-0.932,0.155-1.65,0.052c-0.466-0.067-1.124-0.34-1.441-0.64
				c-0.163-0.154-0.254-0.309-0.306-0.439c-0.056-0.141-0.127-0.272-0.182-0.414c0.002-0.017,0.008-0.031,0.019-0.038
				c-0.004-0.041-0.007-0.076-0.01-0.107c0.002-0.039,0.004-0.085,0.007-0.145c-0.005-0.024,0.006-0.106,0.016-0.174
				c0.093-0.22,0.273-0.59,0.185-0.474c0.089-0.132,0.183-0.262,0.275-0.392c0.015-0.022,0.075-0.103,0.126-0.173
				c-0.066,0.131,0.38-0.129,0.01-0.008c0.149-0.049,0.289-0.115,0.44-0.163c2.141-0.682,1.461-4.187-0.673-4.305
				c-2.265-0.126-4.128,0.972-5.152,2.992c-0.867,1.712-0.983,3.945-0.138,5.692c0.965,1.994,3.059,3.217,5.152,3.664
				c3.473,0.742,7.006-0.867,9.044-3.692c0.296-0.411,0.549-0.843,0.781-1.283c1.458,1.868,3.659,3.199,6.168,3.464
				c5.878,0.621,10.736-3.83,12.244-9.254c1.641-5.904-0.148-12.357-3.712-17.21c-3.709-5.05-9.441-8.32-15.436-9.87
				c-6.113-1.581-12.847-1.563-18.701,0.994c-10.54,4.603-14.463,16.721-12.538,27.437c1.989,11.068,9.911,19.977,18.724,26.617
				c3.346,3.377,6.95,6.529,10.233,9.973c5.952,6.243,10.274,13.782,11.602,22.381c1.192,7.713-0.136,15.692-4.347,22.321
				c-3.782,5.954-9.663,10.805-16.605,12.484c-3.856,0.933-8.109,0.778-11.667-1.129c-3.121-1.673-5.236-4.726-5.423-8.102
				c0.004-0.004,0-0.329,0.006-0.421c0.013-0.244,0.035-0.487,0.067-0.73c0.026-0.194,0.06-0.387,0.097-0.58
				c0.004-0.022,0.044-0.165,0.064-0.24c0.121-0.396,0.266-0.785,0.436-1.163c0.206-0.458,0.103-0.287,0.435-0.782
				c0.552-0.823,0.666-0.97,1.47-1.581c0.107-0.081,0.219-0.163,0.334-0.24c0.037-0.011,0.315-0.16,0.382-0.192
				c0.174-0.083,0.352-0.155,0.531-0.228c0.066-0.027,0.099-0.044,0.113-0.055c0.034-0.006,0.068-0.012,0.111-0.021
				c0.233-0.045,0.465-0.088,0.702-0.114c0.082-0.009,0.299-0.003,0.386-0.002c0.319,0.03,0.633,0.081,0.952,0.121
				c0.077,0.01,0.135,0.017,0.181,0.023c0.202,0.055,0.402,0.122,0.599,0.195c0.179,0.066,0.354,0.138,0.528,0.217
				c0.102,0.047,0.614,0.348,0.237,0.114c0.854,0.531,0.91,0.578,1.538,1.393c0.333,0.432,0.136,0.202,0.067,0.095
				c0.178,0.292,0.295,0.484,0.353,0.577c0.003,0.006,0.007,0.012,0.01,0.018c0.085,0.164,0.165,0.328,0.238,0.498
				c0.03,0.071,0.185,0.606,0.107,0.291c0.299,1.201,1.172,2.032,2.441,2.025c1.124-0.007,2.302-0.935,2.357-2.123
				c0.099-2.127-0.457-4.032-1.863-5.663c-2.793-3.24-7.292-4.49-11.295-2.903c-3.784,1.5-6.299,5.331-6.889,9.259
				c-0.632,4.202,1.36,8.225,4.392,11.029C47.837,286.105,51.866,287.475,55.877,287.528z M54.366,207.164
				c0.746,1.249,1.568,2.433,2.437,3.575c-5.834-6.166-10.748-13.211-12.079-21.701c-1.481-9.448,1.75-20.153,10.796-24.641
				c9.796-4.86,23.407-2.245,31.122,5.371c4.035,3.983,6.561,9.587,5.982,15.316c-0.486,4.814-3.514,10.028-8.866,10.182
				c-1.877,0.054-4.148-0.581-5.221-2.251c-0.471-0.733-0.71-1.827-0.708-2.434c0.002-1.008,0.175-1.788,0.473-2.494
				c0.184-0.435,0.253-0.598,0.716-1.072c-0.271,0.278,0.495-0.292,0.45-0.306c0.149-0.066,0.43-0.192,0.355-0.183
				c0.165-0.041,0.337-0.066,0.505-0.083c-0.226,0.027,0.401,0.014,0.439,0.018c0.01,0.001,0.576,0.126,0.471,0.085
				c0.581,0.173,0.749,0.279,1.138,0.562c0.009,0.006,0.354,0.309,0.385,0.318c0.135,0.147,0.259,0.303,0.384,0.459
				c0.044,0.055,0.076,0.092,0.101,0.118c0.008,0.035,0.022,0.083,0.045,0.153c0.023,0.069,0.164,0.592,0.134,0.407
				c0.026,0.122,0.055,0.244,0.072,0.368c-0.024-0.085-0.041,0.433-0.049,0.485c-0.191,1.255,0.729,2.385,1.886,2.692
				c1.073,0.284,2.626-0.303,2.928-1.493c0.397-1.564,0.452-3.083-0.299-4.568c-1.296-2.563-4.115-4.43-7.013-4.477
				c-2.226-0.036-4.193,0.898-5.574,2.476c-0.936-1.933-2.415-3.6-4.42-4.67c-6.306-3.365-14.61-0.224-18.055,5.757
				C48.887,192.104,50.415,200.549,54.366,207.164z"/>
		</g>
	</g>
	<g>
		<g>
			
				<path style="fill:#969666;stroke:#33353D;stroke-width:0.75;stroke-linecap:round;stroke-linejoin:round;stroke-miterlimit:10;" d="
				M194.359,319.577c-3.969,8.846-2.073,19.938,2.763,28.074c1.953,3.286,4.705,6.486,7.939,9.056
				c2.422,2.465,5.42,4.241,8.778,5.313c5.205,1.663,10.797,1.66,16.163,0.924c7.792-1.068,16.868-3.865,20.862-11.296
				c3.231-6.011,2.511-14.991-4.542-17.883c-3.351-1.374-6.965-1.367-10.256,0.202c-3.776,1.801-6.248,6.024-5.417,10.199
				c0.014,0.069,0.038,0.134,0.053,0.202c-1.014-1.339-2.384-2.404-4.089-2.983c-4.341-1.474-10.097,0.671-11.17,5.45
				c-0.543,2.418,0.054,5.013,1.531,6.993c1.882,2.522,4.498,3.651,7.609,3.23c1.641-0.222,2.517-2.327,2.127-3.746
				c-0.477-1.735-2.118-2.348-3.746-2.127c0.646-0.088,0.048-0.078-0.269-0.083c-0.016-0.006-0.03-0.011-0.048-0.018
				c-0.174-0.066-0.719-0.352-0.187-0.031c-0.171-0.103-0.353-0.198-0.527-0.298c-0.04-0.024-0.077-0.053-0.115-0.079
				c-0.016-0.015-0.039-0.035-0.072-0.065c-0.147-0.146-0.291-0.294-0.437-0.44c-0.041-0.041-0.072-0.07-0.097-0.092
				c-0.015-0.032-0.035-0.073-0.066-0.131c-0.1-0.183-0.213-0.361-0.314-0.544c-0.023-0.048-0.039-0.079-0.049-0.097
				c-0.02-0.056-0.043-0.112-0.061-0.17c-0.057-0.2-0.109-0.4-0.163-0.601c-0.015-0.057-0.027-0.095-0.038-0.127
				c0.006-0.034,0.011-0.079,0.015-0.145c-0.001,0.019,0.012-0.254,0.014-0.402c0.035-0.14,0.096-0.432,0.114-0.49
				c0.012-0.04,0.018-0.065,0.022-0.084c0.017-0.03,0.037-0.065,0.06-0.107c0.104-0.191,0.218-0.374,0.341-0.552
				c0.036-0.049,0.083-0.11,0.101-0.13c0.988-1.1,2.294-1.606,3.947-1.485c1.592,0.117,3.078,1.13,3.861,2.615
				c1.771,3.36,0.374,7.365-2.437,9.641c-3.525,2.854-8.34,2.961-12.513,1.693c-7.568-2.299-13.375-8.388-16.268-15.638
				c-2.677-6.707-2.868-15.2,1.073-21.5c0.53-0.848,1.124-1.607,1.875-2.336c0.304-0.295,0.513-0.482,0.798-0.678
				c0.202-0.139,0.415-0.263,0.631-0.381c0.051-0.028,0.397-0.201,0.392-0.208c0.469-0.193,0.975-0.324,1.469-0.417
				c0.073-0.014,0.11-0.023,0.127-0.03c0.048-0.001,0.103-0.002,0.176-0.005c0.196-0.007,0.389-0.018,0.585-0.016
				c0.613,0.005,1.316,0.161,1.791,0.425c0.126,0.068,0.249,0.141,0.368,0.221c-0.164-0.155-0.122-0.121,0.128,0.101
				c0.089,0.084,0.173,0.171,0.257,0.259c-0.225-0.236-0.032-0.079,0.044,0.046c-0.016-0.017-0.031-0.032-0.044-0.046
				c0.015,0.015,0.03,0.031,0.044,0.046c0,0,0,0,0,0c0.002,0.003,0.005,0.007,0.007,0.011c0.084,0.148,0.168,0.293,0.248,0.442
				c-0.07-0.094,0.159,0.541,0.199,0.702c0.003,0.013,0.006,0.021,0.009,0.031c0,0.011,0,0.018,0,0.03
				c0,0.154,0.012,0.308,0.011,0.463c-0.001,0.23-0.021,0.46-0.024,0.69c0,0.03,0,0.052,0.001,0.075
				c-0.01,0.026-0.021,0.055-0.033,0.092c-0.059,0.176-0.286,0.707-0.177,0.538c-0.059,0.105-0.117,0.21-0.181,0.312
				c-0.023,0.025-0.053,0.057-0.09,0.098c-0.115,0.126-0.707,0.759-0.457,0.57c-2.092,1.582-0.818,4.458,1.729,4.101
				c2.921-0.41,4.712-3.487,4.833-6.245c0.125-2.846-1.334-5.559-3.723-7.073c-2.583-1.637-6.038-1.683-8.824-0.574
				C197.993,314.273,195.685,316.622,194.359,319.577z M223.565,361.894c-0.25,0.003-0.502-0.004-0.753-0.007
				c4.514-0.993,8.788-4.31,9.741-8.988c0.369-1.812,0.257-3.713-0.286-5.455c2.092,2.455,5.684,3.555,8.677,1.665
				c1.855-1.171,2.887-3.212,2.993-5.375c0.053-1.087-0.194-2.172-0.676-3.143c-0.575-1.156-1.568-1.714-2.703-2.192
				c-1.972-0.829-4.131,2.033-2.851,3.708c0.107,0.14,0.193,0.283,0.279,0.43c0.054,0.122,0.127,0.288,0.224,0.51
				c0.001,0.002,0.001,0.003,0.002,0.004c0,0.006-0.001,0.01-0.001,0.017c0,0.028,0.008,0.092,0.017,0.157
				c-0.001,0.067-0.002,0.142-0.002,0.2c-0.019,0.06-0.081,0.264-0.106,0.365c-0.108,0.168-0.209,0.339-0.316,0.507
				c-0.003,0.002-0.005,0.003-0.007,0.005c-0.214,0.146-0.156,0.127-0.026,0.048c0,0.001,0,0.001-0.001,0.001
				c-0.039,0.025-0.079,0.049-0.118,0.073c0.038-0.035-0.173,0.037-0.336,0.087c-0.021-0.001-0.049-0.002-0.086-0.003
				c-0.117-0.002-0.311-0.035-0.356-0.041c-0.127-0.033-0.252-0.069-0.379-0.109c-0.595-0.186-0.978-0.339-1.481-0.877
				c-0.423-0.453-0.644-1.031-0.718-1.687c-0.188-1.669,0.571-3.427,1.645-4.669c1.975-2.283,5.099-3.148,8.035-2.742
				c3.065,0.424,5.573,2.665,6.677,5.512c2.394,6.177-0.997,12.893-6.156,16.414c-2.831,1.932-6.069,3.126-9.368,3.987
				C231.367,361.276,227.454,361.848,223.565,361.894z"/>
			
				<path style="fill:#969666;stroke:#33353D;stroke-width:0.75;stroke-linecap:round;stroke-linejoin:round;stroke-miterlimit:10;" d="
				M244.827,288.956c-3.835-3.035-8.904-4.63-13.704-3.123c-4.488,1.408-8.509,5.051-9.572,9.751
				c-1.125,4.973,1.16,10.007,5.46,12.682c2.165,1.347,4.495,1.649,6.964,1.145c1.38-0.281,2.251-1.828,2.053-3.145
				c-0.223-1.485-1.355-2.354-2.815-2.485c0.382,0.034-0.271-0.05-0.36-0.072c-0.212-0.054-0.419-0.118-0.626-0.187
				c-0.008-0.003-0.015-0.006-0.023-0.008c-0.12-0.051-0.366-0.153-0.74-0.308c0.138,0.062,0.442,0.25-0.123-0.061
				c-1.068-0.586-1.133-0.642-1.911-1.545c0.342,0.397-0.104-0.146-0.177-0.257c-0.124-0.189-0.241-0.381-0.351-0.578
				c-0.121-0.216-0.237-0.438-0.337-0.665c-0.015-0.052-0.034-0.118-0.06-0.207c-0.104-0.366-0.222-0.723-0.315-1.091
				c-0.017-0.102-0.063-0.354-0.068-0.452c-0.013-0.282-0.005-0.56,0.005-0.842c0.002-0.052,0.003-0.093,0.004-0.134
				c0.01-0.018,0.024-0.06,0.043-0.142c0.052-0.222,0.104-0.444,0.17-0.662c0.025-0.085,0.148-0.437,0.155-0.482
				c0.07-0.148,0.145-0.295,0.22-0.434c0.568-1.053,0.719-1.213,1.581-2.009c0.518-0.478,0.337-0.327,0.835-0.652
				c0.411-0.268,0.839-0.508,1.28-0.722c0.083-0.037,0.244-0.11,0.269-0.118c0.219-0.078,0.438-0.153,0.661-0.219
				c0.278-0.082,0.558-0.152,0.841-0.212c0.106-0.023,0.488-0.078,0.491-0.083c3.982-0.398,7.941,1.518,10.468,4.863
				c2.881,3.814,3.84,8.761,3.453,13.442c-0.695,8.427-5.295,16.194-11.569,21.706c-6.985,6.137-16.076,9.149-25.316,9.165
				c-10.302,0.018-19.911-3.659-28.302-9.481c-4.628-3.211-8.975-6.852-13.536-10.148c-9.379-9.095-21.248-16.735-34.559-17.038
				c-12.887-0.293-26.346,6.512-29.803,19.682c-1.921,7.316-0.712,15.197,2.255,22.058c2.91,6.73,7.782,12.837,14.368,16.253
				c6.329,3.283,14.205,4.196,20.811,1.197c6.069-2.756,10.389-9.252,8.588-16.014c-0.769-2.887-2.728-5.217-5.18-6.582
				c0.473-0.352,0.932-0.726,1.358-1.148c2.932-2.901,4.168-7.327,2.665-11.255c-0.905-2.367-2.718-4.592-5.228-5.357
				c-2.199-0.67-4.789-0.126-6.633,1.201c-2.176,1.567-3.12,3.946-2.559,6.573c0.528,2.474,4.753,2.63,5.159,0
				c0.029-0.185,0.081-0.362,0.11-0.545c-0.074,0.455,0.149-0.113,0.008-0.013c0.072-0.072,0.156-0.157,0.179-0.178
				c0.136-0.132,0.27-0.265,0.408-0.393c-0.119,0.124,0.28-0.155,0.521-0.303c0.077-0.024,0.172-0.052,0.2-0.051
				c0.069-0.014,0.124-0.025,0.168-0.035c0.037-0.002,0.078-0.005,0.127-0.008c0.006-0.015,0.022-0.024,0.041-0.029
				c0.176,0.039,0.342,0.097,0.518,0.138c0.162,0.037,0.36,0.115,0.57,0.278c0.408,0.316,0.849,1.036,1.012,1.569
				c0.252,0.822,0.301,1.119,0.241,1.94c-0.002-0.005-0.034,0.305-0.057,0.401c-0.042,0.173-0.08,0.346-0.129,0.517
				c-0.048,0.169-0.103,0.334-0.162,0.499c-0.003,0.009-0.005,0.014-0.008,0.022c-0.045,0.094-0.09,0.188-0.14,0.28
				c-0.632,1.114-1.421,1.885-2.687,2.585c-2.3,1.271-5.586,1.615-8.036,0.357c-2.918-1.498-4.517-4.857-4.662-8.153
				c-0.17-3.871,1.284-7.591,4.103-10.255c3.023-2.858,7.207-4.353,11.308-4.684c10.055-0.812,18.943,4.866,26.69,10.593
				c4.326,3.199,8.534,6.574,13.106,9.422c4.075,2.538,8.462,4.562,13.064,5.938c9.19,2.749,19.171,3.249,28.365,0.241
				c16.453-5.382,28.722-22.229,25.736-39.817C250.919,296.39,248.58,291.928,244.827,288.956z M131.391,316.307
				c-6.367,5.123-8.524,15.412-3.435,22.173c1.618,2.15,3.839,3.576,6.271,4.317c-1.594,1.904-2.326,4.375-1.877,6.973
				c0.584,3.381,3.283,6.338,6.518,7.385c1.874,0.607,3.641,0.265,5.398-0.486c1.337-0.571,1.74-2.496,1.212-3.698
				c-0.571-1.299-2.061-2.168-3.494-1.715c-0.059,0.019-0.663,0.133-0.558,0.146c-0.148,0.003-0.296-0.009-0.444-0.017
				c0.222,0.002-0.416-0.068-0.501-0.082c-0.086-0.014-0.146-0.022-0.187-0.025c-0.035-0.024-0.084-0.055-0.156-0.096
				c-0.206-0.117-0.41-0.235-0.608-0.366c-0.017-0.034-0.434-0.383-0.443-0.392c-0.403-0.403-0.557-0.58-0.866-1.228
				c0.067,0.116-0.183-0.524-0.186-0.535c-0.012-0.043-0.111-0.779-0.101-0.51c-0.011-0.2-0.013-0.406,0.005-0.606
				c0.003,0.089,0.099-0.263,0.149-0.449c0.025,0.05,0.552-0.951,0.276-0.583c0.47-0.628,0.649-0.74,1.124-1.034
				c0.772-0.477,1.652-0.822,2.831-1.009c0.709-0.113,2.032-0.034,2.977,0.383c2.15,0.951,3.307,3.491,3.587,5.697
				c0.798,6.289-4.748,10.785-10.29,12.233c-6.596,1.723-13.613-0.206-19.01-4.199c-10.32-7.634-15.866-23.077-11.971-35.425
				c3.596-11.402,15.529-17.138,26.852-17.132c10.174,0.005,19.313,4.466,27.593,10.164c-1.494-0.808-3.029-1.552-4.627-2.197
				C148.968,310.58,138.811,310.337,131.391,316.307z"/>
		</g>
		<g>
			
				<path style="fill:#969666;stroke:#33353D;stroke-width:0.75;stroke-linecap:round;stroke-linejoin:round;stroke-miterlimit:10;" d="
				M303.262,313.071c-2.786-1.109-6.241-1.062-8.824,0.574c-2.389,1.514-3.848,4.227-3.723,7.073
				c0.121,2.758,1.912,5.835,4.833,6.245c2.547,0.357,3.821-2.519,1.729-4.101c0.25,0.189-0.342-0.444-0.457-0.57
				c-0.038-0.041-0.067-0.073-0.09-0.098c-0.064-0.102-0.122-0.207-0.181-0.312c0.11,0.169-0.117-0.362-0.177-0.538
				c-0.012-0.037-0.023-0.066-0.033-0.092c0-0.023,0.001-0.045,0-0.075c-0.003-0.23-0.023-0.46-0.024-0.69
				c-0.001-0.155,0.011-0.309,0.011-0.463c0-0.012,0-0.019,0-0.03c0.003-0.01,0.005-0.018,0.009-0.031
				c0.04-0.162,0.269-0.796,0.199-0.702c0.08-0.149,0.164-0.294,0.248-0.442c0.002-0.003,0.005-0.007,0.007-0.011c0,0,0,0,0,0
				c0.015-0.015,0.03-0.031,0.044-0.046c-0.013,0.014-0.028,0.029-0.044,0.046c0.076-0.125,0.27-0.281,0.044-0.046
				c0.085-0.088,0.168-0.175,0.257-0.259c0.25-0.222,0.293-0.256,0.128-0.101c0.119-0.08,0.242-0.154,0.368-0.221
				c0.475-0.265,1.178-0.42,1.791-0.425c0.197-0.002,0.389,0.009,0.585,0.016c0.073,0.002,0.128,0.004,0.176,0.005
				c0.017,0.007,0.055,0.017,0.127,0.03c0.494,0.093,1,0.224,1.469,0.417c-0.005,0.008,0.341,0.181,0.392,0.208
				c0.215,0.118,0.428,0.242,0.631,0.381c0.285,0.196,0.493,0.383,0.798,0.678c0.751,0.729,1.345,1.489,1.875,2.336
				c3.941,6.3,3.75,14.793,1.073,21.5c-2.893,7.25-8.7,13.339-16.268,15.638c-4.174,1.268-8.988,1.161-12.513-1.693
				c-2.811-2.276-4.209-6.28-2.437-9.641c0.783-1.485,2.268-2.499,3.861-2.615c1.653-0.121,2.959,0.385,3.947,1.485
				c0.018,0.02,0.064,0.081,0.101,0.13c0.124,0.178,0.237,0.362,0.341,0.552c0.023,0.042,0.043,0.077,0.06,0.107
				c0.004,0.019,0.01,0.044,0.022,0.084c0.018,0.058,0.079,0.351,0.114,0.49c0.002,0.147,0.016,0.421,0.014,0.402
				c0.005,0.066,0.01,0.111,0.015,0.145c-0.011,0.031-0.023,0.07-0.039,0.127c-0.054,0.201-0.106,0.401-0.163,0.601
				c-0.018,0.057-0.041,0.113-0.061,0.17c-0.01,0.018-0.026,0.049-0.049,0.097c-0.101,0.183-0.214,0.361-0.314,0.544
				c-0.031,0.057-0.051,0.098-0.066,0.131c-0.025,0.023-0.056,0.051-0.097,0.092c-0.146,0.146-0.29,0.295-0.437,0.44
				c-0.034,0.03-0.057,0.05-0.072,0.065c-0.039,0.026-0.076,0.054-0.115,0.079c-0.174,0.1-0.356,0.195-0.527,0.298
				c0.532-0.321-0.013-0.035-0.186,0.031c-0.018,0.007-0.032,0.012-0.048,0.018c-0.318,0.005-0.915-0.005-0.269,0.083
				c-1.628-0.221-3.269,0.392-3.746,2.127c-0.39,1.419,0.486,3.524,2.127,3.746c3.111,0.422,5.728-0.707,7.609-3.23
				c1.477-1.979,2.074-4.575,1.531-6.993c-1.074-4.78-6.83-6.925-11.17-5.45c-1.705,0.579-3.075,1.644-4.089,2.983
				c0.016-0.068,0.04-0.133,0.053-0.202c0.831-4.175-1.641-8.398-5.417-10.199c-3.291-1.569-6.906-1.576-10.256-0.202
				c-7.053,2.892-7.774,11.871-4.542,17.883c3.994,7.431,13.07,10.228,20.862,11.296c5.366,0.736,10.958,0.738,16.163-0.924
				c3.358-1.073,6.356-2.848,8.778-5.313c3.234-2.571,5.986-5.77,7.939-9.056c4.836-8.136,6.732-19.228,2.763-28.074
				C308.592,316.622,306.284,314.273,303.262,313.071z M269.148,360.295c-3.299-0.86-6.537-2.054-9.368-3.987
				c-5.159-3.521-8.549-10.237-6.156-16.414c1.103-2.847,3.612-5.088,6.677-5.512c2.936-0.406,6.06,0.458,8.035,2.742
				c1.074,1.242,1.833,3,1.645,4.669c-0.074,0.656-0.295,1.234-0.718,1.687c-0.503,0.538-0.886,0.691-1.481,0.877
				c-0.126,0.04-0.252,0.076-0.379,0.109c-0.045,0.006-0.239,0.039-0.356,0.041c-0.037,0.001-0.065,0.002-0.086,0.003
				c-0.162-0.05-0.374-0.121-0.336-0.087c-0.04-0.023-0.079-0.048-0.118-0.073c0,0,0-0.001,0-0.001
				c0.13,0.079,0.188,0.098-0.026-0.048c-0.003-0.002-0.005-0.004-0.007-0.005c-0.107-0.168-0.208-0.339-0.316-0.507
				c-0.025-0.1-0.087-0.305-0.106-0.365c0-0.057-0.001-0.133-0.002-0.2c0.009-0.064,0.017-0.129,0.017-0.157
				c0-0.007,0-0.011-0.001-0.017c0.001-0.002,0.001-0.003,0.002-0.004c0.097-0.222,0.17-0.388,0.224-0.51
				c0.087-0.147,0.173-0.29,0.28-0.43c1.28-1.675-0.879-4.537-2.851-3.708c-1.136,0.478-2.129,1.036-2.703,2.192
				c-0.483,0.971-0.73,2.056-0.676,3.143c0.106,2.163,1.138,4.204,2.993,5.375c2.993,1.89,6.585,0.79,8.677-1.665
				c-0.544,1.742-0.655,3.643-0.286,5.455c0.953,4.678,5.227,7.995,9.741,8.988c-0.251,0.003-0.503,0.01-0.753,0.007
				C276.823,361.848,272.91,361.276,269.148,360.295z"/>
			
				<path style="fill:#969666;stroke:#33353D;stroke-width:0.75;stroke-linecap:round;stroke-linejoin:round;stroke-miterlimit:10;" d="
				M252.563,301.073c-2.985,17.589,9.283,34.435,25.736,39.817c9.194,3.007,19.175,2.508,28.365-0.241
				c4.602-1.376,8.989-3.401,13.064-5.938c4.573-2.848,8.781-6.223,13.107-9.422c7.747-5.728,16.634-11.405,26.69-10.593
				c4.101,0.331,8.285,1.826,11.308,4.684c2.819,2.665,4.273,6.385,4.103,10.255c-0.145,3.296-1.744,6.655-4.662,8.153
				c-2.45,1.258-5.736,0.914-8.036-0.357c-1.266-0.7-2.055-1.471-2.687-2.585c-0.05-0.092-0.095-0.186-0.139-0.28
				c-0.003-0.008-0.005-0.014-0.008-0.022c-0.059-0.165-0.114-0.331-0.162-0.499c-0.049-0.171-0.087-0.344-0.129-0.517
				c-0.023-0.095-0.055-0.406-0.057-0.401c-0.06-0.821-0.01-1.118,0.241-1.94c0.163-0.533,0.604-1.253,1.012-1.569
				c0.21-0.163,0.408-0.241,0.57-0.278c0.176-0.04,0.341-0.099,0.518-0.138c0.019,0.006,0.034,0.015,0.041,0.029
				c0.049,0.003,0.09,0.006,0.127,0.008c0.045,0.01,0.099,0.021,0.168,0.035c0.029-0.001,0.123,0.027,0.2,0.051
				c0.241,0.149,0.64,0.428,0.521,0.303c0.138,0.128,0.273,0.262,0.408,0.393c0.023,0.022,0.107,0.107,0.179,0.178
				c-0.141-0.101,0.081,0.468,0.008,0.013c0.03,0.183,0.081,0.359,0.11,0.545c0.407,2.63,4.631,2.474,5.159,0
				c0.561-2.627-0.383-5.007-2.559-6.573c-1.844-1.328-4.435-1.871-6.633-1.201c-2.509,0.764-4.322,2.99-5.228,5.357
				c-1.502,3.927-0.267,8.354,2.665,11.255c0.426,0.422,0.885,0.796,1.358,1.148c-2.452,1.364-4.411,3.695-5.18,6.582
				c-1.801,6.762,2.519,13.259,8.588,16.014c6.606,2.999,14.482,2.086,20.811-1.197c6.586-3.416,11.458-9.523,14.368-16.253
				c2.967-6.862,4.176-14.742,2.255-22.058c-3.458-13.171-16.917-19.975-29.803-19.682c-13.31,0.303-25.18,7.943-34.559,17.038
				c-4.562,3.297-8.908,6.937-13.536,10.148c-8.391,5.822-18,9.499-28.302,9.481c-9.24-0.016-18.331-3.027-25.316-9.165
				c-6.273-5.512-10.873-13.279-11.569-21.706c-0.386-4.681,0.572-9.628,3.454-13.442c2.527-3.346,6.486-5.262,10.468-4.863
				c0.003,0.005,0.385,0.061,0.491,0.083c0.283,0.06,0.564,0.13,0.841,0.212c0.223,0.066,0.442,0.141,0.661,0.219
				c0.025,0.009,0.185,0.081,0.269,0.118c0.441,0.214,0.87,0.454,1.28,0.722c0.498,0.325,0.317,0.173,0.835,0.652
				c0.862,0.796,1.013,0.956,1.581,2.009c0.075,0.139,0.151,0.286,0.22,0.434c0.006,0.046,0.129,0.397,0.155,0.482
				c0.065,0.219,0.118,0.44,0.17,0.662c0.019,0.082,0.033,0.124,0.043,0.142c0.001,0.04,0.002,0.082,0.004,0.134
				c0.01,0.281,0.018,0.56,0.005,0.842c-0.005,0.098-0.051,0.35-0.068,0.452c-0.093,0.368-0.21,0.726-0.315,1.091
				c-0.025,0.089-0.045,0.155-0.06,0.207c-0.101,0.227-0.216,0.448-0.337,0.665c-0.11,0.197-0.227,0.389-0.351,0.578
				c-0.073,0.111-0.519,0.654-0.177,0.257c-0.777,0.903-0.843,0.959-1.911,1.545c-0.566,0.311-0.261,0.123-0.123,0.061
				c-0.374,0.155-0.62,0.257-0.74,0.308c-0.008,0.003-0.015,0.005-0.023,0.008c-0.207,0.069-0.414,0.133-0.626,0.187
				c-0.089,0.022-0.742,0.106-0.36,0.072c-1.46,0.131-2.592,1-2.815,2.485c-0.198,1.316,0.673,2.863,2.053,3.145
				c2.47,0.505,4.8,0.202,6.964-1.145c4.3-2.676,6.585-7.709,5.46-12.682c-1.063-4.701-5.085-8.343-9.572-9.751
				c-4.801-1.507-9.87,0.088-13.704,3.123C255.697,291.928,253.358,296.39,252.563,301.073z M346.848,313.994
				c-1.598,0.645-3.133,1.389-4.627,2.197c8.28-5.698,17.419-10.159,27.593-10.164c11.322-0.005,23.255,5.73,26.852,17.132
				c3.895,12.348-1.651,27.791-11.971,35.425c-5.397,3.993-12.414,5.922-19.01,4.199c-5.543-1.448-11.089-5.944-10.29-12.233
				c0.28-2.206,1.437-4.746,3.587-5.697c0.944-0.417,2.267-0.496,2.977-0.383c1.179,0.187,2.059,0.532,2.831,1.009
				c0.475,0.294,0.653,0.406,1.124,1.034c-0.276-0.368,0.251,0.633,0.276,0.583c0.05,0.186,0.146,0.538,0.149,0.449
				c0.018,0.2,0.016,0.406,0.005,0.606c0.009-0.269-0.09,0.467-0.101,0.51c-0.003,0.011-0.253,0.651-0.186,0.535
				c-0.309,0.648-0.463,0.825-0.866,1.228c-0.009,0.009-0.426,0.358-0.443,0.392c-0.197,0.131-0.402,0.248-0.608,0.366
				c-0.073,0.041-0.122,0.072-0.156,0.096c-0.042,0.003-0.102,0.01-0.187,0.025c-0.085,0.014-0.723,0.084-0.501,0.082
				c-0.148,0.008-0.296,0.02-0.444,0.017c0.104-0.012-0.499-0.127-0.558-0.146c-1.434-0.453-2.923,0.416-3.494,1.715
				c-0.528,1.203-0.125,3.128,1.212,3.698c1.758,0.75,3.524,1.092,5.398,0.486c3.235-1.047,5.934-4.004,6.518-7.385
				c0.449-2.598-0.284-5.069-1.877-6.973c2.432-0.742,4.653-2.167,6.271-4.317c5.089-6.761,2.932-17.05-3.435-22.173
				C365.466,310.337,355.309,310.58,346.848,313.994z"/>
		</g>
	</g>
</g>
</svg>
