<?xml version="1.0" encoding="utf-8"?>
<!-- Generator: Adobe Illustrator 27.5.0, SVG Export Plug-In . SVG Version: 6.00 Build 0)  -->
<svg version="1.1" xmlns="http://www.w3.org/2000/svg" xmlns:xlink="http://www.w3.org/1999/xlink" x="0px" y="0px"
	 viewBox="0 0 750 500" style="enable-background:new 0 0 750 500;" xml:space="preserve">
<g id="BACKGROUND">
	<rect style="fill:#090A0A;" width="750" height="500"/>
</g>
<g id="OBJECTS">
	<g>
		<g>
			<polyline style="fill:none;stroke:#EDBD79;stroke-width:0.5;stroke-miterlimit:10;" points="127.536,182.982 206.194,182.982 
				206.194,178.792 201.564,178.792 201.564,180.887 204.568,180.887 			"/>
			<polyline style="fill:none;stroke:#EDBD79;stroke-width:0.5;stroke-miterlimit:10;" points="127.536,182.982 48.877,182.982 
				48.877,178.792 53.507,178.792 53.507,180.887 50.503,180.887 			"/>
		</g>
		<g>
			<g>
				<polyline style="fill:none;stroke:#EDBD79;stroke-width:0.5;stroke-miterlimit:10;" points="227.654,251.124 227.654,207.558 
					231.844,207.558 231.844,212.188 229.749,212.188 229.749,209.184 				"/>
			</g>
			<g>
				<polyline style="fill:none;stroke:#EDBD79;stroke-width:0.5;stroke-miterlimit:10;" points="227.654,251.124 227.654,294.69 
					231.844,294.69 231.844,290.06 229.749,290.06 229.749,293.064 				"/>
			</g>
		</g>
		<g>
			<g>
				<polyline style="fill:none;stroke:#EDBD79;stroke-width:0.5;stroke-miterlimit:10;" points="27.072,251.124 27.072,207.558 
					22.881,207.558 22.881,212.188 24.976,212.188 24.976,209.184 				"/>
			</g>
			<g>
				<polyline style="fill:none;stroke:#EDBD79;stroke-width:0.5;stroke-miterlimit:10;" points="27.072,251.124 27.072,294.69 
					22.881,294.69 22.881,290.06 24.976,290.06 24.976,293.064 				"/>
			</g>
		</g>
		<g>
			<polyline style="fill:none;stroke:#EDBD79;stroke-width:0.5;stroke-miterlimit:10;" points="127.536,319.266 48.877,319.266 
				48.877,323.456 53.507,323.456 53.507,321.361 50.503,321.361 			"/>
			<polyline style="fill:none;stroke:#EDBD79;stroke-width:0.5;stroke-miterlimit:10;" points="127.536,319.266 206.194,319.266 
				206.194,323.456 201.564,323.456 201.564,321.361 204.568,321.361 			"/>
		</g>
		<rect x="30.848" y="186.667" style="fill:none;stroke:#EDBD79;stroke-miterlimit:10;" width="193.372" height="128.915"/>
		<path style="fill:none;stroke:#EDBD79;stroke-miterlimit:10;" d="M205.882,315.581H49.185
			c-7.161-7.161-11.176-11.176-18.337-18.337v-92.24c7.161-7.161,11.176-11.176,18.337-18.337h156.697
			c7.161,7.161,11.176,11.176,18.337,18.337v92.24C217.059,304.405,213.043,308.42,205.882,315.581z"/>
		<g>
			<line style="fill:none;stroke:#EDBD79;stroke-miterlimit:10;" x1="224.22" y1="186.667" x2="212.06" y2="192.844"/>
			<line style="fill:none;stroke:#EDBD79;stroke-miterlimit:10;" x1="215.051" y1="195.835" x2="224.22" y2="186.667"/>
			<line style="fill:none;stroke:#EDBD79;stroke-miterlimit:10;" x1="224.22" y1="186.667" x2="208.971" y2="189.755"/>
			<line style="fill:none;stroke:#EDBD79;stroke-miterlimit:10;" x1="224.22" y1="186.667" x2="218.14" y2="198.924"/>
			<line style="fill:none;stroke:#EDBD79;stroke-miterlimit:10;" x1="224.22" y1="186.667" x2="221.18" y2="201.964"/>
		</g>
		<g>
			<line style="fill:none;stroke:#EDBD79;stroke-miterlimit:10;" x1="30.848" y1="186.667" x2="43.008" y2="192.844"/>
			<line style="fill:none;stroke:#EDBD79;stroke-miterlimit:10;" x1="40.017" y1="195.835" x2="30.848" y2="186.667"/>
			<line style="fill:none;stroke:#EDBD79;stroke-miterlimit:10;" x1="30.848" y1="186.667" x2="46.097" y2="189.755"/>
			<line style="fill:none;stroke:#EDBD79;stroke-miterlimit:10;" x1="30.848" y1="186.667" x2="36.928" y2="198.924"/>
			<line style="fill:none;stroke:#EDBD79;stroke-miterlimit:10;" x1="30.848" y1="186.667" x2="33.888" y2="201.964"/>
		</g>
		<g>
			<line style="fill:none;stroke:#EDBD79;stroke-miterlimit:10;" x1="30.848" y1="315.581" x2="43.008" y2="309.404"/>
			<line style="fill:none;stroke:#EDBD79;stroke-miterlimit:10;" x1="40.017" y1="306.412" x2="30.848" y2="315.581"/>
			<line style="fill:none;stroke:#EDBD79;stroke-miterlimit:10;" x1="30.848" y1="315.581" x2="46.097" y2="312.492"/>
			<line style="fill:none;stroke:#EDBD79;stroke-miterlimit:10;" x1="30.848" y1="315.581" x2="36.928" y2="303.323"/>
			<line style="fill:none;stroke:#EDBD79;stroke-miterlimit:10;" x1="30.848" y1="315.581" x2="33.888" y2="300.284"/>
		</g>
		<g>
			<line style="fill:none;stroke:#EDBD79;stroke-miterlimit:10;" x1="224.22" y1="315.581" x2="212.06" y2="309.404"/>
			<line style="fill:none;stroke:#EDBD79;stroke-miterlimit:10;" x1="215.051" y1="306.412" x2="224.22" y2="315.581"/>
			<line style="fill:none;stroke:#EDBD79;stroke-miterlimit:10;" x1="224.22" y1="315.581" x2="208.971" y2="312.492"/>
			<line style="fill:none;stroke:#EDBD79;stroke-miterlimit:10;" x1="224.22" y1="315.581" x2="218.14" y2="303.323"/>
			<line style="fill:none;stroke:#EDBD79;stroke-miterlimit:10;" x1="224.22" y1="315.581" x2="221.18" y2="300.284"/>
		</g>
		<polygon style="fill:#090A0A;stroke:#EDBD79;stroke-width:0.5;stroke-miterlimit:10;" points="221.219,259.195 229.291,251.124 
			221.219,243.052 221.219,206.247 204.639,189.667 135.605,189.667 127.534,181.595 119.462,189.667 50.428,189.667 
			33.848,206.247 33.848,243.052 25.776,251.124 33.848,259.195 33.848,296.002 50.428,312.581 119.462,312.581 127.534,320.652 
			135.605,312.581 204.639,312.581 221.219,296.002 		"/>
		<polyline style="fill:none;stroke:#EDBD79;stroke-width:0.5;stroke-miterlimit:10;" points="36.848,299.002 36.848,257.953 
			25.776,251.124 36.848,244.295 36.848,203.247 		"/>
		<polyline style="fill:none;stroke:#EDBD79;stroke-width:0.5;stroke-miterlimit:10;" points="207.639,309.581 134.363,309.581 
			127.534,320.652 120.705,309.581 47.437,309.581 		"/>
		<polyline style="fill:none;stroke:#EDBD79;stroke-width:0.5;stroke-miterlimit:10;" points="218.219,203.247 218.219,244.295 
			229.291,251.124 218.219,257.953 218.219,299.001 		"/>
		<polyline style="fill:none;stroke:#EDBD79;stroke-width:0.5;stroke-miterlimit:10;" points="47.428,192.667 120.705,192.667 
			127.534,181.595 134.363,192.667 207.639,192.667 		"/>
	</g>
	<g>
		<g>
			<path style="fill:none;stroke:#EDBD79;stroke-miterlimit:10;" d="M30.678,72.088V35.731c8.03,0,14.54-6.51,14.54-14.54h52.207"/>
			<path style="fill:none;stroke:#EDBD79;stroke-miterlimit:10;" d="M157.301,21.191h52.207c0,8.03,6.51,14.54,14.54,14.54v38.129"
				/>
			<path style="fill:none;stroke:#EDBD79;stroke-width:0.5;stroke-miterlimit:10;" d="M34.675,59.653V39.299
				c7.017-1.549,12.554-7.087,14.104-14.104h57.941"/>
			<path style="fill:none;stroke:#EDBD79;stroke-width:0.5;stroke-miterlimit:10;" d="M148.004,25.195h57.939
				c1.549,7.017,7.087,12.554,14.104,14.104v20.354"/>
			<path style="fill:none;stroke:#EDBD79;stroke-miterlimit:10;" d="M224.048,21.191v10.208c-5.637,0-10.208-4.57-10.208-10.208
				H224.048z"/>
			<path style="fill:none;stroke:#EDBD79;stroke-miterlimit:10;" d="M30.678,21.191v10.208c5.638,0,10.208-4.57,10.208-10.208
				H30.678z"/>
			
				<line style="fill:none;stroke:#EDBD79;stroke-width:0.5;stroke-miterlimit:10;" x1="48.779" y1="25.195" x2="45.218" y2="21.191"/>
			
				<line style="fill:none;stroke:#EDBD79;stroke-width:0.5;stroke-miterlimit:10;" x1="34.675" y1="39.299" x2="30.678" y2="35.731"/>
			
				<line style="fill:none;stroke:#EDBD79;stroke-width:0.5;stroke-miterlimit:10;" x1="205.943" y1="25.195" x2="209.508" y2="21.191"/>
			
				<line style="fill:none;stroke:#EDBD79;stroke-width:0.5;stroke-miterlimit:10;" x1="220.047" y1="39.299" x2="224.048" y2="35.731"/>
			
				<rect x="123.71" y="21.546" transform="matrix(0.7071 0.7071 -0.7071 0.7071 55.1194 -82.6778)" style="fill:#090A0A;stroke:#EDBD79;stroke-width:0.5;stroke-miterlimit:10;" width="7.299" height="7.299"/>
			
				<rect x="33.324" y="59.501" transform="matrix(0.7071 0.7071 -0.7071 0.7071 53.185 -6.6958)" style="fill:#090A0A;stroke:#EDBD79;stroke-width:0.5;stroke-miterlimit:10;" width="2.702" height="2.702"/>
			
				<rect x="33.324" y="61.412" transform="matrix(0.7071 0.7071 -0.7071 0.7071 54.5362 -6.1362)" style="fill:#090A0A;stroke:#EDBD79;stroke-width:0.5;stroke-miterlimit:10;" width="2.702" height="2.702"/>
			
				<rect x="218.696" y="59.501" transform="matrix(0.7071 0.7071 -0.7071 0.7071 107.4791 -137.7733)" style="fill:#090A0A;stroke:#EDBD79;stroke-width:0.5;stroke-miterlimit:10;" width="2.702" height="2.702"/>
			
				<rect x="218.696" y="61.412" transform="matrix(0.7071 0.7071 -0.7071 0.7071 108.8303 -137.2137)" style="fill:#090A0A;stroke:#EDBD79;stroke-width:0.5;stroke-miterlimit:10;" width="2.702" height="2.702"/>
			
				<rect x="128.871" y="21.546" transform="matrix(0.7071 0.7071 -0.7071 0.7071 56.6309 -86.3272)" style="fill:none;stroke:#EDBD79;stroke-width:0.5;stroke-miterlimit:10;" width="7.299" height="7.299"/>
			
				<rect x="118.554" y="21.546" transform="matrix(0.7071 0.7071 -0.7071 0.7071 53.609 -79.0315)" style="fill:none;stroke:#EDBD79;stroke-width:0.5;stroke-miterlimit:10;" width="7.299" height="7.299"/>
			
				<rect x="113.393" y="21.546" transform="matrix(0.7071 0.7071 -0.7071 0.7071 52.0975 -75.3822)" style="fill:none;stroke:#EDBD79;stroke-width:0.5;stroke-miterlimit:10;" width="7.299" height="7.299"/>
			
				<rect x="108.232" y="21.546" transform="matrix(0.7071 0.7071 -0.7071 0.7071 50.585 -71.7322)" style="fill:none;stroke:#EDBD79;stroke-width:0.5;stroke-miterlimit:10;" width="7.299" height="7.299"/>
			
				<rect x="134.032" y="21.546" transform="matrix(0.7071 0.7071 -0.7071 0.7071 58.1423 -89.9764)" style="fill:none;stroke:#EDBD79;stroke-width:0.5;stroke-miterlimit:10;" width="7.299" height="7.299"/>
			
				<rect x="139.193" y="21.546" transform="matrix(0.7071 0.7071 -0.7071 0.7071 59.6547 -93.6264)" style="fill:none;stroke:#EDBD79;stroke-width:0.5;stroke-miterlimit:10;" width="7.299" height="7.299"/>
			<polygon style="fill:#090A0A;stroke:#EDBD79;stroke-width:0.5;stroke-miterlimit:10;" points="156.282,22.987 150.75,21.191 
				156.282,19.394 158.079,21.191 			"/>
			<polygon style="fill:#090A0A;stroke:#EDBD79;stroke-width:0.5;stroke-miterlimit:10;" points="98.625,22.987 104.156,21.191 
				98.625,19.394 96.828,21.191 			"/>
			<polygon style="fill:#090A0A;stroke:#EDBD79;stroke-width:0.5;stroke-miterlimit:10;" points="55.191,29.255 51.8,30.357 
				55.191,31.458 56.292,30.357 			"/>
			<polygon style="fill:#090A0A;stroke:#EDBD79;stroke-width:0.5;stroke-miterlimit:10;" points="199.823,29.255 203.214,30.357 
				199.823,31.458 198.722,30.357 			"/>
			<polygon style="fill:#090A0A;stroke:#EDBD79;stroke-width:0.5;stroke-miterlimit:10;" points="28.881,73.268 30.678,78.8 
				32.474,73.268 30.678,71.471 			"/>
			<polygon style="fill:#090A0A;stroke:#EDBD79;stroke-width:0.5;stroke-miterlimit:10;" points="222.251,73.268 224.048,78.8 
				225.844,73.268 224.048,71.471 			"/>
			
				<line style="fill:none;stroke:#EDBD79;stroke-width:0.5;stroke-miterlimit:10;" x1="224.048" y1="21.191" x2="216.83" y2="28.408"/>
			
				<line style="fill:none;stroke:#EDBD79;stroke-width:0.5;stroke-miterlimit:10;" x1="224.048" y1="21.191" x2="214.656" y2="25.195"/>
			
				<line style="fill:none;stroke:#EDBD79;stroke-width:0.5;stroke-miterlimit:10;" x1="224.048" y1="21.191" x2="220.047" y2="30.584"/>
			
				<line style="fill:none;stroke:#EDBD79;stroke-width:0.5;stroke-miterlimit:10;" x1="30.678" y1="21.191" x2="37.893" y2="28.406"/>
			
				<line style="fill:none;stroke:#EDBD79;stroke-width:0.5;stroke-miterlimit:10;" x1="30.678" y1="21.191" x2="40.151" y2="24.996"/>
			
				<line style="fill:none;stroke:#EDBD79;stroke-width:0.5;stroke-miterlimit:10;" x1="30.678" y1="21.191" x2="34.675" y2="30.584"/>
			
				<line style="fill:none;stroke:#EDBD79;stroke-width:0.5;stroke-miterlimit:10;" x1="111.881" y1="30.357" x2="55.698" y2="30.357"/>
			
				<line style="fill:none;stroke:#EDBD79;stroke-width:0.5;stroke-miterlimit:10;" x1="199.026" y1="30.357" x2="142.843" y2="30.357"/>
		</g>
		<g>
			<path style="fill:none;stroke:#EDBD79;stroke-miterlimit:10;" d="M224.048,99.024v36.358c-8.03,0-14.54,6.51-14.54,14.54h-52.207
				"/>
			<path style="fill:none;stroke:#EDBD79;stroke-miterlimit:10;" d="M97.425,149.922H45.218c0-8.03-6.51-14.54-14.54-14.54V97.253"
				/>
			<path style="fill:none;stroke:#EDBD79;stroke-width:0.5;stroke-miterlimit:10;" d="M220.051,111.46v20.354
				c-7.017,1.549-12.554,7.087-14.104,14.104h-57.941"/>
			<path style="fill:none;stroke:#EDBD79;stroke-width:0.5;stroke-miterlimit:10;" d="M106.722,145.917H48.782
				c-1.549-7.017-7.087-12.554-14.103-14.104V111.46"/>
			<path style="fill:none;stroke:#EDBD79;stroke-miterlimit:10;" d="M30.678,149.922v-10.208c5.637,0,10.208,4.57,10.208,10.208
				H30.678z"/>
			<path style="fill:none;stroke:#EDBD79;stroke-miterlimit:10;" d="M224.048,149.922v-10.208c-5.638,0-10.208,4.57-10.208,10.208
				H224.048z"/>
			
				<line style="fill:none;stroke:#EDBD79;stroke-width:0.5;stroke-miterlimit:10;" x1="205.947" y1="145.917" x2="209.508" y2="149.922"/>
			
				<line style="fill:none;stroke:#EDBD79;stroke-width:0.5;stroke-miterlimit:10;" x1="220.051" y1="131.814" x2="224.048" y2="135.382"/>
			
				<line style="fill:none;stroke:#EDBD79;stroke-width:0.5;stroke-miterlimit:10;" x1="48.782" y1="145.917" x2="45.218" y2="149.922"/>
			
				<line style="fill:none;stroke:#EDBD79;stroke-width:0.5;stroke-miterlimit:10;" x1="34.679" y1="131.814" x2="30.678" y2="135.382"/>
			
				<rect x="123.717" y="142.268" transform="matrix(-0.7071 -0.7071 0.7071 -0.7071 114.2488 339.1578)" style="fill:#090A0A;stroke:#EDBD79;stroke-width:0.5;stroke-miterlimit:10;" width="7.299" height="7.299"/>
			
				<rect x="218.699" y="108.91" transform="matrix(-0.7071 -0.7071 0.7071 -0.7071 297.6836 343.826)" style="fill:#090A0A;stroke:#EDBD79;stroke-width:0.5;stroke-miterlimit:10;" width="2.702" height="2.702"/>
			
				<rect x="218.699" y="106.999" transform="matrix(-0.7071 -0.7071 0.7071 -0.7071 299.0348 340.5641)" style="fill:#090A0A;stroke:#EDBD79;stroke-width:0.5;stroke-miterlimit:10;" width="2.702" height="2.702"/>
			
				<rect x="33.328" y="108.91" transform="matrix(-0.7071 -0.7071 0.7071 -0.7071 -18.7655 212.7485)" style="fill:#090A0A;stroke:#EDBD79;stroke-width:0.5;stroke-miterlimit:10;" width="2.702" height="2.702"/>
			
				<rect x="33.328" y="106.999" transform="matrix(-0.7071 -0.7071 0.7071 -0.7071 -17.4144 209.4865)" style="fill:#090A0A;stroke:#EDBD79;stroke-width:0.5;stroke-miterlimit:10;" width="2.702" height="2.702"/>
			
				<rect x="118.556" y="142.268" transform="matrix(-0.7071 -0.7071 0.7071 -0.7071 105.4385 335.5085)" style="fill:none;stroke:#EDBD79;stroke-width:0.5;stroke-miterlimit:10;" width="7.299" height="7.299"/>
			
				<rect x="128.873" y="142.268" transform="matrix(-0.7071 -0.7071 0.7071 -0.7071 123.0525 342.8042)" style="fill:none;stroke:#EDBD79;stroke-width:0.5;stroke-miterlimit:10;" width="7.299" height="7.299"/>
			
				<rect x="134.034" y="142.268" transform="matrix(-0.7071 -0.7071 0.7071 -0.7071 131.8616 346.4535)" style="fill:none;stroke:#EDBD79;stroke-width:0.5;stroke-miterlimit:10;" width="7.299" height="7.299"/>
			
				<rect x="139.195" y="142.268" transform="matrix(-0.7071 -0.7071 0.7071 -0.7071 140.672 350.1029)" style="fill:none;stroke:#EDBD79;stroke-width:0.5;stroke-miterlimit:10;" width="7.299" height="7.299"/>
			
				<rect x="113.395" y="142.268" transform="matrix(-0.7071 -0.7071 0.7071 -0.7071 96.6279 331.8591)" style="fill:none;stroke:#EDBD79;stroke-width:0.5;stroke-miterlimit:10;" width="7.299" height="7.299"/>
			
				<rect x="108.233" y="142.268" transform="matrix(-0.7071 -0.7071 0.7071 -0.7071 87.8171 328.2096)" style="fill:none;stroke:#EDBD79;stroke-width:0.5;stroke-miterlimit:10;" width="7.299" height="7.299"/>
			<polygon style="fill:#090A0A;stroke:#EDBD79;stroke-width:0.5;stroke-miterlimit:10;" points="98.444,148.126 103.976,149.922 
				98.444,151.719 96.647,149.922 			"/>
			<polygon style="fill:#090A0A;stroke:#EDBD79;stroke-width:0.5;stroke-miterlimit:10;" points="156.101,148.126 150.569,149.922 
				156.101,151.719 157.898,149.922 			"/>
			<polygon style="fill:#090A0A;stroke:#EDBD79;stroke-width:0.5;stroke-miterlimit:10;" points="199.535,141.857 202.926,140.756 
				199.535,139.655 198.434,140.756 			"/>
			<polygon style="fill:#090A0A;stroke:#EDBD79;stroke-width:0.5;stroke-miterlimit:10;" points="54.903,141.857 51.512,140.756 
				54.903,139.655 56.004,140.756 			"/>
			<polygon style="fill:#090A0A;stroke:#EDBD79;stroke-width:0.5;stroke-miterlimit:10;" points="225.844,97.845 224.048,92.313 
				222.251,97.845 224.048,99.641 			"/>
			<polygon style="fill:#090A0A;stroke:#EDBD79;stroke-width:0.5;stroke-miterlimit:10;" points="32.474,97.845 30.678,92.313 
				28.881,97.845 30.678,99.641 			"/>
			
				<line style="fill:none;stroke:#EDBD79;stroke-width:0.5;stroke-miterlimit:10;" x1="30.678" y1="149.922" x2="37.895" y2="142.705"/>
			
				<line style="fill:none;stroke:#EDBD79;stroke-width:0.5;stroke-miterlimit:10;" x1="30.678" y1="149.922" x2="40.069" y2="145.917"/>
			
				<line style="fill:none;stroke:#EDBD79;stroke-width:0.5;stroke-miterlimit:10;" x1="30.678" y1="149.922" x2="34.679" y2="140.529"/>
			
				<line style="fill:none;stroke:#EDBD79;stroke-width:0.5;stroke-miterlimit:10;" x1="224.048" y1="149.922" x2="216.833" y2="142.707"/>
			
				<line style="fill:none;stroke:#EDBD79;stroke-width:0.5;stroke-miterlimit:10;" x1="224.048" y1="149.922" x2="214.575" y2="146.117"/>
			
				<line style="fill:none;stroke:#EDBD79;stroke-width:0.5;stroke-miterlimit:10;" x1="224.048" y1="149.922" x2="220.051" y2="140.528"/>
			
				<line style="fill:none;stroke:#EDBD79;stroke-width:0.5;stroke-miterlimit:10;" x1="142.845" y1="140.756" x2="199.028" y2="140.756"/>
			
				<line style="fill:none;stroke:#EDBD79;stroke-width:0.5;stroke-miterlimit:10;" x1="55.7" y1="140.756" x2="111.883" y2="140.756"/>
		</g>
		
			<rect x="28.76" y="83.639" transform="matrix(0.7071 0.7071 -0.7071 0.7071 69.4828 3.3664)" style="fill:#090A0A;stroke:#EDBD79;stroke-width:0.5;stroke-miterlimit:10;" width="3.835" height="3.835"/>
		
			<rect x="32.189" y="84.356" transform="matrix(0.7071 0.7071 -0.7071 0.7071 70.2772 1.4487)" style="fill:none;stroke:#EDBD79;stroke-width:0.5;stroke-miterlimit:10;" width="2.401" height="2.401"/>
		
			<rect x="222.13" y="83.639" transform="matrix(0.7071 0.7071 -0.7071 0.7071 126.1196 -133.3669)" style="fill:#090A0A;stroke:#EDBD79;stroke-width:0.5;stroke-miterlimit:10;" width="3.835" height="3.835"/>
		
			<rect x="220.184" y="84.356" transform="matrix(0.7071 0.7071 -0.7071 0.7071 125.3396 -131.4837)" style="fill:none;stroke:#EDBD79;stroke-width:0.5;stroke-miterlimit:10;" width="2.401" height="2.401"/>
	</g>
	<g>
		<polyline style="fill:none;stroke:#EDBD79;stroke-width:0.5;stroke-miterlimit:10;" points="46.209,352.565 80.031,352.565 
			86.597,359.132 167.117,359.132 173.703,352.546 208.491,352.546 		"/>
		<polyline style="fill:none;stroke:#EDBD79;stroke-width:0.5;stroke-miterlimit:10;" points="215.049,359.132 215.049,383.088 
			211.04,387.097 211.04,414.589 		"/>
		<polyline style="fill:none;stroke:#EDBD79;stroke-width:0.5;stroke-miterlimit:10;" points="39.677,359.132 39.677,383.088 
			43.686,387.097 43.686,414.589 		"/>
		<polyline style="fill:#090A0A;stroke:#EDBD79;stroke-width:0.5;stroke-miterlimit:10;" points="118.378,355.088 126.466,363.176 
			134.554,355.088 		"/>
		<polyline style="fill:none;stroke:#EDBD79;stroke-width:0.5;stroke-miterlimit:10;" points="118.432,359.282 126.466,367.316 
			134.5,359.282 		"/>
		<rect x="30.677" y="350.132" style="fill:none;stroke:#EDBD79;stroke-miterlimit:10;" width="9" height="9"/>
		<rect x="215.049" y="350.132" style="fill:none;stroke:#EDBD79;stroke-miterlimit:10;" width="9" height="9"/>
		<path style="fill:none;stroke:#EDBD79;stroke-miterlimit:10;" d="M129.554,355.132h79.04c0,5.774,4.681,10.454,10.454,10.454
			v49.003"/>
		<path style="fill:none;stroke:#EDBD79;stroke-miterlimit:10;" d="M35.677,414.589v-49.003c5.774,0,10.454-4.681,10.454-10.454
			h77.247"/>
		<g>
			<polyline style="fill:none;stroke:#EDBD79;stroke-miterlimit:10;" points="39.677,350.132 68.514,350.132 73.572,355.19 			"/>
			<polyline style="fill:none;stroke:#EDBD79;stroke-miterlimit:10;" points="30.677,359.132 30.677,386.71 35.716,391.749 			"/>
		</g>
		<g>
			<polyline style="fill:none;stroke:#EDBD79;stroke-miterlimit:10;" points="215.049,350.132 186.212,350.132 181.287,355.056 			
				"/>
			<polyline style="fill:none;stroke:#EDBD79;stroke-miterlimit:10;" points="224.049,359.132 224.049,386.71 219.02,391.739 			"/>
		</g>
		<polyline style="fill:none;stroke:#EDBD79;stroke-miterlimit:10;" points="86.597,355.176 91.641,350.132 118.378,350.132 
			126.466,358.22 134.554,350.132 162.188,350.132 167.117,355.061 		"/>
		<rect x="30.677" y="350.132" style="fill:none;stroke:#EDBD79;stroke-miterlimit:10;" width="5" height="5"/>
		<rect x="219.049" y="350.132" style="fill:none;stroke:#EDBD79;stroke-miterlimit:10;" width="5" height="5"/>
		<polyline style="fill:none;stroke:#EDBD79;stroke-miterlimit:10;" points="35.677,397.658 30.567,402.767 30.567,414.589 		"/>
		<polyline style="fill:none;stroke:#EDBD79;stroke-miterlimit:10;" points="219.049,397.658 224.158,402.767 224.158,414.589 		"/>
		<polyline style="fill:none;stroke:#EDBD79;stroke-width:0.5;stroke-miterlimit:10;" points="208.516,476.613 174.695,476.613 
			168.128,470.046 87.609,470.046 81.023,476.632 46.235,476.632 		"/>
		<polyline style="fill:none;stroke:#EDBD79;stroke-width:0.5;stroke-miterlimit:10;" points="39.677,470.046 39.677,446.09 
			43.686,442.081 43.686,414.589 		"/>
		<polyline style="fill:none;stroke:#EDBD79;stroke-width:0.5;stroke-miterlimit:10;" points="215.049,470.046 215.049,446.09 
			211.04,442.081 211.04,414.589 		"/>
		<polyline style="fill:#090A0A;stroke:#EDBD79;stroke-width:0.5;stroke-miterlimit:10;" points="136.347,474.09 128.259,466.002 
			120.172,474.09 		"/>
		<polyline style="fill:none;stroke:#EDBD79;stroke-width:0.5;stroke-miterlimit:10;" points="136.294,469.896 128.259,461.862 
			120.225,469.896 		"/>
		
			<rect x="215.049" y="470.046" transform="matrix(-1 -1.224647e-16 1.224647e-16 -1 439.0972 949.092)" style="fill:none;stroke:#EDBD79;stroke-miterlimit:10;" width="9" height="9"/>
		
			<rect x="30.677" y="470.046" transform="matrix(-1 -1.224647e-16 1.224647e-16 -1 70.354 949.092)" style="fill:none;stroke:#EDBD79;stroke-miterlimit:10;" width="9" height="9"/>
		<path style="fill:none;stroke:#EDBD79;stroke-miterlimit:10;" d="M125.172,474.046h-79.04c0-5.774-4.681-10.454-10.454-10.454
			v-49.003"/>
		<path style="fill:none;stroke:#EDBD79;stroke-miterlimit:10;" d="M219.049,414.589v49.003c-5.774,0-10.454,4.68-10.454,10.454
			h-77.247"/>
		<g>
			<polyline style="fill:none;stroke:#EDBD79;stroke-miterlimit:10;" points="215.049,479.046 186.211,479.046 181.154,473.988 			
				"/>
			<polyline style="fill:none;stroke:#EDBD79;stroke-miterlimit:10;" points="224.049,470.046 224.049,442.468 219.01,437.429 			
				"/>
		</g>
		<g>
			<polyline style="fill:none;stroke:#EDBD79;stroke-miterlimit:10;" points="39.677,479.046 68.514,479.046 73.438,474.122 			"/>
			<polyline style="fill:none;stroke:#EDBD79;stroke-miterlimit:10;" points="30.677,470.046 30.677,442.468 35.706,437.439 			"/>
		</g>
		<polyline style="fill:none;stroke:#EDBD79;stroke-miterlimit:10;" points="168.128,474.002 163.085,479.046 136.347,479.046 
			128.259,470.958 120.172,479.046 92.538,479.046 87.609,474.117 		"/>
		
			<rect x="219.049" y="474.046" transform="matrix(-1 -1.224647e-16 1.224647e-16 -1 443.0972 953.092)" style="fill:none;stroke:#EDBD79;stroke-miterlimit:10;" width="5" height="5"/>
		
			<rect x="30.677" y="474.046" transform="matrix(-1 -1.224647e-16 1.224647e-16 -1 66.354 953.092)" style="fill:none;stroke:#EDBD79;stroke-miterlimit:10;" width="5" height="5"/>
		<polyline style="fill:none;stroke:#EDBD79;stroke-miterlimit:10;" points="219.049,431.52 224.158,426.411 224.158,414.589 		"/>
		<polyline style="fill:none;stroke:#EDBD79;stroke-miterlimit:10;" points="35.677,431.52 30.567,426.411 30.567,414.589 		"/>
		
			<line style="fill:none;stroke:#EDBD79;stroke-width:0.5;stroke-miterlimit:10;" x1="39.677" y1="391.749" x2="39.677" y2="437.439"/>
		
			<line style="fill:none;stroke:#EDBD79;stroke-width:0.5;stroke-miterlimit:10;" x1="215.049" y1="391.749" x2="215.049" y2="437.439"/>
		<g>
			<polyline style="fill:none;stroke:#EDBD79;stroke-width:0.5;stroke-miterlimit:10;" points="174.29,359.282 205.004,359.282 
				211.04,367.316 211.04,380.49 			"/>
			<polyline style="fill:none;stroke:#EDBD79;stroke-width:0.5;stroke-miterlimit:10;" points="80.424,359.282 49.71,359.282 
				43.675,367.316 43.675,380.49 			"/>
		</g>
		<g>
			<polyline style="fill:none;stroke:#EDBD79;stroke-width:0.5;stroke-miterlimit:10;" points="80.424,469.963 49.71,469.963 
				43.675,461.929 43.675,448.755 			"/>
			<polyline style="fill:none;stroke:#EDBD79;stroke-width:0.5;stroke-miterlimit:10;" points="174.29,469.963 205.004,469.963 
				211.04,461.929 211.04,448.755 			"/>
		</g>
	</g>
	<g>
		<g>
			<path style="fill:none;stroke:#EDBD79;stroke-miterlimit:10;" d="M696.605,27.191c2.04,7.03,7.59,12.58,14.62,14.62v43.835"/>
			<path style="fill:none;stroke:#EDBD79;stroke-miterlimit:10;" d="M529.855,85.646V41.801c7.03-2.04,12.58-7.58,14.61-14.61"/>
			<polyline style="fill:none;stroke:#EDBD79;stroke-miterlimit:10;" points="529.855,21.191 529.855,27.191 529.855,41.801 			"/>
			<polyline style="fill:none;stroke:#EDBD79;stroke-miterlimit:10;" points="711.225,41.811 711.225,27.191 711.225,21.191 			"/>
			<polyline style="fill:none;stroke:#EDBD79;stroke-miterlimit:10;" points="717.225,27.191 711.225,27.191 696.605,27.191 			"/>
			<polyline style="fill:none;stroke:#EDBD79;stroke-miterlimit:10;" points="544.465,27.191 529.855,27.191 523.855,27.191 			"/>
			<path style="fill:none;stroke:#EDBD79;stroke-miterlimit:10;" d="M529.855,41.801c-0.019,0.006-0.038,0.011-0.057,0.017
				c-3.477,1.014-5.943,4.09-5.943,7.712v17.399l3.032,3.032v15.686"/>
			<path style="fill:none;stroke:#EDBD79;stroke-miterlimit:10;" d="M711.225,41.811c0.019,0.006,0.038,0.011,0.057,0.016
				c3.475,0.996,5.943,4.066,5.943,7.681v17.42h0l-3.032,3.032v15.686"/>
			<line style="fill:none;stroke:#EDBD79;stroke-miterlimit:10;" x1="715.885" y1="22.531" x2="702.059" y2="36.357"/>
			<line style="fill:none;stroke:#EDBD79;stroke-miterlimit:10;" x1="525.26" y1="22.531" x2="539.086" y2="36.357"/>
			<line style="fill:none;stroke:#EDBD79;stroke-miterlimit:10;" x1="529.855" y1="27.191" x2="542.413" y2="31.98"/>
			<line style="fill:none;stroke:#EDBD79;stroke-miterlimit:10;" x1="529.855" y1="27.191" x2="534.628" y2="39.755"/>
			<line style="fill:none;stroke:#EDBD79;stroke-miterlimit:10;" x1="711.225" y1="27.191" x2="698.603" y2="31.881"/>
			<line style="fill:none;stroke:#EDBD79;stroke-miterlimit:10;" x1="711.225" y1="27.191" x2="706.306" y2="39.679"/>
			<path style="fill:none;stroke:#EDBD79;stroke-miterlimit:10;" d="M611.521,27.191h-67.056c0.56-1.9,0.86-3.92,0.86-6h59.932"/>
			<path style="fill:none;stroke:#EDBD79;stroke-miterlimit:10;" d="M636.241,21.191h59.514c0,2.08,0.3,4.1,0.85,6h-66.72"/>
			
				<rect x="625.145" y="16.451" transform="matrix(0.7071 0.7071 -0.7071 0.7071 199.4771 -439.1931)" style="fill:#090A0A;stroke:#EDBD79;stroke-miterlimit:10;" width="9.48" height="9.48"/>
			
				<rect x="606.781" y="16.451" transform="matrix(0.7071 0.7071 -0.7071 0.7071 194.094 -426.2036)" style="fill:#090A0A;stroke:#EDBD79;stroke-miterlimit:10;" width="9.48" height="9.48"/>
			
				<rect x="613.978" y="14.602" transform="matrix(0.7071 0.7071 -0.7071 0.7071 196.744 -432.6007)" style="fill:#090A0A;stroke:#EDBD79;stroke-miterlimit:10;" width="13.178" height="13.178"/>
			<path style="fill:none;stroke:#EDBD79;stroke-width:0.5;stroke-miterlimit:10;" d="M708.809,84.597V58.003l-1.585-1.585v-11.8
				c-5.994-2.575-10.853-7.434-13.427-13.427h-63.913l-9.318,9.318l-9.318-9.318h-63.975c-2.567,5.988-7.423,10.843-13.42,13.417
				v11.81l-1.585,1.585v26.593"/>
			
				<rect x="618.139" y="18.762" transform="matrix(0.7071 0.7071 -0.7071 0.7071 196.744 -432.6007)" style="fill:#090A0A;stroke:#EDBD79;stroke-miterlimit:10;" width="4.857" height="4.857"/>
			<line style="fill:none;stroke:#EDBD79;stroke-miterlimit:10;" x1="624.002" y1="21.191" x2="629.885" y2="21.191"/>
			<line style="fill:none;stroke:#EDBD79;stroke-miterlimit:10;" x1="617.133" y1="21.191" x2="611.249" y2="21.191"/>
			<polyline style="fill:none;stroke:#EDBD79;stroke-width:0.5;stroke-miterlimit:10;" points="615.076,25.017 615.076,31.191 
				620.568,36.682 626.059,31.191 626.059,25.017 			"/>
			<polyline style="fill:none;stroke:#EDBD79;stroke-width:0.5;stroke-miterlimit:10;" points="629.885,14.487 686.497,14.487 
				690.467,18.457 638.201,18.457 636.058,16.315 684.682,16.315 			"/>
			<polyline style="fill:none;stroke:#EDBD79;stroke-width:0.5;stroke-miterlimit:10;" points="611.521,14.487 554.909,14.487 
				550.94,18.457 603.206,18.457 605.348,16.315 556.725,16.315 			"/>
		</g>
		<g>
			<path style="fill:none;stroke:#EDBD79;stroke-miterlimit:10;" d="M544.475,144.101c-2.04-7.03-7.59-12.58-14.62-14.62V85.646"/>
			<path style="fill:none;stroke:#EDBD79;stroke-miterlimit:10;" d="M711.225,85.646v43.845c-7.03,2.04-12.58,7.58-14.61,14.61"/>
			<polyline style="fill:none;stroke:#EDBD79;stroke-miterlimit:10;" points="711.225,150.101 711.225,144.101 711.225,129.491 			
				"/>
			<polyline style="fill:none;stroke:#EDBD79;stroke-miterlimit:10;" points="529.855,129.481 529.855,144.101 529.855,150.101 			
				"/>
			<polyline style="fill:none;stroke:#EDBD79;stroke-miterlimit:10;" points="523.855,144.101 529.855,144.101 544.475,144.101 			
				"/>
			<polyline style="fill:none;stroke:#EDBD79;stroke-miterlimit:10;" points="696.615,144.101 711.225,144.101 717.225,144.101 			
				"/>
			<path style="fill:none;stroke:#EDBD79;stroke-miterlimit:10;" d="M711.225,129.491c0.019-0.006,0.038-0.011,0.057-0.017
				c3.477-1.014,5.943-4.09,5.943-7.712v-17.399l-3.032-3.032V85.646"/>
			<path style="fill:none;stroke:#EDBD79;stroke-miterlimit:10;" d="M529.855,129.481c-0.019-0.005-0.038-0.011-0.057-0.016
				c-3.475-0.996-5.943-4.066-5.943-7.681v-17.42h0l3.032-3.032V85.646"/>
			<line style="fill:none;stroke:#EDBD79;stroke-miterlimit:10;" x1="525.195" y1="148.76" x2="539.021" y2="134.935"/>
			<line style="fill:none;stroke:#EDBD79;stroke-miterlimit:10;" x1="715.82" y1="148.76" x2="701.994" y2="134.935"/>
			<line style="fill:none;stroke:#EDBD79;stroke-miterlimit:10;" x1="711.225" y1="144.101" x2="698.667" y2="139.311"/>
			<line style="fill:none;stroke:#EDBD79;stroke-miterlimit:10;" x1="711.225" y1="144.101" x2="706.451" y2="131.536"/>
			<line style="fill:none;stroke:#EDBD79;stroke-miterlimit:10;" x1="529.855" y1="144.101" x2="542.477" y2="139.41"/>
			<line style="fill:none;stroke:#EDBD79;stroke-miterlimit:10;" x1="529.855" y1="144.101" x2="534.774" y2="131.612"/>
			<path style="fill:none;stroke:#EDBD79;stroke-miterlimit:10;" d="M629.559,144.101h67.056c-0.56,1.9-0.86,3.92-0.86,6h-59.932"/>
			<path style="fill:none;stroke:#EDBD79;stroke-miterlimit:10;" d="M604.839,150.101h-59.514c0-2.08-0.3-4.1-0.85-6h66.719"/>
			
				<rect x="606.455" y="145.361" transform="matrix(-0.7071 -0.7071 0.7071 -0.7071 937.2375 688.4179)" style="fill:#090A0A;stroke:#EDBD79;stroke-miterlimit:10;" width="9.48" height="9.48"/>
			
				<rect x="624.819" y="145.361" transform="matrix(-0.7071 -0.7071 0.7071 -0.7071 968.5867 701.4037)" style="fill:#090A0A;stroke:#EDBD79;stroke-miterlimit:10;" width="9.48" height="9.48"/>
			
				<rect x="613.924" y="143.512" transform="matrix(-0.7071 -0.7071 0.7071 -0.7071 953.1472 695.0049)" style="fill:#090A0A;stroke:#EDBD79;stroke-miterlimit:10;" width="13.178" height="13.178"/>
			<path style="fill:none;stroke:#EDBD79;stroke-width:0.5;stroke-miterlimit:10;" d="M532.271,86.695v26.593l1.585,1.585v11.8
				c5.994,2.575,10.853,7.434,13.427,13.427h63.912l9.318-9.318l9.318,9.318h63.975c2.567-5.988,7.423-10.843,13.42-13.418v-11.81
				l1.585-1.585V86.696"/>
			
				<rect x="618.084" y="147.672" transform="matrix(-0.7071 -0.7071 0.7071 -0.7071 953.1442 695.0067)" style="fill:#090A0A;stroke:#EDBD79;stroke-miterlimit:10;" width="4.857" height="4.857"/>
			<line style="fill:none;stroke:#EDBD79;stroke-miterlimit:10;" x1="617.078" y1="150.101" x2="611.195" y2="150.101"/>
			<line style="fill:none;stroke:#EDBD79;stroke-miterlimit:10;" x1="623.947" y1="150.101" x2="629.831" y2="150.101"/>
			<polyline style="fill:none;stroke:#EDBD79;stroke-width:0.5;stroke-miterlimit:10;" points="626.004,146.274 626.004,140.101 
				620.513,134.609 615.021,140.101 615.021,146.274 			"/>
			<polyline style="fill:none;stroke:#EDBD79;stroke-width:0.5;stroke-miterlimit:10;" points="611.195,156.804 554.583,156.804 
				550.613,152.835 602.879,152.835 605.022,154.977 556.398,154.977 			"/>
			<polyline style="fill:none;stroke:#EDBD79;stroke-width:0.5;stroke-miterlimit:10;" points="629.559,156.804 686.171,156.804 
				690.141,152.835 637.874,152.835 635.732,154.977 684.355,154.977 			"/>
		</g>
		
			<rect x="527.405" y="83.196" transform="matrix(0.7071 0.7071 -0.7071 0.7071 215.7515 -349.5789)" style="fill:#090A0A;stroke:#EDBD79;stroke-miterlimit:10;" width="4.9" height="4.9"/>
		
			<rect x="708.775" y="83.196" transform="matrix(0.7071 0.7071 -0.7071 0.7071 268.8655 -477.8205)" style="fill:#090A0A;stroke:#EDBD79;stroke-miterlimit:10;" width="4.9" height="4.9"/>
	</g>
	<g>
		<g>
			<polyline style="fill:none;stroke:#EDBD79;stroke-miterlimit:10;" points="523.855,251.621 523.855,186.661 597.013,186.661 
				608.175,175.499 632.85,175.499 644.012,186.661 717.226,186.661 717.226,251.621 			"/>
			<g>
				<rect x="523.855" y="176.767" style="fill:none;stroke:#EDBD79;stroke-miterlimit:10;" width="6" height="6"/>
				<rect x="513.961" y="186.661" style="fill:none;stroke:#EDBD79;stroke-miterlimit:10;" width="6" height="6"/>
				<polyline style="fill:none;stroke:#EDBD79;stroke-miterlimit:10;" points="519.961,192.661 529.854,192.661 529.854,182.767 
									"/>
			</g>
			<g>
				
					<rect x="711.225" y="176.767" transform="matrix(-1 -1.224647e-16 1.224647e-16 -1 1428.4509 359.5337)" style="fill:none;stroke:#EDBD79;stroke-miterlimit:10;" width="6" height="6"/>
				
					<rect x="721.119" y="186.661" transform="matrix(-1 -1.224647e-16 1.224647e-16 -1 1448.2377 379.3223)" style="fill:none;stroke:#EDBD79;stroke-miterlimit:10;" width="6" height="6"/>
				<polyline style="fill:none;stroke:#EDBD79;stroke-miterlimit:10;" points="721.119,192.661 711.225,192.661 711.225,182.767 
									"/>
			</g>
			<g>
				<polyline style="fill:none;stroke:#EDBD79;stroke-miterlimit:10;" points="519.961,192.661 519.961,215.39 532.793,228.222 
					532.793,251.621 				"/>
			</g>
			<g>
				<polyline style="fill:none;stroke:#EDBD79;stroke-miterlimit:10;" points="711.225,182.767 650.249,182.767 646.551,179.116 
					620.513,179.116 594.482,179.116 590.831,182.767 529.854,182.767 				"/>
				<polyline style="fill:none;stroke:#EDBD79;stroke-miterlimit:10;" points="721.119,192.661 721.119,215.39 708.276,228.232 
					708.206,251.621 				"/>
			</g>
			<polyline style="fill:none;stroke:#EDBD79;stroke-width:0.5;stroke-miterlimit:10;" points="636.234,189.658 708.225,189.658 
				708.225,195.658 714.225,195.658 714.225,232.759 721.065,239.599 721.065,251.621 			"/>
			<polyline style="fill:none;stroke:#EDBD79;stroke-width:0.5;stroke-miterlimit:10;" points="604.846,189.658 532.855,189.658 
				532.855,195.658 526.855,195.658 526.855,232.759 519.977,239.637 519.977,251.621 			"/>
			<polyline style="fill:none;stroke:#EDBD79;stroke-width:0.5;stroke-miterlimit:10;" points="541.306,195.658 532.855,195.658 
				532.855,203.999 529.854,203.999 529.854,254.423 			"/>
			<polyline style="fill:none;stroke:#EDBD79;stroke-width:0.5;stroke-miterlimit:10;" points="699.755,195.658 708.206,195.658 
				708.206,203.999 711.225,203.999 711.225,251.621 			"/>
			<polygon style="fill:none;stroke:#EDBD79;stroke-width:0.5;stroke-miterlimit:10;" points="632.234,193.251 608.846,193.251 
				604.846,189.658 608.846,186.066 632.234,186.066 636.234,189.658 			"/>
			<polyline style="fill:none;stroke:#EDBD79;stroke-miterlimit:10;" points="590.831,182.767 610.253,182.767 617.204,189.718 
				620.54,189.718 			"/>
			<polyline style="fill:none;stroke:#EDBD79;stroke-miterlimit:10;" points="650.249,182.767 630.828,182.767 623.877,189.718 
				620.54,189.718 			"/>
		</g>
		<g>
			<polyline style="fill:none;stroke:#EDBD79;stroke-miterlimit:10;" points="717.225,251.621 717.225,316.581 644.067,316.581 
				632.905,327.743 608.229,327.743 597.068,316.581 523.854,316.581 523.854,251.621 			"/>
			<g>
				
					<rect x="711.225" y="320.475" transform="matrix(-1 -1.224647e-16 1.224647e-16 -1 1428.4509 646.9507)" style="fill:none;stroke:#EDBD79;stroke-miterlimit:10;" width="6" height="6"/>
				
					<rect x="721.119" y="310.581" transform="matrix(-1 -1.224647e-16 1.224647e-16 -1 1448.2377 627.1621)" style="fill:none;stroke:#EDBD79;stroke-miterlimit:10;" width="6" height="6"/>
				<polyline style="fill:none;stroke:#EDBD79;stroke-miterlimit:10;" points="721.119,310.581 711.225,310.581 711.225,320.475 
									"/>
			</g>
			<g>
				<rect x="523.855" y="320.475" style="fill:none;stroke:#EDBD79;stroke-miterlimit:10;" width="6" height="6"/>
				<rect x="513.961" y="310.581" style="fill:none;stroke:#EDBD79;stroke-miterlimit:10;" width="6" height="6"/>
				<polyline style="fill:none;stroke:#EDBD79;stroke-miterlimit:10;" points="519.961,310.581 529.854,310.581 529.854,320.475 
									"/>
			</g>
			<g>
				<polyline style="fill:none;stroke:#EDBD79;stroke-miterlimit:10;" points="721.119,310.581 721.119,287.852 708.287,275.021 
					708.206,251.621 				"/>
			</g>
			<g>
				<polyline style="fill:none;stroke:#EDBD79;stroke-miterlimit:10;" points="529.854,320.475 590.831,320.475 594.529,324.126 
					620.567,324.126 646.598,324.126 650.249,320.475 711.225,320.475 				"/>
				<polyline style="fill:none;stroke:#EDBD79;stroke-miterlimit:10;" points="519.961,310.581 519.961,287.852 532.803,275.01 
					532.793,251.621 				"/>
			</g>
			<polyline style="fill:none;stroke:#EDBD79;stroke-width:0.5;stroke-miterlimit:10;" points="604.846,313.584 532.855,313.584 
				532.855,307.584 526.855,307.584 526.855,270.483 520.015,263.643 520.015,251.621 			"/>
			<polyline style="fill:none;stroke:#EDBD79;stroke-width:0.5;stroke-miterlimit:10;" points="636.234,313.584 708.225,313.584 
				708.225,307.584 714.225,307.584 714.225,270.483 721.103,263.605 721.103,251.621 			"/>
			<polyline style="fill:none;stroke:#EDBD79;stroke-width:0.5;stroke-miterlimit:10;" points="699.774,307.584 708.225,307.584 
				708.225,299.243 711.225,299.243 711.225,251.621 			"/>
			<polyline style="fill:none;stroke:#EDBD79;stroke-width:0.5;stroke-miterlimit:10;" points="541.325,307.584 532.874,307.584 
				532.874,299.243 529.854,299.243 529.854,254.423 			"/>
			<polygon style="fill:none;stroke:#EDBD79;stroke-width:0.5;stroke-miterlimit:10;" points="608.846,309.991 632.234,309.991 
				636.234,313.584 632.234,317.176 608.846,317.176 604.846,313.584 			"/>
			<polyline style="fill:none;stroke:#EDBD79;stroke-miterlimit:10;" points="650.249,320.475 630.827,320.475 623.876,313.525 
				620.54,313.525 			"/>
			<polyline style="fill:none;stroke:#EDBD79;stroke-miterlimit:10;" points="590.831,320.475 610.252,320.475 617.203,313.525 
				620.54,313.525 			"/>
		</g>
		
			<line style="fill:none;stroke:#EDBD79;stroke-width:0.5;stroke-miterlimit:10;" x1="529.854" y1="203.999" x2="529.854" y2="254.423"/>
		
			<line style="fill:none;stroke:#EDBD79;stroke-width:0.5;stroke-miterlimit:10;" x1="529.854" y1="299.243" x2="529.854" y2="254.423"/>
	</g>
	<g>
		<polyline style="fill:none;stroke:#EDBD79;stroke-miterlimit:10;" points="639.938,481.046 699.771,481.046 696.532,460.326 
			717.253,463.565 717.253,416.589 		"/>
		<polygon style="fill:none;stroke:#EDBD79;stroke-miterlimit:10;" points="721.038,484.831 706.941,481.046 706.941,470.735 
			717.253,470.735 		"/>
		<line style="fill:none;stroke:#EDBD79;stroke-miterlimit:10;" x1="706.941" y1="470.735" x2="706.941" y2="416.589"/>
		<line style="fill:none;stroke:#EDBD79;stroke-miterlimit:10;" x1="706.941" y1="470.735" x2="640.091" y2="470.735"/>
		<polyline style="fill:none;stroke:#EDBD79;stroke-miterlimit:10;" points="601.186,481.046 541.363,481.046 544.363,460.564 
			523.881,463.565 523.881,416.589 		"/>
		<polygon style="fill:none;stroke:#EDBD79;stroke-miterlimit:10;" points="520.042,484.885 534.193,481.046 534.193,470.735 
			523.881,470.735 		"/>
		<line style="fill:none;stroke:#EDBD79;stroke-miterlimit:10;" x1="534.193" y1="470.735" x2="534.193" y2="416.589"/>
		<line style="fill:none;stroke:#EDBD79;stroke-miterlimit:10;" x1="534.193" y1="470.735" x2="601.196" y2="470.735"/>
		<polyline style="fill:none;stroke:#EDBD79;stroke-width:0.5;stroke-miterlimit:10;" points="586.12,475.891 529.037,475.891 
			529.037,416.589 		"/>
		<polyline style="fill:none;stroke:#EDBD79;stroke-width:0.5;stroke-miterlimit:10;" points="712.097,416.589 712.097,475.891 
			655.014,475.891 		"/>
		<polygon style="fill:#090A0A;stroke:#EDBD79;stroke-miterlimit:10;" points="620.567,467.058 634.4,475.891 620.567,484.724 
			606.734,475.891 		"/>
		<polygon style="fill:none;stroke:#EDBD79;stroke-miterlimit:10;" points="602.664,469.797 612.207,475.891 602.664,481.984 
			593.122,475.891 		"/>
		<polygon style="fill:none;stroke:#EDBD79;stroke-miterlimit:10;" points="591.522,472.441 596.924,475.891 591.522,479.34 
			586.12,475.891 		"/>
		<polygon style="fill:none;stroke:#EDBD79;stroke-miterlimit:10;" points="649.612,472.441 655.014,475.891 649.612,479.34 
			644.21,475.891 		"/>
		<polygon style="fill:none;stroke:#EDBD79;stroke-miterlimit:10;" points="638.47,469.797 648.012,475.891 638.47,481.984 
			628.927,475.891 		"/>
		<polygon style="fill:#090A0A;stroke:#EDBD79;stroke-miterlimit:10;" points="625.795,475.891 620.567,484.078 615.339,475.891 
			620.567,467.703 		"/>
		<line style="fill:none;stroke:#EDBD79;stroke-miterlimit:10;" x1="721.038" y1="484.831" x2="712.097" y2="475.891"/>
		<line style="fill:none;stroke:#EDBD79;stroke-miterlimit:10;" x1="520.042" y1="484.885" x2="529.037" y2="475.891"/>
		<line style="fill:none;stroke:#EDBD79;stroke-miterlimit:10;" x1="696.532" y1="460.326" x2="706.941" y2="470.735"/>
		<line style="fill:none;stroke:#EDBD79;stroke-miterlimit:10;" x1="544.363" y1="460.564" x2="534.193" y2="470.735"/>
		<polyline style="fill:none;stroke:#EDBD79;stroke-miterlimit:10;" points="601.142,352.132 541.309,352.132 544.548,372.852 
			523.827,369.613 523.827,416.589 		"/>
		<polygon style="fill:none;stroke:#EDBD79;stroke-miterlimit:10;" points="520.042,348.347 534.139,352.132 534.139,362.443 
			523.827,362.443 		"/>
		<line style="fill:none;stroke:#EDBD79;stroke-miterlimit:10;" x1="534.139" y1="362.443" x2="534.139" y2="416.589"/>
		<line style="fill:none;stroke:#EDBD79;stroke-miterlimit:10;" x1="534.139" y1="362.443" x2="600.989" y2="362.443"/>
		<polyline style="fill:none;stroke:#EDBD79;stroke-miterlimit:10;" points="639.894,352.132 699.717,352.132 696.717,372.614 
			717.199,369.613 717.199,416.589 		"/>
		<polygon style="fill:none;stroke:#EDBD79;stroke-miterlimit:10;" points="721.038,348.293 706.887,352.132 706.887,362.443 
			717.199,362.443 		"/>
		<line style="fill:none;stroke:#EDBD79;stroke-miterlimit:10;" x1="706.887" y1="362.443" x2="706.887" y2="416.589"/>
		<line style="fill:none;stroke:#EDBD79;stroke-miterlimit:10;" x1="706.887" y1="362.443" x2="639.884" y2="362.443"/>
		<polyline style="fill:none;stroke:#EDBD79;stroke-width:0.5;stroke-miterlimit:10;" points="654.96,357.287 712.043,357.287 
			712.043,416.589 		"/>
		<polyline style="fill:none;stroke:#EDBD79;stroke-width:0.5;stroke-miterlimit:10;" points="528.983,416.589 528.983,357.287 
			586.066,357.287 		"/>
		<polygon style="fill:#090A0A;stroke:#EDBD79;stroke-miterlimit:10;" points="620.513,366.12 606.68,357.287 620.513,348.454 
			634.346,357.287 		"/>
		<polygon style="fill:#090A0A;stroke:#EDBD79;stroke-miterlimit:10;" points="523.343,416.589 528.983,407.756 534.623,416.589 
			528.983,425.422 		"/>
		<polygon style="fill:#090A0A;stroke:#EDBD79;stroke-miterlimit:10;" points="706.403,416.589 712.043,407.756 717.683,416.589 
			712.043,425.422 		"/>
		<polygon style="fill:none;stroke:#EDBD79;stroke-miterlimit:10;" points="638.416,363.381 628.873,357.287 638.416,351.194 
			647.958,357.287 		"/>
		<polygon style="fill:none;stroke:#EDBD79;stroke-miterlimit:10;" points="649.558,360.737 644.156,357.287 649.558,353.838 
			654.96,357.287 		"/>
		<polygon style="fill:none;stroke:#EDBD79;stroke-miterlimit:10;" points="591.468,360.737 586.066,357.287 591.468,353.838 
			596.87,357.287 		"/>
		<polygon style="fill:none;stroke:#EDBD79;stroke-miterlimit:10;" points="602.61,363.381 593.068,357.287 602.61,351.194 
			612.153,357.287 		"/>
		<polygon style="fill:#090A0A;stroke:#EDBD79;stroke-miterlimit:10;" points="615.285,357.287 620.513,349.1 625.741,357.287 
			620.513,365.475 		"/>
		<line style="fill:none;stroke:#EDBD79;stroke-miterlimit:10;" x1="520.042" y1="348.347" x2="528.983" y2="357.287"/>
		<line style="fill:none;stroke:#EDBD79;stroke-miterlimit:10;" x1="721.038" y1="348.293" x2="712.043" y2="357.287"/>
		<line style="fill:none;stroke:#EDBD79;stroke-miterlimit:10;" x1="544.548" y1="372.852" x2="534.139" y2="362.443"/>
		<line style="fill:none;stroke:#EDBD79;stroke-miterlimit:10;" x1="696.717" y1="372.614" x2="706.887" y2="362.443"/>
	</g>
	<g>
		<path style="fill:none;stroke:#EDBD79;stroke-miterlimit:10;" d="M380.666,21.885h54.27c5.785,0,10.475,4.69,10.475,10.475v21.022
			h21.022c5.785,0,10.475,4.69,10.475,10.475v187.267"/>
		<polyline style="fill:none;stroke:#EDBD79;stroke-miterlimit:10;" points="390.767,31.986 466.804,31.986 466.804,224.021 		"/>
		<path style="fill:none;stroke:#EDBD79;stroke-miterlimit:10;" d="M472.414,40.485h-14.108V26.376c0-2.483,2.013-4.496,4.496-4.496
			h14.108v14.109C476.91,38.472,474.897,40.485,472.414,40.485z"/>
		<line style="fill:none;stroke:#EDBD79;stroke-miterlimit:10;" x1="458.305" y1="40.485" x2="413.454" y2="40.485"/>
		<line style="fill:none;stroke:#EDBD79;stroke-miterlimit:10;" x1="458.305" y1="40.485" x2="458.305" y2="157.581"/>
		<path style="fill:none;stroke:#EDBD79;stroke-miterlimit:10;" d="M365.139,21.885h-54.271c-5.785,0-10.475,4.69-10.475,10.475
			v21.022h-21.022c-5.785,0-10.475,4.69-10.475,10.475v187.267"/>
		<polyline style="fill:none;stroke:#EDBD79;stroke-miterlimit:10;" points="355.038,31.986 279.001,31.986 279.001,222.153 		"/>
		<path style="fill:none;stroke:#EDBD79;stroke-miterlimit:10;" d="M273.392,40.485H287.5V26.376c0-2.483-2.013-4.496-4.496-4.496
			h-14.108v14.109C268.896,38.472,270.909,40.485,273.392,40.485z"/>
		<line style="fill:none;stroke:#EDBD79;stroke-miterlimit:10;" x1="287.5" y1="40.485" x2="332.351" y2="40.485"/>
		<line style="fill:none;stroke:#EDBD79;stroke-miterlimit:10;" x1="287.5" y1="40.485" x2="287.5" y2="157.581"/>
		<g>
			
				<rect x="360.271" y="19.354" transform="matrix(0.7071 0.7071 -0.7071 0.7071 131.8373 -254.313)" style="fill:none;stroke:#EDBD79;stroke-miterlimit:10;" width="25.264" height="25.264"/>
			
				<rect x="367.645" y="26.728" transform="matrix(0.7071 0.7071 -0.7071 0.7071 131.8381 -254.3137)" style="fill:none;stroke:#EDBD79;stroke-miterlimit:10;" width="10.516" height="10.516"/>
		</g>
		<line style="fill:none;stroke:#EDBD79;stroke-miterlimit:10;" x1="268.896" y1="21.88" x2="279.001" y2="31.986"/>
		<line style="fill:none;stroke:#EDBD79;stroke-miterlimit:10;" x1="476.91" y1="21.88" x2="466.804" y2="31.986"/>
		<line style="fill:none;stroke:#EDBD79;stroke-miterlimit:10;" x1="476.91" y1="21.88" x2="458.305" y2="31.986"/>
		<line style="fill:none;stroke:#EDBD79;stroke-miterlimit:10;" x1="466.804" y1="40.485" x2="476.91" y2="21.88"/>
		<line style="fill:none;stroke:#EDBD79;stroke-miterlimit:10;" x1="476.91" y1="21.88" x2="458.305" y2="26.536"/>
		<line style="fill:none;stroke:#EDBD79;stroke-miterlimit:10;" x1="476.91" y1="21.88" x2="472.503" y2="40.485"/>
		<line style="fill:none;stroke:#EDBD79;stroke-miterlimit:10;" x1="268.896" y1="21.88" x2="287.5" y2="31.986"/>
		<line style="fill:none;stroke:#EDBD79;stroke-miterlimit:10;" x1="279.001" y1="40.485" x2="268.896" y2="21.88"/>
		<line style="fill:none;stroke:#EDBD79;stroke-miterlimit:10;" x1="268.896" y1="21.88" x2="287.5" y2="26.562"/>
		<line style="fill:none;stroke:#EDBD79;stroke-miterlimit:10;" x1="268.896" y1="21.88" x2="273.949" y2="40.485"/>
		<line style="fill:none;stroke:#EDBD79;stroke-miterlimit:10;" x1="372.903" y1="24.55" x2="372.903" y2="14.121"/>
		<line style="fill:none;stroke:#EDBD79;stroke-miterlimit:10;" x1="372.903" y1="39.422" x2="372.903" y2="49.85"/>
		<polygon style="fill:#090A0A;stroke:#EDBD79;stroke-miterlimit:10;" points="385.479,36.799 380.666,31.986 385.479,27.173 
			409.638,31.986 		"/>
		<polygon style="fill:#090A0A;stroke:#EDBD79;stroke-miterlimit:10;" points="283.814,246.311 279.001,251.124 274.189,246.311 
			279.001,222.153 		"/>
		<polygon style="fill:#090A0A;stroke:#EDBD79;stroke-miterlimit:10;" points="284.585,160.497 287.5,157.581 290.416,160.497 
			287.5,175.133 		"/>
		<polygon style="fill:#090A0A;stroke:#EDBD79;stroke-miterlimit:10;" points="334.026,43.4 331.111,40.485 334.026,37.569 
			348.662,40.485 		"/>
		<polygon style="fill:#090A0A;stroke:#EDBD79;stroke-miterlimit:10;" points="411.779,43.4 414.695,40.485 411.779,37.569 
			397.143,40.485 		"/>
		<polygon style="fill:#090A0A;stroke:#EDBD79;stroke-miterlimit:10;" points="455.39,160.497 458.305,157.581 461.221,160.497 
			458.305,175.133 		"/>
		<polygon style="fill:#090A0A;stroke:#EDBD79;stroke-miterlimit:10;" points="471.617,246.311 466.804,251.124 461.991,246.311 
			466.804,222.153 		"/>
		<polygon style="fill:#090A0A;stroke:#EDBD79;stroke-miterlimit:10;" points="360.327,36.799 365.139,31.986 360.327,27.173 
			336.168,31.986 		"/>
		<path style="fill:none;stroke:#EDBD79;stroke-width:0.5;stroke-miterlimit:10;" d="M269.565,218.876l4.939-4.939V87.104
			l9.057-9.057V53.152c0-2.464,1.998-4.462,4.462-4.462h6.434V33.153c0-3.302,2.677-5.979,5.98-5.979h42.142"/>
		<path style="fill:none;stroke:#EDBD79;stroke-width:0.5;stroke-miterlimit:10;" d="M403.228,27.173h42.142
			c3.303,0,5.98,2.677,5.98,5.979V48.69h6.434c2.464,0,4.462,1.998,4.462,4.462v24.895l9.057,9.057v126.833l4.939,4.939"/>
		<path style="fill:none;stroke:#EDBD79;stroke-miterlimit:10;" d="M365.139,480.364h-54.27c-5.785,0-10.475-4.69-10.475-10.475
			v-21.022h-21.022c-5.785,0-10.475-4.69-10.475-10.476V251.124"/>
		<polyline style="fill:none;stroke:#EDBD79;stroke-miterlimit:10;" points="355.038,470.263 279.002,470.263 279.002,278.227 		"/>
		<path style="fill:none;stroke:#EDBD79;stroke-miterlimit:10;" d="M273.392,461.764H287.5v14.109c0,2.483-2.013,4.496-4.496,4.496
			h-14.108V466.26C268.896,463.777,270.909,461.764,273.392,461.764z"/>
		<line style="fill:none;stroke:#EDBD79;stroke-miterlimit:10;" x1="287.5" y1="461.764" x2="332.351" y2="461.764"/>
		<line style="fill:none;stroke:#EDBD79;stroke-miterlimit:10;" x1="287.5" y1="461.764" x2="287.5" y2="344.667"/>
		<path style="fill:none;stroke:#EDBD79;stroke-miterlimit:10;" d="M380.666,480.364h54.271c5.785,0,10.475-4.69,10.475-10.475
			v-21.022h21.022c5.785,0,10.475-4.69,10.475-10.476V251.124"/>
		<polyline style="fill:none;stroke:#EDBD79;stroke-miterlimit:10;" points="390.768,470.263 466.804,470.263 466.804,280.096 		"/>
		<path style="fill:none;stroke:#EDBD79;stroke-miterlimit:10;" d="M472.414,461.764h-14.108v14.109
			c0,2.483,2.013,4.496,4.496,4.496h14.108V466.26C476.91,463.777,474.897,461.764,472.414,461.764z"/>
		<line style="fill:none;stroke:#EDBD79;stroke-miterlimit:10;" x1="458.305" y1="461.764" x2="413.455" y2="461.764"/>
		<line style="fill:none;stroke:#EDBD79;stroke-miterlimit:10;" x1="458.305" y1="461.764" x2="458.305" y2="344.667"/>
		<g>
			
				<rect x="360.271" y="457.63" transform="matrix(-0.7071 -0.7071 0.7071 -0.7071 304.0592 1066.4706)" style="fill:none;stroke:#EDBD79;stroke-miterlimit:10;" width="25.264" height="25.264"/>
			
				<rect x="367.645" y="465.005" transform="matrix(-0.7071 -0.7071 0.7071 -0.7071 304.0592 1066.4706)" style="fill:none;stroke:#EDBD79;stroke-miterlimit:10;" width="10.516" height="10.516"/>
		</g>
		<line style="fill:none;stroke:#EDBD79;stroke-miterlimit:10;" x1="476.91" y1="480.368" x2="466.804" y2="470.263"/>
		<line style="fill:none;stroke:#EDBD79;stroke-miterlimit:10;" x1="268.896" y1="480.368" x2="279.002" y2="470.263"/>
		<line style="fill:none;stroke:#EDBD79;stroke-miterlimit:10;" x1="268.896" y1="480.368" x2="287.5" y2="470.263"/>
		<line style="fill:none;stroke:#EDBD79;stroke-miterlimit:10;" x1="279.002" y1="461.764" x2="268.896" y2="480.368"/>
		<line style="fill:none;stroke:#EDBD79;stroke-miterlimit:10;" x1="268.896" y1="480.368" x2="287.5" y2="475.712"/>
		<line style="fill:none;stroke:#EDBD79;stroke-miterlimit:10;" x1="268.896" y1="480.368" x2="273.303" y2="461.764"/>
		<line style="fill:none;stroke:#EDBD79;stroke-miterlimit:10;" x1="476.91" y1="480.368" x2="458.305" y2="470.263"/>
		<line style="fill:none;stroke:#EDBD79;stroke-miterlimit:10;" x1="466.804" y1="461.764" x2="476.91" y2="480.368"/>
		<line style="fill:none;stroke:#EDBD79;stroke-miterlimit:10;" x1="476.91" y1="480.368" x2="458.305" y2="475.686"/>
		<line style="fill:none;stroke:#EDBD79;stroke-miterlimit:10;" x1="476.91" y1="480.368" x2="471.857" y2="461.764"/>
		<line style="fill:none;stroke:#EDBD79;stroke-miterlimit:10;" x1="372.903" y1="477.698" x2="372.903" y2="488.127"/>
		<line style="fill:none;stroke:#EDBD79;stroke-miterlimit:10;" x1="372.903" y1="462.827" x2="372.903" y2="452.398"/>
		<polygon style="fill:#090A0A;stroke:#EDBD79;stroke-miterlimit:10;" points="360.327,465.45 365.139,470.263 360.327,475.075 
			336.168,470.263 		"/>
		<polygon style="fill:#090A0A;stroke:#EDBD79;stroke-miterlimit:10;" points="461.991,255.937 466.804,251.124 471.617,255.937 
			466.804,280.096 		"/>
		<polygon style="fill:#090A0A;stroke:#EDBD79;stroke-miterlimit:10;" points="461.221,341.751 458.305,344.667 455.39,341.751 
			458.305,327.116 		"/>
		<polygon style="fill:#090A0A;stroke:#EDBD79;stroke-miterlimit:10;" points="411.779,458.848 414.695,461.764 411.779,464.68 
			397.144,461.764 		"/>
		<polygon style="fill:#090A0A;stroke:#EDBD79;stroke-miterlimit:10;" points="334.026,458.848 331.111,461.764 334.026,464.68 
			348.662,461.764 		"/>
		<polygon style="fill:#090A0A;stroke:#EDBD79;stroke-miterlimit:10;" points="290.416,341.751 287.5,344.667 284.585,341.751 
			287.5,327.116 		"/>
		<polygon style="fill:#090A0A;stroke:#EDBD79;stroke-miterlimit:10;" points="274.189,255.937 279.002,251.124 283.814,255.937 
			279.002,280.096 		"/>
		<polygon style="fill:#090A0A;stroke:#EDBD79;stroke-miterlimit:10;" points="385.479,465.45 380.666,470.263 385.479,475.075 
			409.638,470.263 		"/>
		<path style="fill:none;stroke:#EDBD79;stroke-width:0.5;stroke-miterlimit:10;" d="M476.241,283.373l-4.939,4.939v126.833
			l-9.057,9.057v24.895c0,2.464-1.998,4.462-4.462,4.462h-6.434v15.537c0,3.302-2.677,5.98-5.98,5.98h-42.142"/>
		<path style="fill:none;stroke:#EDBD79;stroke-width:0.5;stroke-miterlimit:10;" d="M342.578,475.075h-42.142
			c-3.303,0-5.98-2.677-5.98-5.98v-15.537h-6.434c-2.464,0-4.462-1.998-4.462-4.462v-24.895l-9.057-9.057V288.312l-4.939-4.939"/>
	</g>
</g>
</svg>
